<svg width="185" height="112" viewBox="0 0 185 112" fill="none" xmlns="http://www.w3.org/2000/svg">
<rect width="185" height="112" fill="white"/>
<rect x="10" y="56" width="68" height="5" fill="#CCCCCC"/>
<rect x="10" y="64" width="54" height="5" fill="#CCCCCC"/>
<rect x="95" y="56" width="68" height="5" fill="#CCCCCC"/>
<rect x="95" y="64" width="54" height="5" fill="#CCCCCC"/>
<rect x="95" y="72" width="68" height="5" fill="#CCCCCC"/>
<rect x="10" y="22" width="156" height="5" fill="#CCCCCC"/>
<rect x="10" y="30" width="124.091" height="5" fill="#CCCCCC"/>
<path d="M16.6064 98.7598C16.5062 99.8216 16.1143 100.651 15.4307 101.248C14.7471 101.84 13.8379 102.137 12.7031 102.137C11.9102 102.137 11.2106 101.95 10.6045 101.576C10.0029 101.198 9.53809 100.662 9.20996 99.9697C8.88184 99.277 8.71094 98.4727 8.69727 97.5566V96.627C8.69727 95.6882 8.86361 94.861 9.19629 94.1455C9.52897 93.43 10.0052 92.8786 10.625 92.4912C11.2493 92.1038 11.9694 91.9102 12.7852 91.9102C13.8835 91.9102 14.7676 92.2087 15.4375 92.8057C16.1074 93.4027 16.4971 94.2458 16.6064 95.335H14.8838C14.8018 94.6195 14.5921 94.1045 14.2549 93.79C13.9222 93.471 13.4323 93.3115 12.7852 93.3115C12.0332 93.3115 11.4544 93.5872 11.0488 94.1387C10.6478 94.6855 10.4427 95.4899 10.4336 96.5518V97.4336C10.4336 98.5091 10.625 99.3294 11.0078 99.8945C11.3952 100.46 11.9603 100.742 12.7031 100.742C13.3822 100.742 13.8926 100.59 14.2344 100.284C14.5762 99.9788 14.7926 99.4707 14.8838 98.7598H16.6064ZM22.417 102C22.3441 101.859 22.2803 101.629 22.2256 101.31C21.6969 101.861 21.0498 102.137 20.2842 102.137C19.5413 102.137 18.9352 101.925 18.4658 101.501C17.9964 101.077 17.7617 100.553 17.7617 99.9287C17.7617 99.1403 18.0534 98.5365 18.6367 98.1172C19.2246 97.6934 20.0632 97.4814 21.1523 97.4814H22.1709V96.9961C22.1709 96.6133 22.0638 96.3079 21.8496 96.0801C21.6354 95.8477 21.3096 95.7314 20.8721 95.7314C20.4938 95.7314 20.1839 95.8271 19.9424 96.0186C19.7008 96.2054 19.5801 96.4447 19.5801 96.7363H17.9189C17.9189 96.3307 18.0534 95.9525 18.3223 95.6016C18.5911 95.2461 18.9557 94.9681 19.416 94.7676C19.8809 94.5671 20.3981 94.4668 20.9678 94.4668C21.8337 94.4668 22.5241 94.6855 23.0391 95.123C23.554 95.556 23.8184 96.1667 23.832 96.9551V100.291C23.832 100.956 23.9255 101.487 24.1123 101.884V102H22.417ZM20.5918 100.804C20.9199 100.804 21.2275 100.724 21.5146 100.564C21.8063 100.405 22.0251 100.191 22.1709 99.9219V98.5273H21.2754C20.6602 98.5273 20.1976 98.6344 19.8877 98.8486C19.5778 99.0628 19.4229 99.3659 19.4229 99.7578C19.4229 100.077 19.5277 100.332 19.7373 100.523C19.9515 100.71 20.2363 100.804 20.5918 100.804ZM29.7178 99.9902C29.7178 99.694 29.5947 99.4684 29.3486 99.3135C29.1071 99.1585 28.7038 99.0218 28.1387 98.9033C27.5736 98.7848 27.1019 98.6344 26.7236 98.4521C25.8942 98.0511 25.4795 97.4701 25.4795 96.709C25.4795 96.071 25.7484 95.5378 26.2861 95.1094C26.8239 94.681 27.5075 94.4668 28.3369 94.4668C29.221 94.4668 29.9342 94.6855 30.4766 95.123C31.0234 95.5605 31.2969 96.1279 31.2969 96.8252H29.6357C29.6357 96.5062 29.5173 96.2419 29.2803 96.0322C29.0433 95.818 28.7288 95.7109 28.3369 95.7109C27.9723 95.7109 27.6738 95.7952 27.4414 95.9639C27.2135 96.1325 27.0996 96.3581 27.0996 96.6406C27.0996 96.8958 27.2067 97.0941 27.4209 97.2354C27.6351 97.3766 28.068 97.5202 28.7197 97.666C29.3714 97.8073 29.8818 97.9782 30.251 98.1787C30.6247 98.3747 30.9004 98.6117 31.0781 98.8896C31.2604 99.1676 31.3516 99.5049 31.3516 99.9014C31.3516 100.567 31.0758 101.107 30.5244 101.521C29.973 101.932 29.2507 102.137 28.3574 102.137C27.7513 102.137 27.2113 102.027 26.7373 101.809C26.2633 101.59 25.8942 101.289 25.6299 100.906C25.3656 100.523 25.2334 100.111 25.2334 99.6689H26.8467C26.8695 100.061 27.0176 100.364 27.291 100.578C27.5645 100.788 27.9268 100.893 28.3779 100.893C28.8154 100.893 29.1481 100.811 29.376 100.646C29.6038 100.478 29.7178 100.259 29.7178 99.9902ZM36.0615 102.137C35.0088 102.137 34.1543 101.806 33.498 101.146C32.8464 100.48 32.5205 99.596 32.5205 98.4932V98.2881C32.5205 97.5498 32.6618 96.8913 32.9443 96.3125C33.2314 95.7292 33.6325 95.2757 34.1475 94.9521C34.6624 94.6286 35.2367 94.4668 35.8701 94.4668C36.8773 94.4668 37.6543 94.7881 38.2012 95.4307C38.7526 96.0732 39.0283 96.9824 39.0283 98.1582V98.8281H34.1953C34.2454 99.4388 34.4482 99.9219 34.8037 100.277C35.1637 100.633 35.6149 100.811 36.1572 100.811C36.9183 100.811 37.5381 100.503 38.0166 99.8877L38.9121 100.742C38.6159 101.184 38.2194 101.528 37.7227 101.774C37.2305 102.016 36.6768 102.137 36.0615 102.137ZM35.8633 95.7998C35.4076 95.7998 35.0384 95.9593 34.7559 96.2783C34.4779 96.5973 34.3001 97.0417 34.2227 97.6113H37.3877V97.4883C37.3512 96.9323 37.2031 96.513 36.9434 96.2305C36.6836 95.9434 36.3236 95.7998 35.8633 95.7998ZM47.9561 99.9902C47.9561 99.694 47.833 99.4684 47.5869 99.3135C47.3454 99.1585 46.9421 99.0218 46.377 98.9033C45.8118 98.7848 45.3402 98.6344 44.9619 98.4521C44.1325 98.0511 43.7178 97.4701 43.7178 96.709C43.7178 96.071 43.9867 95.5378 44.5244 95.1094C45.0622 94.681 45.7458 94.4668 46.5752 94.4668C47.4593 94.4668 48.1725 94.6855 48.7148 95.123C49.2617 95.5605 49.5352 96.1279 49.5352 96.8252H47.874C47.874 96.5062 47.7555 96.2419 47.5186 96.0322C47.2816 95.818 46.9671 95.7109 46.5752 95.7109C46.2106 95.7109 45.9121 95.7952 45.6797 95.9639C45.4518 96.1325 45.3379 96.3581 45.3379 96.6406C45.3379 96.8958 45.445 97.0941 45.6592 97.2354C45.8734 97.3766 46.3063 97.5202 46.958 97.666C47.6097 97.8073 48.1201 97.9782 48.4893 98.1787C48.863 98.3747 49.1387 98.6117 49.3164 98.8896C49.4987 99.1676 49.5898 99.5049 49.5898 99.9014C49.5898 100.567 49.3141 101.107 48.7627 101.521C48.2113 101.932 47.4889 102.137 46.5957 102.137C45.9896 102.137 45.4495 102.027 44.9756 101.809C44.5016 101.59 44.1325 101.289 43.8682 100.906C43.6038 100.523 43.4717 100.111 43.4717 99.6689H45.085C45.1077 100.061 45.2559 100.364 45.5293 100.578C45.8027 100.788 46.165 100.893 46.6162 100.893C47.0537 100.893 47.3864 100.811 47.6143 100.646C47.8421 100.478 47.9561 100.259 47.9561 99.9902ZM53.124 92.8057V94.6035H54.4297V95.834H53.124V99.9629C53.124 100.245 53.1787 100.451 53.2881 100.578C53.402 100.701 53.6025 100.763 53.8896 100.763C54.0811 100.763 54.2747 100.74 54.4707 100.694V101.979C54.0924 102.084 53.7279 102.137 53.377 102.137C52.1009 102.137 51.4629 101.433 51.4629 100.024V95.834H50.2461V94.6035H51.4629V92.8057H53.124ZM60.1855 101.275C59.6979 101.85 59.0052 102.137 58.1074 102.137C57.3053 102.137 56.6969 101.902 56.2822 101.433C55.8721 100.963 55.667 100.284 55.667 99.3955V94.6035H57.3281V99.375C57.3281 100.314 57.7178 100.783 58.4971 100.783C59.3037 100.783 59.8483 100.494 60.1309 99.915V94.6035H61.792V102H60.2266L60.1855 101.275ZM63.1729 98.2471C63.1729 97.1077 63.4372 96.194 63.9658 95.5059C64.4945 94.8132 65.2031 94.4668 66.0918 94.4668C66.8757 94.4668 67.5091 94.7402 67.9922 95.2871V91.5H69.6533V102H68.1494L68.0674 101.234C67.5706 101.836 66.9076 102.137 66.0781 102.137C65.2122 102.137 64.5104 101.788 63.9727 101.091C63.4395 100.394 63.1729 99.4456 63.1729 98.2471ZM64.834 98.3906C64.834 99.1426 64.9775 99.7305 65.2646 100.154C65.5563 100.574 65.9688 100.783 66.502 100.783C67.181 100.783 67.6777 100.48 67.9922 99.874V96.7158C67.6868 96.1234 67.1947 95.8271 66.5156 95.8271C65.9779 95.8271 65.5632 96.0413 65.2715 96.4697C64.9798 96.8936 64.834 97.5339 64.834 98.3906ZM73.9736 99.6211L75.4775 94.6035H77.248L74.3086 103.121C73.8574 104.365 73.0918 104.987 72.0117 104.987C71.7702 104.987 71.5036 104.946 71.2119 104.864V103.579L71.5264 103.6C71.9456 103.6 72.2601 103.522 72.4697 103.367C72.6839 103.217 72.8525 102.962 72.9756 102.602L73.2148 101.966L70.6172 94.6035H72.4082L73.9736 99.6211Z" fill="#28292C"/>
<rect x="9" y="8" width="166" height="9" fill="#CCCCCC"/>
<rect x="9" y="43" width="80" height="9" fill="#032E45"/>
<rect x="95" y="43" width="80" height="9" fill="#006176"/>
<rect x="9" y="82" width="166" height="1" fill="#CCCCCC"/>
</svg>
