<svg width="185" height="112" viewBox="0 0 185 112" fill="none" xmlns="http://www.w3.org/2000/svg">
<rect width="185" height="112" fill="white"/>
<rect x="10" y="30" width="28" height="3.80952" fill="#CCCCCC"/>
<rect x="10" y="36.0952" width="22.2353" height="3.80952" fill="#CCCCCC"/>
<rect x="10" y="42.1905" width="28" height="3.80952" fill="#CCCCCC"/>
<rect x="10" y="55" width="28" height="3.80952" fill="#CCCCCC"/>
<rect x="10" y="61.0952" width="22.2353" height="3.80952" fill="#CCCCCC"/>
<rect x="10" y="67.1905" width="28" height="3.80952" fill="#CCCCCC"/>
<path d="M16.6064 98.7598C16.5062 99.8216 16.1143 100.651 15.4307 101.248C14.7471 101.84 13.8379 102.137 12.7031 102.137C11.9102 102.137 11.2106 101.95 10.6045 101.576C10.0029 101.198 9.53809 100.662 9.20996 99.9697C8.88184 99.277 8.71094 98.4727 8.69727 97.5566V96.627C8.69727 95.6882 8.86361 94.861 9.19629 94.1455C9.52897 93.43 10.0052 92.8786 10.625 92.4912C11.2493 92.1038 11.9694 91.9102 12.7852 91.9102C13.8835 91.9102 14.7676 92.2087 15.4375 92.8057C16.1074 93.4027 16.4971 94.2458 16.6064 95.335H14.8838C14.8018 94.6195 14.5921 94.1045 14.2549 93.79C13.9222 93.471 13.4323 93.3115 12.7852 93.3115C12.0332 93.3115 11.4544 93.5872 11.0488 94.1387C10.6478 94.6855 10.4427 95.4899 10.4336 96.5518V97.4336C10.4336 98.5091 10.625 99.3294 11.0078 99.8945C11.3952 100.46 11.9603 100.742 12.7031 100.742C13.3822 100.742 13.8926 100.59 14.2344 100.284C14.5762 99.9788 14.7926 99.4707 14.8838 98.7598H16.6064ZM22.417 102C22.3441 101.859 22.2803 101.629 22.2256 101.31C21.6969 101.861 21.0498 102.137 20.2842 102.137C19.5413 102.137 18.9352 101.925 18.4658 101.501C17.9964 101.077 17.7617 100.553 17.7617 99.9287C17.7617 99.1403 18.0534 98.5365 18.6367 98.1172C19.2246 97.6934 20.0632 97.4814 21.1523 97.4814H22.1709V96.9961C22.1709 96.6133 22.0638 96.3079 21.8496 96.0801C21.6354 95.8477 21.3096 95.7314 20.8721 95.7314C20.4938 95.7314 20.1839 95.8271 19.9424 96.0186C19.7008 96.2054 19.5801 96.4447 19.5801 96.7363H17.9189C17.9189 96.3307 18.0534 95.9525 18.3223 95.6016C18.5911 95.2461 18.9557 94.9681 19.416 94.7676C19.8809 94.5671 20.3981 94.4668 20.9678 94.4668C21.8337 94.4668 22.5241 94.6855 23.0391 95.123C23.554 95.556 23.8184 96.1667 23.832 96.9551V100.291C23.832 100.956 23.9255 101.487 24.1123 101.884V102H22.417ZM20.5918 100.804C20.9199 100.804 21.2275 100.724 21.5146 100.564C21.8063 100.405 22.0251 100.191 22.1709 99.9219V98.5273H21.2754C20.6602 98.5273 20.1976 98.6344 19.8877 98.8486C19.5778 99.0628 19.4229 99.3659 19.4229 99.7578C19.4229 100.077 19.5277 100.332 19.7373 100.523C19.9515 100.71 20.2363 100.804 20.5918 100.804ZM29.7178 99.9902C29.7178 99.694 29.5947 99.4684 29.3486 99.3135C29.1071 99.1585 28.7038 99.0218 28.1387 98.9033C27.5736 98.7848 27.1019 98.6344 26.7236 98.4521C25.8942 98.0511 25.4795 97.4701 25.4795 96.709C25.4795 96.071 25.7484 95.5378 26.2861 95.1094C26.8239 94.681 27.5075 94.4668 28.3369 94.4668C29.221 94.4668 29.9342 94.6855 30.4766 95.123C31.0234 95.5605 31.2969 96.1279 31.2969 96.8252H29.6357C29.6357 96.5062 29.5173 96.2419 29.2803 96.0322C29.0433 95.818 28.7288 95.7109 28.3369 95.7109C27.9723 95.7109 27.6738 95.7952 27.4414 95.9639C27.2135 96.1325 27.0996 96.3581 27.0996 96.6406C27.0996 96.8958 27.2067 97.0941 27.4209 97.2354C27.6351 97.3766 28.068 97.5202 28.7197 97.666C29.3714 97.8073 29.8818 97.9782 30.251 98.1787C30.6247 98.3747 30.9004 98.6117 31.0781 98.8896C31.2604 99.1676 31.3516 99.5049 31.3516 99.9014C31.3516 100.567 31.0758 101.107 30.5244 101.521C29.973 101.932 29.2507 102.137 28.3574 102.137C27.7513 102.137 27.2113 102.027 26.7373 101.809C26.2633 101.59 25.8942 101.289 25.6299 100.906C25.3656 100.523 25.2334 100.111 25.2334 99.6689H26.8467C26.8695 100.061 27.0176 100.364 27.291 100.578C27.5645 100.788 27.9268 100.893 28.3779 100.893C28.8154 100.893 29.1481 100.811 29.376 100.646C29.6038 100.478 29.7178 100.259 29.7178 99.9902ZM36.0615 102.137C35.0088 102.137 34.1543 101.806 33.498 101.146C32.8464 100.48 32.5205 99.596 32.5205 98.4932V98.2881C32.5205 97.5498 32.6618 96.8913 32.9443 96.3125C33.2314 95.7292 33.6325 95.2757 34.1475 94.9521C34.6624 94.6286 35.2367 94.4668 35.8701 94.4668C36.8773 94.4668 37.6543 94.7881 38.2012 95.4307C38.7526 96.0732 39.0283 96.9824 39.0283 98.1582V98.8281H34.1953C34.2454 99.4388 34.4482 99.9219 34.8037 100.277C35.1637 100.633 35.6149 100.811 36.1572 100.811C36.9183 100.811 37.5381 100.503 38.0166 99.8877L38.9121 100.742C38.6159 101.184 38.2194 101.528 37.7227 101.774C37.2305 102.016 36.6768 102.137 36.0615 102.137ZM35.8633 95.7998C35.4076 95.7998 35.0384 95.9593 34.7559 96.2783C34.4779 96.5973 34.3001 97.0417 34.2227 97.6113H37.3877V97.4883C37.3512 96.9323 37.2031 96.513 36.9434 96.2305C36.6836 95.9434 36.3236 95.7998 35.8633 95.7998ZM50.3076 99.71L51.4834 94.6035H53.1035L51.0869 102H49.7197L48.1338 96.9209L46.5752 102H45.208L43.1846 94.6035H44.8047L46.001 99.6553L47.5186 94.6035H48.7695L50.3076 99.71ZM55.9814 102H54.3203V94.6035H55.9814V102ZM54.2178 92.6826C54.2178 92.4274 54.2975 92.2155 54.457 92.0469C54.6211 91.8783 54.8535 91.7939 55.1543 91.7939C55.4551 91.7939 55.6875 91.8783 55.8516 92.0469C56.0156 92.2155 56.0977 92.4274 56.0977 92.6826C56.0977 92.9333 56.0156 93.1429 55.8516 93.3115C55.6875 93.4756 55.4551 93.5576 55.1543 93.5576C54.8535 93.5576 54.6211 93.4756 54.457 93.3115C54.2975 93.1429 54.2178 92.9333 54.2178 92.6826ZM59.8779 92.8057V94.6035H61.1836V95.834H59.8779V99.9629C59.8779 100.245 59.9326 100.451 60.042 100.578C60.1559 100.701 60.3564 100.763 60.6436 100.763C60.835 100.763 61.0286 100.74 61.2246 100.694V101.979C60.8464 102.084 60.4818 102.137 60.1309 102.137C58.8548 102.137 58.2168 101.433 58.2168 100.024V95.834H57V94.6035H58.2168V92.8057H59.8779ZM64.0957 95.4102C64.638 94.7812 65.3239 94.4668 66.1533 94.4668C67.7301 94.4668 68.5299 95.3669 68.5527 97.167V102H66.8916V97.2285C66.8916 96.7181 66.7799 96.3581 66.5566 96.1484C66.3379 95.9342 66.0143 95.8271 65.5859 95.8271C64.9206 95.8271 64.4238 96.1234 64.0957 96.7158V102H62.4346V91.5H64.0957V95.4102ZM76.7627 100.811C77.1774 100.811 77.5215 100.69 77.7949 100.448C78.0684 100.207 78.2142 99.9082 78.2324 99.5527H79.7979C79.7796 100.013 79.6361 100.444 79.3672 100.845C79.0983 101.241 78.7337 101.556 78.2734 101.788C77.8132 102.021 77.3164 102.137 76.7832 102.137C75.7487 102.137 74.9284 101.802 74.3223 101.132C73.7161 100.462 73.4131 99.5368 73.4131 98.3564V98.1855C73.4131 97.0599 73.7139 96.1598 74.3154 95.4854C74.917 94.8063 75.7373 94.4668 76.7764 94.4668C77.6559 94.4668 78.3714 94.7243 78.9229 95.2393C79.4788 95.7497 79.7705 96.4219 79.7979 97.2559H78.2324C78.2142 96.832 78.0684 96.4834 77.7949 96.21C77.526 95.9365 77.182 95.7998 76.7627 95.7998C76.2249 95.7998 75.8102 95.9958 75.5186 96.3877C75.2269 96.7751 75.0788 97.3652 75.0742 98.1582V98.4248C75.0742 99.2269 75.2178 99.8262 75.5049 100.223C75.7965 100.615 76.2158 100.811 76.7627 100.811ZM82.6895 95.4102C83.2318 94.7812 83.9176 94.4668 84.7471 94.4668C86.3239 94.4668 87.1237 95.3669 87.1465 97.167V102H85.4854V97.2285C85.4854 96.7181 85.3737 96.3581 85.1504 96.1484C84.9316 95.9342 84.6081 95.8271 84.1797 95.8271C83.5143 95.8271 83.0176 96.1234 82.6895 96.7158V102H81.0283V91.5H82.6895V95.4102ZM93.251 102C93.1781 101.859 93.1143 101.629 93.0596 101.31C92.5309 101.861 91.8838 102.137 91.1182 102.137C90.3753 102.137 89.7692 101.925 89.2998 101.501C88.8304 101.077 88.5957 100.553 88.5957 99.9287C88.5957 99.1403 88.8874 98.5365 89.4707 98.1172C90.0586 97.6934 90.8971 97.4814 91.9863 97.4814H93.0049V96.9961C93.0049 96.6133 92.8978 96.3079 92.6836 96.0801C92.4694 95.8477 92.1436 95.7314 91.7061 95.7314C91.3278 95.7314 91.0179 95.8271 90.7764 96.0186C90.5348 96.2054 90.4141 96.4447 90.4141 96.7363H88.7529C88.7529 96.3307 88.8874 95.9525 89.1562 95.6016C89.4251 95.2461 89.7897 94.9681 90.25 94.7676C90.7148 94.5671 91.2321 94.4668 91.8018 94.4668C92.6676 94.4668 93.3581 94.6855 93.873 95.123C94.388 95.556 94.6523 96.1667 94.666 96.9551V100.291C94.666 100.956 94.7594 101.487 94.9463 101.884V102H93.251ZM91.4258 100.804C91.7539 100.804 92.0615 100.724 92.3486 100.564C92.6403 100.405 92.859 100.191 93.0049 99.9219V98.5273H92.1094C91.4941 98.5273 91.0316 98.6344 90.7217 98.8486C90.4118 99.0628 90.2568 99.3659 90.2568 99.7578C90.2568 100.077 90.3617 100.332 90.5713 100.523C90.7855 100.71 91.0703 100.804 91.4258 100.804ZM100.278 96.1211C100.06 96.0846 99.834 96.0664 99.6016 96.0664C98.8405 96.0664 98.3278 96.3581 98.0635 96.9414V102H96.4023V94.6035H97.9883L98.0293 95.4307C98.4303 94.7881 98.9863 94.4668 99.6973 94.4668C99.9342 94.4668 100.13 94.4987 100.285 94.5625L100.278 96.1211ZM103.751 92.8057V94.6035H105.057V95.834H103.751V99.9629C103.751 100.245 103.806 100.451 103.915 100.578C104.029 100.701 104.229 100.763 104.517 100.763C104.708 100.763 104.902 100.74 105.098 100.694V101.979C104.719 102.084 104.355 102.137 104.004 102.137C102.728 102.137 102.09 101.433 102.09 100.024V95.834H100.873V94.6035H102.09V92.8057H103.751ZM110.286 102.854H108.98L112.897 92.0469H114.203L110.286 102.854ZM118.551 98.2471C118.551 97.0986 118.82 96.1826 119.357 95.499C119.9 94.8109 120.618 94.4668 121.511 94.4668C122.354 94.4668 123.017 94.7607 123.5 95.3486L123.575 94.6035H125.072V101.774C125.072 102.745 124.769 103.511 124.163 104.071C123.562 104.632 122.748 104.912 121.723 104.912C121.18 104.912 120.649 104.798 120.13 104.57C119.615 104.347 119.223 104.053 118.954 103.688L119.74 102.69C120.251 103.297 120.88 103.6 121.627 103.6C122.178 103.6 122.614 103.449 122.933 103.148C123.252 102.852 123.411 102.415 123.411 101.836V101.337C122.933 101.87 122.295 102.137 121.497 102.137C120.631 102.137 119.923 101.793 119.371 101.104C118.824 100.416 118.551 99.4639 118.551 98.2471ZM120.205 98.3906C120.205 99.1335 120.355 99.7191 120.656 100.147C120.962 100.571 121.383 100.783 121.921 100.783C122.591 100.783 123.088 100.496 123.411 99.9219V96.668C123.097 96.1074 122.604 95.8271 121.935 95.8271C121.388 95.8271 120.962 96.0436 120.656 96.4766C120.355 96.9095 120.205 97.5475 120.205 98.3906ZM130.657 96.1211C130.438 96.0846 130.213 96.0664 129.98 96.0664C129.219 96.0664 128.707 96.3581 128.442 96.9414V102H126.781V94.6035H128.367L128.408 95.4307C128.809 94.7881 129.365 94.4668 130.076 94.4668C130.313 94.4668 130.509 94.4987 130.664 94.5625L130.657 96.1211ZM135.921 102C135.848 101.859 135.784 101.629 135.729 101.31C135.201 101.861 134.554 102.137 133.788 102.137C133.045 102.137 132.439 101.925 131.97 101.501C131.5 101.077 131.266 100.553 131.266 99.9287C131.266 99.1403 131.557 98.5365 132.141 98.1172C132.729 97.6934 133.567 97.4814 134.656 97.4814H135.675V96.9961C135.675 96.6133 135.568 96.3079 135.354 96.0801C135.139 95.8477 134.813 95.7314 134.376 95.7314C133.998 95.7314 133.688 95.8271 133.446 96.0186C133.205 96.2054 133.084 96.4447 133.084 96.7363H131.423C131.423 96.3307 131.557 95.9525 131.826 95.6016C132.095 95.2461 132.46 94.9681 132.92 94.7676C133.385 94.5671 133.902 94.4668 134.472 94.4668C135.338 94.4668 136.028 94.6855 136.543 95.123C137.058 95.556 137.322 96.1667 137.336 96.9551V100.291C137.336 100.956 137.429 101.487 137.616 101.884V102H135.921ZM134.096 100.804C134.424 100.804 134.731 100.724 135.019 100.564C135.31 100.405 135.529 100.191 135.675 99.9219V98.5273H134.779C134.164 98.5273 133.701 98.6344 133.392 98.8486C133.082 99.0628 132.927 99.3659 132.927 99.7578C132.927 100.077 133.032 100.332 133.241 100.523C133.455 100.71 133.74 100.804 134.096 100.804ZM145.553 98.377C145.553 99.5208 145.293 100.435 144.773 101.118C144.254 101.797 143.557 102.137 142.682 102.137C141.87 102.137 141.221 101.87 140.733 101.337V104.844H139.072V94.6035H140.604L140.672 95.3555C141.16 94.763 141.823 94.4668 142.661 94.4668C143.563 94.4668 144.27 94.804 144.78 95.4785C145.295 96.1484 145.553 97.0804 145.553 98.2744V98.377ZM143.898 98.2334C143.898 97.4951 143.75 96.9095 143.454 96.4766C143.162 96.0436 142.743 95.8271 142.196 95.8271C141.517 95.8271 141.03 96.1074 140.733 96.668V99.9492C141.034 100.523 141.526 100.811 142.21 100.811C142.739 100.811 143.151 100.599 143.447 100.175C143.748 99.7464 143.898 99.0993 143.898 98.2334ZM148.602 95.4102C149.144 94.7812 149.83 94.4668 150.659 94.4668C152.236 94.4668 153.036 95.3669 153.059 97.167V102H151.397V97.2285C151.397 96.7181 151.286 96.3581 151.062 96.1484C150.844 95.9342 150.52 95.8271 150.092 95.8271C149.426 95.8271 148.93 96.1234 148.602 96.7158V102H146.94V91.5H148.602V95.4102Z" fill="#28292C"/>
<rect x="9" y="8" width="166" height="9" fill="#CCCCCC"/>
<rect x="75" y="48" width="13" height="9" fill="#006176"/>
<rect x="75" y="57" width="13" height="17" fill="#032E45"/>
<rect x="75" y="39" width="13" height="9" fill="#0696A6"/>
<rect x="75" y="30" width="13" height="9" fill="#77B0BE"/>
<rect x="92" y="53.9091" width="13" height="6.95455" fill="#006176"/>
<rect x="92" y="60.8635" width="13" height="13.1364" fill="#032E45"/>
<rect x="92" y="46.9545" width="13" height="6.95455" fill="#0696A6"/>
<rect x="92" y="40" width="13" height="6.95455" fill="#77B0BE"/>
<rect x="126" y="60.4092" width="13" height="4.70455" fill="#006176"/>
<rect x="126" y="65.1136" width="13" height="8.88636" fill="#032E45"/>
<rect x="126" y="55.7046" width="13" height="4.70455" fill="#0696A6"/>
<rect x="126" y="51" width="13" height="4.70455" fill="#77B0BE"/>
<rect x="109" y="44.4547" width="13" height="10.2273" fill="#006176"/>
<rect x="109" y="54.6817" width="13" height="19.3182" fill="#032E45"/>
<rect x="109" y="34.2273" width="13" height="10.2273" fill="#0696A6"/>
<rect x="109" y="24" width="13" height="10.2273" fill="#77B0BE"/>
<rect x="9" y="82" width="166" height="1" fill="#CCCCCC"/>
</svg>
