<svg width="42" height="42" viewBox="0 0 42 42" fill="none" xmlns="http://www.w3.org/2000/svg">
<path d="M21 41.8334C9.49371 41.8334 0.166626 32.5063 0.166626 21.0001C0.166626 9.49383 9.49371 0.166748 21 0.166748C32.5062 0.166748 41.8333 9.49383 41.8333 21.0001C41.8333 32.5063 32.5062 41.8334 21 41.8334ZM21 37.6668C25.4202 37.6668 29.6595 35.9108 32.7851 32.7852C35.9107 29.6596 37.6666 25.4204 37.6666 21.0001C37.6666 16.5798 35.9107 12.3406 32.7851 9.21497C29.6595 6.08936 25.4202 4.33342 21 4.33342C16.5797 4.33342 12.3405 6.08936 9.21485 9.21497C6.08924 12.3406 4.33329 16.5798 4.33329 21.0001C4.33329 25.4204 6.08924 29.6596 9.21485 32.7852C12.3405 35.9108 16.5797 37.6668 21 37.6668ZM18.9229 29.3334L10.0833 20.4938L13.0291 17.548L18.9229 23.4417L30.7062 11.6563L33.6541 14.6022L18.9229 29.3334Z" fill="#5CB335"/>
</svg>
