<svg width="212" height="51" viewBox="0 0 212 51" fill="none" xmlns="http://www.w3.org/2000/svg">
<rect x="2" y="2" width="208" height="47" fill="#F9F9F9" stroke="#333333" stroke-width="2.5"/>
<path fill-rule="evenodd" clip-rule="evenodd" d="M16.5083 15.0166H26.5417C27.2343 15.0166 27.7958 15.5781 27.7958 16.2708V22.5416C27.7958 23.2343 27.2343 23.7958 26.5417 23.7958H16.5083C15.8157 23.7958 15.2542 23.2343 15.2542 22.5416V16.2708C15.2542 15.5781 15.8157 15.0166 16.5083 15.0166ZM17.7625 17.5249V21.2874H25.2875V17.5249H17.7625ZM16.5083 26.3041H26.5417C27.2343 26.3041 27.7958 26.8656 27.7958 27.5583V33.8291C27.7958 34.5218 27.2343 35.0833 26.5417 35.0833H16.5083C15.8157 35.0833 15.2542 34.5218 15.2542 33.8291V27.5583C15.2542 26.8656 15.8157 26.3041 16.5083 26.3041ZM17.7625 28.8124V32.5749H25.2875V28.8124H17.7625ZM41.5917 15.0166H31.5583C30.8657 15.0166 30.3042 15.5781 30.3042 16.2708V22.5416C30.3042 23.2343 30.8657 23.7958 31.5583 23.7958H41.5917C42.2843 23.7958 42.8458 23.2343 42.8458 22.5416V16.2708C42.8458 15.5781 42.2843 15.0166 41.5917 15.0166ZM32.8125 21.2874V17.5249H40.3375V21.2874H32.8125ZM31.5583 26.3041H41.5917C42.2843 26.3041 42.8458 26.8656 42.8458 27.5583V33.8291C42.8458 34.5218 42.2843 35.0833 41.5917 35.0833H31.5583C30.8657 35.0833 30.3042 34.5218 30.3042 33.8291V27.5583C30.3042 26.8656 30.8657 26.3041 31.5583 26.3041ZM32.8125 28.8124V32.5749H40.3375V28.8124H32.8125Z" fill="#CCCCCC"/>
<mask id="mask0" mask-type="alpha" maskUnits="userSpaceOnUse" x="15" y="15" width="28" height="21">
<path fill-rule="evenodd" clip-rule="evenodd" d="M16.5083 15.0166H26.5417C27.2343 15.0166 27.7958 15.5781 27.7958 16.2708V22.5416C27.7958 23.2343 27.2343 23.7958 26.5417 23.7958H16.5083C15.8157 23.7958 15.2542 23.2343 15.2542 22.5416V16.2708C15.2542 15.5781 15.8157 15.0166 16.5083 15.0166ZM17.7625 17.5249V21.2874H25.2875V17.5249H17.7625ZM16.5083 26.3041H26.5417C27.2343 26.3041 27.7958 26.8656 27.7958 27.5583V33.8291C27.7958 34.5218 27.2343 35.0833 26.5417 35.0833H16.5083C15.8157 35.0833 15.2542 34.5218 15.2542 33.8291V27.5583C15.2542 26.8656 15.8157 26.3041 16.5083 26.3041ZM17.7625 28.8124V32.5749H25.2875V28.8124H17.7625ZM41.5917 15.0166H31.5583C30.8657 15.0166 30.3042 15.5781 30.3042 16.2708V22.5416C30.3042 23.2343 30.8657 23.7958 31.5583 23.7958H41.5917C42.2843 23.7958 42.8458 23.2343 42.8458 22.5416V16.2708C42.8458 15.5781 42.2843 15.0166 41.5917 15.0166ZM32.8125 21.2874V17.5249H40.3375V21.2874H32.8125ZM31.5583 26.3041H41.5917C42.2843 26.3041 42.8458 26.8656 42.8458 27.5583V33.8291C42.8458 34.5218 42.2843 35.0833 41.5917 35.0833H31.5583C30.8657 35.0833 30.3042 34.5218 30.3042 33.8291V27.5583C30.3042 26.8656 30.8657 26.3041 31.5583 26.3041ZM32.8125 28.8124V32.5749H40.3375V28.8124H32.8125Z" fill="white"/>
</mask>
<g mask="url(#mask0)">
<rect x="14" y="10" width="30.1" height="30.1" fill="#5CB247"/>
</g>
<mask id="path-5-inside-1" fill="white">
<path fill-rule="evenodd" clip-rule="evenodd" d="M117.375 18H59.625V20H117.375V18ZM59.625 22H117.375V24H59.625V22ZM117.375 26H59.625V28H117.375V26ZM117.375 30H59.625V32H117.375V30Z"/>
</mask>
<path fill-rule="evenodd" clip-rule="evenodd" d="M117.375 18H59.625V20H117.375V18ZM59.625 22H117.375V24H59.625V22ZM117.375 26H59.625V28H117.375V26ZM117.375 30H59.625V32H117.375V30Z" fill="#D8D8D8"/>
<path d="M59.625 18V17H58.625V18H59.625ZM117.375 18H118.375V17H117.375V18ZM59.625 20H58.625V21H59.625V20ZM117.375 20V21H118.375V20H117.375ZM117.375 22H118.375V21H117.375V22ZM59.625 22V21H58.625V22H59.625ZM117.375 24V25H118.375V24H117.375ZM59.625 24H58.625V25H59.625V24ZM59.625 26V25H58.625V26H59.625ZM117.375 26H118.375V25H117.375V26ZM59.625 28H58.625V29H59.625V28ZM117.375 28V29H118.375V28H117.375ZM59.625 30V29H58.625V30H59.625ZM117.375 30H118.375V29H117.375V30ZM59.625 32H58.625V33H59.625V32ZM117.375 32V33H118.375V32H117.375ZM59.625 19H117.375V17H59.625V19ZM60.625 20V18H58.625V20H60.625ZM117.375 19H59.625V21H117.375V19ZM116.375 18V20H118.375V18H116.375ZM117.375 21H59.625V23H117.375V21ZM118.375 24V22H116.375V24H118.375ZM59.625 25H117.375V23H59.625V25ZM58.625 22V24H60.625V22H58.625ZM59.625 27H117.375V25H59.625V27ZM60.625 28V26H58.625V28H60.625ZM117.375 27H59.625V29H117.375V27ZM116.375 26V28H118.375V26H116.375ZM59.625 31H117.375V29H59.625V31ZM60.625 32V30H58.625V32H60.625ZM117.375 31H59.625V33H117.375V31ZM116.375 30V32H118.375V30H116.375Z" fill="#979797" mask="url(#path-5-inside-1)"/>
<mask id="mask1" mask-type="alpha" maskUnits="userSpaceOnUse" x="59" y="18" width="59" height="14">
<mask id="path-7-inside-2" mask-type="luminance" fill="white">
<path fill-rule="evenodd" clip-rule="evenodd" d="M117.375 18H59.625V20H117.375V18ZM59.625 22H117.375V24H59.625V22ZM117.375 26H59.625V28H117.375V26ZM117.375 30H59.625V32H117.375V30Z"/>
</mask>
<path fill-rule="evenodd" clip-rule="evenodd" d="M117.375 18H59.625V20H117.375V18ZM59.625 22H117.375V24H59.625V22ZM117.375 26H59.625V28H117.375V26ZM117.375 30H59.625V32H117.375V30Z" fill="white"/>
<path d="M59.625 18V17H58.625V18H59.625ZM117.375 18H118.375V17H117.375V18ZM59.625 20H58.625V21H59.625V20ZM117.375 20V21H118.375V20H117.375ZM117.375 22H118.375V21H117.375V22ZM59.625 22V21H58.625V22H59.625ZM117.375 24V25H118.375V24H117.375ZM59.625 24H58.625V25H59.625V24ZM59.625 26V25H58.625V26H59.625ZM117.375 26H118.375V25H117.375V26ZM59.625 28H58.625V29H59.625V28ZM117.375 28V29H118.375V28H117.375ZM59.625 30V29H58.625V30H59.625ZM117.375 30H118.375V29H117.375V30ZM59.625 32H58.625V33H59.625V32ZM117.375 32V33H118.375V32H117.375ZM59.625 19H117.375V17H59.625V19ZM60.625 20V18H58.625V20H60.625ZM117.375 19H59.625V21H117.375V19ZM116.375 18V20H118.375V18H116.375ZM117.375 21H59.625V23H117.375V21ZM118.375 24V22H116.375V24H118.375ZM59.625 25H117.375V23H59.625V25ZM58.625 22V24H60.625V22H58.625ZM59.625 27H117.375V25H59.625V27ZM60.625 28V26H58.625V28H60.625ZM117.375 27H59.625V29H117.375V27ZM116.375 26V28H118.375V26H116.375ZM59.625 31H117.375V29H59.625V31ZM60.625 32V30H58.625V32H60.625ZM117.375 31H59.625V33H117.375V31ZM116.375 30V32H118.375V30H116.375Z" fill="white" mask="url(#path-7-inside-2)"/>
</mask>
<g mask="url(#mask1)">
<rect x="50" y="13" width="77" height="24" fill="#333333"/>
</g>
<mask id="path-10-inside-3" fill="white">
<path fill-rule="evenodd" clip-rule="evenodd" d="M194.375 18H136.625V20H194.375V18ZM136.625 22H194.375V24H136.625V22ZM194.375 26H136.625V28H194.375V26ZM194.375 30H136.625V32H194.375V30Z"/>
</mask>
<path fill-rule="evenodd" clip-rule="evenodd" d="M194.375 18H136.625V20H194.375V18ZM136.625 22H194.375V24H136.625V22ZM194.375 26H136.625V28H194.375V26ZM194.375 30H136.625V32H194.375V30Z" fill="#D8D8D8"/>
<path d="M136.625 18V17H135.625V18H136.625ZM194.375 18H195.375V17H194.375V18ZM136.625 20H135.625V21H136.625V20ZM194.375 20V21H195.375V20H194.375ZM194.375 22H195.375V21H194.375V22ZM136.625 22V21H135.625V22H136.625ZM194.375 24V25H195.375V24H194.375ZM136.625 24H135.625V25H136.625V24ZM136.625 26V25H135.625V26H136.625ZM194.375 26H195.375V25H194.375V26ZM136.625 28H135.625V29H136.625V28ZM194.375 28V29H195.375V28H194.375ZM136.625 30V29H135.625V30H136.625ZM194.375 30H195.375V29H194.375V30ZM136.625 32H135.625V33H136.625V32ZM194.375 32V33H195.375V32H194.375ZM136.625 19H194.375V17H136.625V19ZM137.625 20V18H135.625V20H137.625ZM194.375 19H136.625V21H194.375V19ZM193.375 18V20H195.375V18H193.375ZM194.375 21H136.625V23H194.375V21ZM195.375 24V22H193.375V24H195.375ZM136.625 25H194.375V23H136.625V25ZM135.625 22V24H137.625V22H135.625ZM136.625 27H194.375V25H136.625V27ZM137.625 28V26H135.625V28H137.625ZM194.375 27H136.625V29H194.375V27ZM193.375 26V28H195.375V26H193.375ZM136.625 31H194.375V29H136.625V31ZM137.625 32V30H135.625V32H137.625ZM194.375 31H136.625V33H194.375V31ZM193.375 30V32H195.375V30H193.375Z" fill="#979797" mask="url(#path-10-inside-3)"/>
<mask id="mask2" mask-type="alpha" maskUnits="userSpaceOnUse" x="136" y="18" width="59" height="14">
<mask id="path-12-inside-4" mask-type="luminance" fill="white">
<path fill-rule="evenodd" clip-rule="evenodd" d="M194.375 18H136.625V20H194.375V18ZM136.625 22H194.375V24H136.625V22ZM194.375 26H136.625V28H194.375V26ZM194.375 30H136.625V32H194.375V30Z"/>
</mask>
<path fill-rule="evenodd" clip-rule="evenodd" d="M194.375 18H136.625V20H194.375V18ZM136.625 22H194.375V24H136.625V22ZM194.375 26H136.625V28H194.375V26ZM194.375 30H136.625V32H194.375V30Z" fill="white"/>
<path d="M136.625 18V17H135.625V18H136.625ZM194.375 18H195.375V17H194.375V18ZM136.625 20H135.625V21H136.625V20ZM194.375 20V21H195.375V20H194.375ZM194.375 22H195.375V21H194.375V22ZM136.625 22V21H135.625V22H136.625ZM194.375 24V25H195.375V24H194.375ZM136.625 24H135.625V25H136.625V24ZM136.625 26V25H135.625V26H136.625ZM194.375 26H195.375V25H194.375V26ZM136.625 28H135.625V29H136.625V28ZM194.375 28V29H195.375V28H194.375ZM136.625 30V29H135.625V30H136.625ZM194.375 30H195.375V29H194.375V30ZM136.625 32H135.625V33H136.625V32ZM194.375 32V33H195.375V32H194.375ZM136.625 19H194.375V17H136.625V19ZM137.625 20V18H135.625V20H137.625ZM194.375 19H136.625V21H194.375V19ZM193.375 18V20H195.375V18H193.375ZM194.375 21H136.625V23H194.375V21ZM195.375 24V22H193.375V24H195.375ZM136.625 25H194.375V23H136.625V25ZM135.625 22V24H137.625V22H135.625ZM136.625 27H194.375V25H136.625V27ZM137.625 28V26H135.625V28H137.625ZM194.375 27H136.625V29H194.375V27ZM193.375 26V28H195.375V26H193.375ZM136.625 31H194.375V29H136.625V31ZM137.625 32V30H135.625V32H137.625ZM194.375 31H136.625V33H194.375V31ZM193.375 30V32H195.375V30H193.375Z" fill="white" mask="url(#path-12-inside-4)"/>
</mask>
<g mask="url(#mask2)">
<rect x="127" y="13" width="77" height="24" fill="#333333"/>
</g>
</svg>
