<?xml version="1.0" encoding="UTF-8"?>
<svg width="25px" height="24px" viewBox="0 0 25 24" version="1.1" xmlns="http://www.w3.org/2000/svg" xmlns:xlink="http://www.w3.org/1999/xlink">
    <!-- Generator: sketchtool 57.1 (101010) - https://sketch.com -->
    <title>B58CBF76-727B-4D3A-8BE8-FCC38D49B807</title>
    <desc>Created with sketchtool.</desc>
    <defs>
        <path d="M11,18 L13,18 L13,16 L11,16 L11,18 Z M12,2 C6.48,2 2,6.48 2,12 C2,17.52 6.48,22 12,22 C17.52,22 22,17.52 22,12 C22,6.48 17.52,2 12,2 Z M12,20 C7.59,20 4,16.41 4,12 C4,7.59 7.59,4 12,4 C16.41,4 20,7.59 20,12 C20,16.41 16.41,20 12,20 Z M12,6 C9.79,6 8,7.79 8,10 L10,10 C10,8.9 10.9,8 12,8 C13.1,8 14,8.9 14,10 C14,12 11,11.75 11,15 L13,15 C13,12.75 16,12.5 16,10 C16,7.79 14.21,6 12,6 Z" id="path-1"></path>
    </defs>
    <g id="Asset-Artboard-Page" stroke="none" stroke-width="1" fill="none" fill-rule="evenodd">
        <g id="Icons-/-Hint-mark" transform="translate(0.345745, 0.000000)">
            <mask id="mask-2" fill="white">
                <use xlink:href="#path-1"></use>
            </mask>
            <use id="Shape" fill="#000000" fill-rule="nonzero" xlink:href="#path-1"></use>
            <g id="Colors-/-New-Green-1" mask="url(#mask-2)" fill="#999999">
                <rect id="Rectangle-3" x="0" y="0" width="24" height="24"></rect>
            </g>
        </g>
    </g>
</svg>