<svg width="228" height="112" viewBox="0 0 228 112" fill="none" xmlns="http://www.w3.org/2000/svg">
<path fill-rule="evenodd" clip-rule="evenodd" d="M14.9333 0H110.133C111.164 0 112 0.8344 112 1.86667V97.0667C112 98.0989 111.164 98.9333 110.133 98.9333H98.9333V110.133C98.9333 111.166 98.0971 112 97.0667 112H1.86667C0.836267 112 0 111.166 0 110.133V14.9333C0 13.9011 0.836267 13.0667 1.86667 13.0667H13.0667V1.86667C13.0667 0.8344 13.9029 0 14.9333 0ZM95.2 108.267V97.0667V31.7333H82.1333C81.1029 31.7333 80.2667 30.8989 80.2667 29.8667V16.8H14.9333H3.73333V108.267H95.2ZM84 28V19.4395L92.5605 28H84ZM98.9333 95.2H108.267V3.73333H16.8V13.0667H82.1333C82.1561 13.0667 82.177 13.0736 82.1978 13.0805C82.2128 13.0855 82.2278 13.0905 82.2435 13.0928C82.4133 13.1021 82.5739 13.1357 82.7344 13.1899C82.7521 13.1961 82.7711 13.1985 82.7902 13.2009C82.8112 13.2036 82.8324 13.2063 82.852 13.2141C82.865 13.2191 82.8758 13.2268 82.8868 13.2345C82.8963 13.2413 82.906 13.2481 82.9173 13.2533C83.1096 13.3429 83.2888 13.4568 83.4456 13.6099C83.4493 13.6136 83.4512 13.6136 83.4549 13.6173L98.3845 28.5469C98.3855 28.5479 98.3864 28.5493 98.3873 28.5507C98.3883 28.5521 98.3892 28.5535 98.3901 28.5544C98.5451 28.7093 98.6571 28.8904 98.7467 29.0827C98.7519 29.0941 98.7593 29.1039 98.7665 29.1135C98.7747 29.1244 98.7828 29.1352 98.7877 29.148C98.7957 29.1679 98.7989 29.1898 98.8021 29.2119C98.8049 29.2314 98.8078 29.251 98.8139 29.2693C98.8661 29.4261 98.8979 29.5848 98.9091 29.7491C98.9108 29.7677 98.9159 29.7852 98.9211 29.8026C98.9272 29.8235 98.9333 29.8442 98.9333 29.8667V95.2Z" fill="#333333"/>
<path fill-rule="evenodd" clip-rule="evenodd" d="M56.1751 33.0166H66.2084C66.9011 33.0166 67.4626 33.5781 67.4626 34.2708V40.5416C67.4626 41.2343 66.9011 41.7958 66.2084 41.7958H56.1751C55.4824 41.7958 54.9209 41.2343 54.9209 40.5416V34.2708C54.9209 33.5781 55.4824 33.0166 56.1751 33.0166ZM57.4292 35.5249V39.2874H64.9542V35.5249H57.4292ZM56.1751 44.3041H66.2084C66.9011 44.3041 67.4626 44.8656 67.4626 45.5583V51.8291C67.4626 52.5218 66.9011 53.0833 66.2084 53.0833H56.1751C55.4824 53.0833 54.9209 52.5218 54.9209 51.8291V45.5583C54.9209 44.8656 55.4824 44.3041 56.1751 44.3041ZM57.4292 46.8124V50.5749H64.9542V46.8124H57.4292ZM81.2584 33.0166H71.2251C70.5324 33.0166 69.9709 33.5781 69.9709 34.2708V40.5416C69.9709 41.2343 70.5324 41.7958 71.2251 41.7958H81.2584C81.9511 41.7958 82.5126 41.2343 82.5126 40.5416V34.2708C82.5126 33.5781 81.9511 33.0166 81.2584 33.0166ZM72.4792 39.2874V35.5249H80.0042V39.2874H72.4792ZM71.2251 44.3041H81.2584C81.9511 44.3041 82.5126 44.8656 82.5126 45.5583V51.8291C82.5126 52.5218 81.9511 53.0833 81.2584 53.0833H71.2251C70.5324 53.0833 69.9709 52.5218 69.9709 51.8291V45.5583C69.9709 44.8656 70.5324 44.3041 71.2251 44.3041ZM72.4792 46.8124V50.5749H80.0042V46.8124H72.4792Z" fill="#CCCCCC"/>
<mask id="mask0" mask-type="alpha" maskUnits="userSpaceOnUse" x="54" y="33" width="29" height="21">
<path fill-rule="evenodd" clip-rule="evenodd" d="M56.1751 33.0166H66.2084C66.9011 33.0166 67.4626 33.5781 67.4626 34.2708V40.5416C67.4626 41.2343 66.9011 41.7958 66.2084 41.7958H56.1751C55.4824 41.7958 54.9209 41.2343 54.9209 40.5416V34.2708C54.9209 33.5781 55.4824 33.0166 56.1751 33.0166ZM57.4292 35.5249V39.2874H64.9542V35.5249H57.4292ZM56.1751 44.3041H66.2084C66.9011 44.3041 67.4626 44.8656 67.4626 45.5583V51.8291C67.4626 52.5218 66.9011 53.0833 66.2084 53.0833H56.1751C55.4824 53.0833 54.9209 52.5218 54.9209 51.8291V45.5583C54.9209 44.8656 55.4824 44.3041 56.1751 44.3041ZM57.4292 46.8124V50.5749H64.9542V46.8124H57.4292ZM81.2584 33.0166H71.2251C70.5324 33.0166 69.9709 33.5781 69.9709 34.2708V40.5416C69.9709 41.2343 70.5324 41.7958 71.2251 41.7958H81.2584C81.9511 41.7958 82.5126 41.2343 82.5126 40.5416V34.2708C82.5126 33.5781 81.9511 33.0166 81.2584 33.0166ZM72.4792 39.2874V35.5249H80.0042V39.2874H72.4792ZM71.2251 44.3041H81.2584C81.9511 44.3041 82.5126 44.8656 82.5126 45.5583V51.8291C82.5126 52.5218 81.9511 53.0833 81.2584 53.0833H71.2251C70.5324 53.0833 69.9709 52.5218 69.9709 51.8291V45.5583C69.9709 44.8656 70.5324 44.3041 71.2251 44.3041ZM72.4792 46.8124V50.5749H80.0042V46.8124H72.4792Z" fill="white"/>
</mask>
<g mask="url(#mask0)">
<rect x="53.6665" y="28" width="30.1" height="30.1" fill="#333333"/>
</g>
<rect x="15.6045" y="94.9663" width="26.425" height="2.91667" fill="#333333"/>
<ellipse cx="17.0723" cy="89.133" rx="2.93611" ry="2.91667" fill="#333333"/>
<ellipse cx="31.0188" cy="86.9456" rx="3.67014" ry="3.64583" fill="#333333"/>
<ellipse cx="34.689" cy="73.0915" rx="2.93611" ry="2.91667" fill="#333333"/>
<ellipse cx="41.2953" cy="70.9038" rx="2.20208" ry="2.1875" fill="#333333"/>
<ellipse cx="36.891" cy="78.1958" rx="2.20208" ry="2.1875" fill="#333333"/>
<ellipse cx="23.6787" cy="79.654" rx="5.13819" ry="5.10417" fill="#333333"/>
<rect x="55.5044" y="94.9663" width="26.425" height="2.91667" fill="#5CB247"/>
<rect x="55.5044" y="74.5498" width="4.40417" height="17.5" fill="#5CB247"/>
<rect x="77.5249" y="84.7583" width="4.40417" height="7.29167" fill="#5CB247"/>
<rect x="70.1851" y="68.7163" width="4.40417" height="23.3333" fill="#5CB247"/>
<rect x="62.8447" y="78.9248" width="4.40417" height="13.125" fill="#5CB247"/>
<mask id="mask1" mask-type="alpha" maskUnits="userSpaceOnUse" x="62" y="78" width="6" height="15">
<rect x="62.8447" y="78.9248" width="4.40417" height="13.125" fill="white"/>
</mask>
<g mask="url(#mask1)">
</g>
<path fill-rule="evenodd" clip-rule="evenodd" d="M8.8335 40L28.0002 22.75L47.1668 40H41.4168V55.3333H29.9168V43.8333H26.0835V55.3333H14.5835V40H8.8335ZM37.5835 36.5308L28.0002 27.9058L18.4168 36.5308V51.5H22.2502V40H33.7502V51.5H37.5835V36.5308Z" fill="black"/>
<mask id="mask2" mask-type="alpha" maskUnits="userSpaceOnUse" x="8" y="22" width="40" height="34">
<path fill-rule="evenodd" clip-rule="evenodd" d="M8.8335 40L28.0002 22.75L47.1668 40H41.4168V55.3333H29.9168V43.8333H26.0835V55.3333H14.5835V40H8.8335ZM37.5835 36.5308L28.0002 27.9058L18.4168 36.5308V51.5H22.2502V40H33.7502V51.5H37.5835V36.5308Z" fill="white"/>
</mask>
<g mask="url(#mask2)">
<rect x="5" y="17" width="46" height="46" fill="#333333"/>
</g>
<path fill-rule="evenodd" clip-rule="evenodd" d="M130.933 0H226.133C227.164 0 228 0.8344 228 1.86667V97.0667C228 98.0989 227.164 98.9333 226.133 98.9333H214.933V110.133C214.933 111.166 214.097 112 213.067 112H117.867C116.836 112 116 111.166 116 110.133V14.9333C116 13.9011 116.836 13.0667 117.867 13.0667H129.067V1.86667C129.067 0.8344 129.903 0 130.933 0ZM211.2 108.267V97.0667V31.7333H198.133C197.103 31.7333 196.267 30.8989 196.267 29.8667V16.8H130.933H119.733V108.267H211.2ZM200 28V19.4395L208.561 28H200ZM214.933 95.2H224.267V3.73333H132.8V13.0667H198.133C198.156 13.0667 198.177 13.0736 198.198 13.0805C198.213 13.0855 198.228 13.0905 198.243 13.0928C198.413 13.1021 198.574 13.1357 198.734 13.1899C198.752 13.1961 198.771 13.1985 198.79 13.2009C198.811 13.2036 198.832 13.2063 198.852 13.2141C198.865 13.2191 198.876 13.2268 198.887 13.2345C198.896 13.2413 198.906 13.2481 198.917 13.2533C199.11 13.3429 199.289 13.4568 199.446 13.6099C199.449 13.6136 199.451 13.6136 199.455 13.6173L214.385 28.5469C214.385 28.5479 214.386 28.5493 214.387 28.5507C214.388 28.5521 214.389 28.5535 214.39 28.5544C214.545 28.7093 214.657 28.8904 214.747 29.0827C214.752 29.0941 214.759 29.1039 214.767 29.1135C214.775 29.1244 214.783 29.1352 214.788 29.148C214.796 29.1679 214.799 29.1898 214.802 29.2119C214.805 29.2314 214.808 29.251 214.814 29.2693C214.866 29.4261 214.898 29.5848 214.909 29.7491C214.911 29.7677 214.916 29.7852 214.921 29.8026C214.927 29.8235 214.933 29.8442 214.933 29.8667V95.2Z" fill="#333333"/>
<mask id="path-22-inside-1" fill="white">
<path fill-rule="evenodd" clip-rule="evenodd" d="M194.375 30H136.625V32H194.375V30ZM136.625 34H194.375V36H136.625V34ZM194.375 38H136.625V40H194.375V38ZM194.375 42H136.625V44H194.375V42Z"/>
</mask>
<path fill-rule="evenodd" clip-rule="evenodd" d="M194.375 30H136.625V32H194.375V30ZM136.625 34H194.375V36H136.625V34ZM194.375 38H136.625V40H194.375V38ZM194.375 42H136.625V44H194.375V42Z" fill="#D8D8D8"/>
<path d="M136.625 30V29H135.625V30H136.625ZM194.375 30H195.375V29H194.375V30ZM136.625 32H135.625V33H136.625V32ZM194.375 32V33H195.375V32H194.375ZM194.375 34H195.375V33H194.375V34ZM136.625 34V33H135.625V34H136.625ZM194.375 36V37H195.375V36H194.375ZM136.625 36H135.625V37H136.625V36ZM136.625 38V37H135.625V38H136.625ZM194.375 38H195.375V37H194.375V38ZM136.625 40H135.625V41H136.625V40ZM194.375 40V41H195.375V40H194.375ZM136.625 42V41H135.625V42H136.625ZM194.375 42H195.375V41H194.375V42ZM136.625 44H135.625V45H136.625V44ZM194.375 44V45H195.375V44H194.375ZM136.625 31H194.375V29H136.625V31ZM137.625 32V30H135.625V32H137.625ZM194.375 31H136.625V33H194.375V31ZM193.375 30V32H195.375V30H193.375ZM194.375 33H136.625V35H194.375V33ZM195.375 36V34H193.375V36H195.375ZM136.625 37H194.375V35H136.625V37ZM135.625 34V36H137.625V34H135.625ZM136.625 39H194.375V37H136.625V39ZM137.625 40V38H135.625V40H137.625ZM194.375 39H136.625V41H194.375V39ZM193.375 38V40H195.375V38H193.375ZM136.625 43H194.375V41H136.625V43ZM137.625 44V42H135.625V44H137.625ZM194.375 43H136.625V45H194.375V43ZM193.375 42V44H195.375V42H193.375Z" fill="#979797" mask="url(#path-22-inside-1)"/>
<mask id="mask3" mask-type="alpha" maskUnits="userSpaceOnUse" x="136" y="30" width="59" height="14">
<mask id="path-24-inside-2" mask-type="luminance" fill="white">
<path fill-rule="evenodd" clip-rule="evenodd" d="M194.375 30H136.625V32H194.375V30ZM136.625 34H194.375V36H136.625V34ZM194.375 38H136.625V40H194.375V38ZM194.375 42H136.625V44H194.375V42Z"/>
</mask>
<path fill-rule="evenodd" clip-rule="evenodd" d="M194.375 30H136.625V32H194.375V30ZM136.625 34H194.375V36H136.625V34ZM194.375 38H136.625V40H194.375V38ZM194.375 42H136.625V44H194.375V42Z" fill="white"/>
<path d="M136.625 30V29H135.625V30H136.625ZM194.375 30H195.375V29H194.375V30ZM136.625 32H135.625V33H136.625V32ZM194.375 32V33H195.375V32H194.375ZM194.375 34H195.375V33H194.375V34ZM136.625 34V33H135.625V34H136.625ZM194.375 36V37H195.375V36H194.375ZM136.625 36H135.625V37H136.625V36ZM136.625 38V37H135.625V38H136.625ZM194.375 38H195.375V37H194.375V38ZM136.625 40H135.625V41H136.625V40ZM194.375 40V41H195.375V40H194.375ZM136.625 42V41H135.625V42H136.625ZM194.375 42H195.375V41H194.375V42ZM136.625 44H135.625V45H136.625V44ZM194.375 44V45H195.375V44H194.375ZM136.625 31H194.375V29H136.625V31ZM137.625 32V30H135.625V32H137.625ZM194.375 31H136.625V33H194.375V31ZM193.375 30V32H195.375V30H193.375ZM194.375 33H136.625V35H194.375V33ZM195.375 36V34H193.375V36H195.375ZM136.625 37H194.375V35H136.625V37ZM135.625 34V36H137.625V34H135.625ZM136.625 39H194.375V37H136.625V39ZM137.625 40V38H135.625V40H137.625ZM194.375 39H136.625V41H194.375V39ZM193.375 38V40H195.375V38H193.375ZM136.625 43H194.375V41H136.625V43ZM137.625 44V42H135.625V44H137.625ZM194.375 43H136.625V45H194.375V43ZM193.375 42V44H195.375V42H193.375Z" fill="white" mask="url(#path-24-inside-2)"/>
</mask>
<g mask="url(#mask3)">
<rect x="127" y="25" width="77" height="24" fill="#333333"/>
</g>
<mask id="path-27-inside-3" fill="white">
<path fill-rule="evenodd" clip-rule="evenodd" d="M194.375 56H136.625V58H194.375V56ZM136.625 60H194.375V62H136.625V60ZM194.375 64H136.625V66H194.375V64ZM194.375 68H136.625V70H194.375V68Z"/>
</mask>
<path fill-rule="evenodd" clip-rule="evenodd" d="M194.375 56H136.625V58H194.375V56ZM136.625 60H194.375V62H136.625V60ZM194.375 64H136.625V66H194.375V64ZM194.375 68H136.625V70H194.375V68Z" fill="#D8D8D8"/>
<path d="M136.625 56V55H135.625V56H136.625ZM194.375 56H195.375V55H194.375V56ZM136.625 58H135.625V59H136.625V58ZM194.375 58V59H195.375V58H194.375ZM194.375 60H195.375V59H194.375V60ZM136.625 60V59H135.625V60H136.625ZM194.375 62V63H195.375V62H194.375ZM136.625 62H135.625V63H136.625V62ZM136.625 64V63H135.625V64H136.625ZM194.375 64H195.375V63H194.375V64ZM136.625 66H135.625V67H136.625V66ZM194.375 66V67H195.375V66H194.375ZM136.625 68V67H135.625V68H136.625ZM194.375 68H195.375V67H194.375V68ZM136.625 70H135.625V71H136.625V70ZM194.375 70V71H195.375V70H194.375ZM136.625 57H194.375V55H136.625V57ZM137.625 58V56H135.625V58H137.625ZM194.375 57H136.625V59H194.375V57ZM193.375 56V58H195.375V56H193.375ZM194.375 59H136.625V61H194.375V59ZM195.375 62V60H193.375V62H195.375ZM136.625 63H194.375V61H136.625V63ZM135.625 60V62H137.625V60H135.625ZM136.625 65H194.375V63H136.625V65ZM137.625 66V64H135.625V66H137.625ZM194.375 65H136.625V67H194.375V65ZM193.375 64V66H195.375V64H193.375ZM136.625 69H194.375V67H136.625V69ZM137.625 70V68H135.625V70H137.625ZM194.375 69H136.625V71H194.375V69ZM193.375 68V70H195.375V68H193.375Z" fill="#979797" mask="url(#path-27-inside-3)"/>
<mask id="mask4" mask-type="alpha" maskUnits="userSpaceOnUse" x="136" y="56" width="59" height="14">
<mask id="path-29-inside-4" mask-type="luminance" fill="white">
<path fill-rule="evenodd" clip-rule="evenodd" d="M194.375 56H136.625V58H194.375V56ZM136.625 60H194.375V62H136.625V60ZM194.375 64H136.625V66H194.375V64ZM194.375 68H136.625V70H194.375V68Z"/>
</mask>
<path fill-rule="evenodd" clip-rule="evenodd" d="M194.375 56H136.625V58H194.375V56ZM136.625 60H194.375V62H136.625V60ZM194.375 64H136.625V66H194.375V64ZM194.375 68H136.625V70H194.375V68Z" fill="white"/>
<path d="M136.625 56V55H135.625V56H136.625ZM194.375 56H195.375V55H194.375V56ZM136.625 58H135.625V59H136.625V58ZM194.375 58V59H195.375V58H194.375ZM194.375 60H195.375V59H194.375V60ZM136.625 60V59H135.625V60H136.625ZM194.375 62V63H195.375V62H194.375ZM136.625 62H135.625V63H136.625V62ZM136.625 64V63H135.625V64H136.625ZM194.375 64H195.375V63H194.375V64ZM136.625 66H135.625V67H136.625V66ZM194.375 66V67H195.375V66H194.375ZM136.625 68V67H135.625V68H136.625ZM194.375 68H195.375V67H194.375V68ZM136.625 70H135.625V71H136.625V70ZM194.375 70V71H195.375V70H194.375ZM136.625 57H194.375V55H136.625V57ZM137.625 58V56H135.625V58H137.625ZM194.375 57H136.625V59H194.375V57ZM193.375 56V58H195.375V56H193.375ZM194.375 59H136.625V61H194.375V59ZM195.375 62V60H193.375V62H195.375ZM136.625 63H194.375V61H136.625V63ZM135.625 60V62H137.625V60H135.625ZM136.625 65H194.375V63H136.625V65ZM137.625 66V64H135.625V66H137.625ZM194.375 65H136.625V67H194.375V65ZM193.375 64V66H195.375V64H193.375ZM136.625 69H194.375V67H136.625V69ZM137.625 70V68H135.625V70H137.625ZM194.375 69H136.625V71H194.375V69ZM193.375 68V70H195.375V68H193.375Z" fill="white" mask="url(#path-29-inside-4)"/>
</mask>
<g mask="url(#mask4)">
<rect x="127" y="51" width="77" height="24" fill="#333333"/>
</g>
<mask id="path-32-inside-5" fill="white">
<path fill-rule="evenodd" clip-rule="evenodd" d="M194.375 82H136.625V84H194.375V82ZM136.625 86H194.375V88H136.625V86ZM194.375 90H136.625V92H194.375V90ZM194.375 94H136.625V96H194.375V94Z"/>
</mask>
<path fill-rule="evenodd" clip-rule="evenodd" d="M194.375 82H136.625V84H194.375V82ZM136.625 86H194.375V88H136.625V86ZM194.375 90H136.625V92H194.375V90ZM194.375 94H136.625V96H194.375V94Z" fill="#D8D8D8"/>
<path d="M136.625 82V81H135.625V82H136.625ZM194.375 82H195.375V81H194.375V82ZM136.625 84H135.625V85H136.625V84ZM194.375 84V85H195.375V84H194.375ZM194.375 86H195.375V85H194.375V86ZM136.625 86V85H135.625V86H136.625ZM194.375 88V89H195.375V88H194.375ZM136.625 88H135.625V89H136.625V88ZM136.625 90V89H135.625V90H136.625ZM194.375 90H195.375V89H194.375V90ZM136.625 92H135.625V93H136.625V92ZM194.375 92V93H195.375V92H194.375ZM136.625 94V93H135.625V94H136.625ZM194.375 94H195.375V93H194.375V94ZM136.625 96H135.625V97H136.625V96ZM194.375 96V97H195.375V96H194.375ZM136.625 83H194.375V81H136.625V83ZM137.625 84V82H135.625V84H137.625ZM194.375 83H136.625V85H194.375V83ZM193.375 82V84H195.375V82H193.375ZM194.375 85H136.625V87H194.375V85ZM195.375 88V86H193.375V88H195.375ZM136.625 89H194.375V87H136.625V89ZM135.625 86V88H137.625V86H135.625ZM136.625 91H194.375V89H136.625V91ZM137.625 92V90H135.625V92H137.625ZM194.375 91H136.625V93H194.375V91ZM193.375 90V92H195.375V90H193.375ZM136.625 95H194.375V93H136.625V95ZM137.625 96V94H135.625V96H137.625ZM194.375 95H136.625V97H194.375V95ZM193.375 94V96H195.375V94H193.375Z" fill="#979797" mask="url(#path-32-inside-5)"/>
<mask id="mask5" mask-type="alpha" maskUnits="userSpaceOnUse" x="136" y="82" width="59" height="14">
<mask id="path-34-inside-6" mask-type="luminance" fill="white">
<path fill-rule="evenodd" clip-rule="evenodd" d="M194.375 82H136.625V84H194.375V82ZM136.625 86H194.375V88H136.625V86ZM194.375 90H136.625V92H194.375V90ZM194.375 94H136.625V96H194.375V94Z"/>
</mask>
<path fill-rule="evenodd" clip-rule="evenodd" d="M194.375 82H136.625V84H194.375V82ZM136.625 86H194.375V88H136.625V86ZM194.375 90H136.625V92H194.375V90ZM194.375 94H136.625V96H194.375V94Z" fill="white"/>
<path d="M136.625 82V81H135.625V82H136.625ZM194.375 82H195.375V81H194.375V82ZM136.625 84H135.625V85H136.625V84ZM194.375 84V85H195.375V84H194.375ZM194.375 86H195.375V85H194.375V86ZM136.625 86V85H135.625V86H136.625ZM194.375 88V89H195.375V88H194.375ZM136.625 88H135.625V89H136.625V88ZM136.625 90V89H135.625V90H136.625ZM194.375 90H195.375V89H194.375V90ZM136.625 92H135.625V93H136.625V92ZM194.375 92V93H195.375V92H194.375ZM136.625 94V93H135.625V94H136.625ZM194.375 94H195.375V93H194.375V94ZM136.625 96H135.625V97H136.625V96ZM194.375 96V97H195.375V96H194.375ZM136.625 83H194.375V81H136.625V83ZM137.625 84V82H135.625V84H137.625ZM194.375 83H136.625V85H194.375V83ZM193.375 82V84H195.375V82H193.375ZM194.375 85H136.625V87H194.375V85ZM195.375 88V86H193.375V88H195.375ZM136.625 89H194.375V87H136.625V89ZM135.625 86V88H137.625V86H135.625ZM136.625 91H194.375V89H136.625V91ZM137.625 92V90H135.625V92H137.625ZM194.375 91H136.625V93H194.375V91ZM193.375 90V92H195.375V90H193.375ZM136.625 95H194.375V93H136.625V95ZM137.625 96V94H135.625V96H137.625ZM194.375 95H136.625V97H194.375V95ZM193.375 94V96H195.375V94H193.375Z" fill="white" mask="url(#path-34-inside-6)"/>
</mask>
<g mask="url(#mask5)">
<rect x="127" y="77" width="77" height="24" fill="#333333"/>
</g>
</svg>
