<?xml version="1.0" encoding="UTF-8"?>
<svg width="19px" height="18px" viewBox="0 0 19 18" version="1.1" xmlns="http://www.w3.org/2000/svg" xmlns:xlink="http://www.w3.org/1999/xlink">
    <!-- Generator: sketchtool 57.1 (101010) - https://sketch.com -->
    <title>F64F8BB9-138E-4319-B5F0-D96BF8C88A44</title>
    <desc>Created with sketchtool.</desc>
    <defs>
        <path d="M9.00000016,4.5 C11.8425002,4.5 14.3775003,6.09749993 15.6150003,8.62499988 C15.1725003,9.53999985 14.5500003,10.3274998 13.8075003,10.9649998 L14.8650003,12.0224998 C15.9075003,11.0999998 16.7325003,9.94499985 17.2500004,8.62499988 C15.9525003,5.33249995 12.7500003,3 9.00000016,3 C8.04750014,3 7.13250012,3.15 6.2700001,3.42749999 L7.50750013,4.66499996 C7.99500014,4.56749997 8.49000015,4.5 9.00000016,4.5 Z M8.19750023,5.35500018 L9.75000028,6.90750016 C10.1775003,7.09500016 10.5225003,7.44000016 10.7100003,7.86750015 L12.2625004,9.42000014 C12.3225004,9.16500014 12.3675281,8.89500014 12.3675281,8.61750014 C12.3750004,6.75750016 10.8600003,5.25000018 9.00000025,5.25000018 C8.72250024,5.25000018 8.46000024,5.28750018 8.19750023,5.35500018 Z M1.50749999,2.90250001 L3.51749995,4.91249997 C2.29499997,5.87249996 1.32749999,7.14749993 0.75,8.6249999 C2.04749998,11.9174998 5.25,14.2499998 8.99999984,14.2499998 C10.1399998,14.2499998 11.2349998,14.0324998 12.2399998,13.6349998 L14.8049997,16.1999997 L15.8624997,15.1424998 L2.56499997,1.83750004 L1.50749999,2.90250001 Z M7.1325,8.52750009 L9.08999991,10.4850002 C9.05999992,10.4925002 9.02999992,10.5000002 8.99999992,10.5000002 C7.96499996,10.5000002 7.125,9.66000014 7.125,8.6250001 C7.125,8.5875001 7.1325,8.56500009 7.1325,8.52750009 L7.1325,8.52750009 Z M4.58249999,5.97750002 L5.89499996,7.28999998 C5.72249996,7.70249997 5.62499996,8.15249996 5.62499996,8.62499994 C5.62499996,10.4849999 7.13999992,11.9999998 8.99999988,11.9999998 C9.47249986,11.9999998 9.92249985,11.9024998 10.3274998,11.7299999 L11.0624998,12.4649998 C10.4024998,12.6449998 9.71249986,12.7499998 8.99999988,12.7499998 C6.15749995,12.7499998 3.62250002,11.1524999 2.38500005,8.62499994 C2.91000004,7.55249997 3.67500002,6.6675 4.58249999,5.97750002 Z" id="path-1"></path>
    </defs>
    <g id="Asset-Artboard-Page" stroke="none" stroke-width="1" fill="none" fill-rule="evenodd">
        <g id="Icons-/-Tick-V-mark" transform="translate(0.433145, 0.000000)">
            <mask id="mask-2" fill="white">
                <use xlink:href="#path-1"></use>
            </mask>
            <use id="Shape" fill="#000000" fill-rule="nonzero" xlink:href="#path-1"></use>
            <g id="Colors-/-New-Green-1" mask="url(#mask-2)" fill="#FFFFFF">
                <rect id="Rectangle-3" x="0" y="0" width="18" height="18"></rect>
            </g>
        </g>
    </g>
</svg>