<svg width="185" height="120" viewBox="0 0 185 120" fill="none" xmlns="http://www.w3.org/2000/svg">
<rect width="185" height="120" fill="white"/>
<path d="M10.8369 110H9.11426V100.047H10.8369V110ZM14.3643 102.604L14.4121 103.376C14.9316 102.77 15.6426 102.467 16.5449 102.467C17.5339 102.467 18.2106 102.845 18.5752 103.602C19.113 102.845 19.8695 102.467 20.8447 102.467C21.6605 102.467 22.2666 102.692 22.6631 103.144C23.0641 103.595 23.2692 104.26 23.2783 105.14V110H21.6172V105.188C21.6172 104.718 21.5146 104.374 21.3096 104.155C21.1045 103.937 20.765 103.827 20.291 103.827C19.9128 103.827 19.6029 103.93 19.3613 104.135C19.1243 104.335 18.958 104.6 18.8623 104.928L18.8691 110H17.208V105.133C17.1852 104.262 16.7409 103.827 15.875 103.827C15.2096 103.827 14.738 104.098 14.46 104.641V110H12.7988V102.604H14.3643ZM31.4609 106.377C31.4609 107.521 31.2012 108.435 30.6816 109.118C30.1621 109.797 29.4648 110.137 28.5898 110.137C27.7786 110.137 27.1292 109.87 26.6416 109.337V112.844H24.9805V102.604H26.5117L26.5801 103.355C27.0677 102.763 27.7308 102.467 28.5693 102.467C29.4717 102.467 30.1781 102.804 30.6885 103.479C31.2035 104.148 31.4609 105.08 31.4609 106.274V106.377ZM29.8066 106.233C29.8066 105.495 29.6585 104.91 29.3623 104.477C29.0706 104.044 28.6514 103.827 28.1045 103.827C27.4255 103.827 26.9378 104.107 26.6416 104.668V107.949C26.9424 108.523 27.4346 108.811 28.1182 108.811C28.6468 108.811 29.0592 108.599 29.3555 108.175C29.6562 107.746 29.8066 107.099 29.8066 106.233ZM37.292 110C37.2191 109.859 37.1553 109.629 37.1006 109.31C36.5719 109.861 35.9248 110.137 35.1592 110.137C34.4163 110.137 33.8102 109.925 33.3408 109.501C32.8714 109.077 32.6367 108.553 32.6367 107.929C32.6367 107.14 32.9284 106.536 33.5117 106.117C34.0996 105.693 34.9382 105.481 36.0273 105.481H37.0459V104.996C37.0459 104.613 36.9388 104.308 36.7246 104.08C36.5104 103.848 36.1846 103.731 35.7471 103.731C35.3688 103.731 35.0589 103.827 34.8174 104.019C34.5758 104.205 34.4551 104.445 34.4551 104.736H32.7939C32.7939 104.331 32.9284 103.952 33.1973 103.602C33.4661 103.246 33.8307 102.968 34.291 102.768C34.7559 102.567 35.2731 102.467 35.8428 102.467C36.7087 102.467 37.3991 102.686 37.9141 103.123C38.429 103.556 38.6934 104.167 38.707 104.955V108.291C38.707 108.956 38.8005 109.487 38.9873 109.884V110H37.292ZM35.4668 108.804C35.7949 108.804 36.1025 108.724 36.3896 108.564C36.6813 108.405 36.9001 108.191 37.0459 107.922V106.527H36.1504C35.5352 106.527 35.0726 106.634 34.7627 106.849C34.4528 107.063 34.2979 107.366 34.2979 107.758C34.2979 108.077 34.4027 108.332 34.6123 108.523C34.8265 108.71 35.1113 108.804 35.4668 108.804ZM43.4854 108.811C43.9001 108.811 44.2441 108.69 44.5176 108.448C44.791 108.207 44.9368 107.908 44.9551 107.553H46.5205C46.5023 108.013 46.3587 108.444 46.0898 108.845C45.821 109.241 45.4564 109.556 44.9961 109.788C44.5358 110.021 44.0391 110.137 43.5059 110.137C42.4714 110.137 41.651 109.802 41.0449 109.132C40.4388 108.462 40.1357 107.537 40.1357 106.356V106.186C40.1357 105.06 40.4365 104.16 41.0381 103.485C41.6396 102.806 42.46 102.467 43.499 102.467C44.3786 102.467 45.0941 102.724 45.6455 103.239C46.2015 103.75 46.4932 104.422 46.5205 105.256H44.9551C44.9368 104.832 44.791 104.483 44.5176 104.21C44.2487 103.937 43.9046 103.8 43.4854 103.8C42.9476 103.8 42.5329 103.996 42.2412 104.388C41.9495 104.775 41.8014 105.365 41.7969 106.158V106.425C41.7969 107.227 41.9404 107.826 42.2275 108.223C42.5192 108.615 42.9385 108.811 43.4854 108.811ZM49.8564 100.806V102.604H51.1621V103.834H49.8564V107.963C49.8564 108.245 49.9111 108.451 50.0205 108.578C50.1344 108.701 50.335 108.763 50.6221 108.763C50.8135 108.763 51.0072 108.74 51.2031 108.694V109.979C50.8249 110.084 50.4603 110.137 50.1094 110.137C48.8333 110.137 48.1953 109.433 48.1953 108.024V103.834H46.9785V102.604H48.1953V100.806H49.8564ZM56.583 107.99C56.583 107.694 56.46 107.468 56.2139 107.313C55.9723 107.159 55.569 107.022 55.0039 106.903C54.4388 106.785 53.9671 106.634 53.5889 106.452C52.7594 106.051 52.3447 105.47 52.3447 104.709C52.3447 104.071 52.6136 103.538 53.1514 103.109C53.6891 102.681 54.3727 102.467 55.2021 102.467C56.0863 102.467 56.7995 102.686 57.3418 103.123C57.8887 103.561 58.1621 104.128 58.1621 104.825H56.501C56.501 104.506 56.3825 104.242 56.1455 104.032C55.9085 103.818 55.5941 103.711 55.2021 103.711C54.8376 103.711 54.5391 103.795 54.3066 103.964C54.0788 104.132 53.9648 104.358 53.9648 104.641C53.9648 104.896 54.0719 105.094 54.2861 105.235C54.5003 105.377 54.9333 105.52 55.585 105.666C56.2367 105.807 56.7471 105.978 57.1162 106.179C57.4899 106.375 57.7656 106.612 57.9434 106.89C58.1257 107.168 58.2168 107.505 58.2168 107.901C58.2168 108.567 57.9411 109.107 57.3896 109.521C56.8382 109.932 56.1159 110.137 55.2227 110.137C54.6165 110.137 54.0765 110.027 53.6025 109.809C53.1286 109.59 52.7594 109.289 52.4951 108.906C52.2308 108.523 52.0986 108.111 52.0986 107.669H53.7119C53.7347 108.061 53.8828 108.364 54.1562 108.578C54.4297 108.788 54.792 108.893 55.2432 108.893C55.6807 108.893 56.0133 108.811 56.2412 108.646C56.4691 108.478 56.583 108.259 56.583 107.99Z" fill="#28292C"/>
<path d="M24.3398 54.9375H22.2578V57H21.1875V54.9375H19.1055V53.8906H21.1875V51.8281H22.2578V53.8906H24.3398V54.9375ZM30.4805 57H25.9141V56.0391C26.263 55.7865 26.612 55.5182 26.9609 55.2344C27.3125 54.9505 27.5938 54.7057 27.8047 54.5C28.1198 54.1953 28.3438 53.9297 28.4766 53.7031C28.6094 53.4766 28.6758 53.2526 28.6758 53.0312C28.6758 52.7656 28.5898 52.5612 28.418 52.418C28.2487 52.2721 28.0039 52.1992 27.6836 52.1992C27.444 52.1992 27.1914 52.2487 26.9258 52.3477C26.6628 52.4466 26.418 52.5729 26.1914 52.7266H26.0664V51.4336C26.2513 51.3529 26.5234 51.2721 26.8828 51.1914C27.2448 51.1107 27.6068 51.0703 27.9688 51.0703C28.6979 51.0703 29.2539 51.224 29.6367 51.5312C30.0195 51.8359 30.2109 52.2682 30.2109 52.8281C30.2109 53.1953 30.1185 53.5443 29.9336 53.875C29.7513 54.2057 29.4714 54.5469 29.0938 54.8984C28.8568 55.1172 28.6185 55.319 28.3789 55.5039C28.1393 55.6862 27.9688 55.8138 27.8672 55.8867H30.4805V57ZM36.1289 54.0898C36.1289 54.5794 36.0846 55.0182 35.9961 55.4062C35.9076 55.7917 35.7695 56.1081 35.582 56.3555C35.3893 56.6081 35.1419 56.7995 34.8398 56.9297C34.5378 57.0573 34.1654 57.1211 33.7227 57.1211C33.2878 57.1211 32.9167 57.056 32.6094 56.9258C32.3021 56.7956 32.0534 56.6029 31.8633 56.3477C31.6706 56.0924 31.5312 55.776 31.4453 55.3984C31.3594 55.0182 31.3164 54.5833 31.3164 54.0938C31.3164 53.5885 31.3607 53.1497 31.4492 52.7773C31.5378 52.4049 31.6784 52.0898 31.8711 51.832C32.0638 51.5768 32.3138 51.3854 32.6211 51.2578C32.9284 51.1302 33.2956 51.0664 33.7227 51.0664C34.168 51.0664 34.5417 51.1328 34.8438 51.2656C35.1458 51.3958 35.3932 51.5911 35.5859 51.8516C35.776 52.1068 35.9141 52.4219 36 52.7969C36.0859 53.1693 36.1289 53.6003 36.1289 54.0898ZM34.6172 54.0898C34.6172 53.3867 34.5482 52.8867 34.4102 52.5898C34.2721 52.2904 34.043 52.1406 33.7227 52.1406C33.4023 52.1406 33.1732 52.2904 33.0352 52.5898C32.8971 52.8867 32.8281 53.3893 32.8281 54.0977C32.8281 54.7878 32.8984 55.2852 33.0391 55.5898C33.1797 55.8945 33.4076 56.0469 33.7227 56.0469C34.0378 56.0469 34.2656 55.8945 34.4062 55.5898C34.5469 55.2852 34.6172 54.7852 34.6172 54.0898ZM40.6641 52.9531C40.6641 53.6016 40.5143 54.082 40.2148 54.3945C39.9154 54.707 39.4792 54.8633 38.9062 54.8633C38.3151 54.8633 37.8698 54.7057 37.5703 54.3906C37.2734 54.0729 37.125 53.599 37.125 52.9688C37.125 52.3255 37.2773 51.849 37.582 51.5391C37.8867 51.2266 38.3281 51.0703 38.9062 51.0703C39.4896 51.0703 39.9284 51.2266 40.2227 51.5391C40.5169 51.849 40.6641 52.3203 40.6641 52.9531ZM43.7109 51.1836L40.6641 57H39.6133L42.6602 51.1836H43.7109ZM46.1836 55.2109C46.1836 55.8594 46.0339 56.3398 45.7344 56.6523C45.4349 56.9648 44.9987 57.1211 44.4258 57.1211C43.8346 57.1211 43.3893 56.9635 43.0898 56.6484C42.793 56.3307 42.6445 55.8568 42.6445 55.2266C42.6445 54.5833 42.7969 54.1068 43.1016 53.7969C43.4062 53.4844 43.8477 53.3281 44.4258 53.3281C45.0091 53.3281 45.4479 53.4844 45.7422 53.7969C46.0365 54.1068 46.1836 54.5781 46.1836 55.2109ZM39.5117 52.9648C39.5117 52.5482 39.4635 52.2669 39.3672 52.1211C39.2708 51.9753 39.1133 51.9023 38.8945 51.9023C38.6758 51.9023 38.5182 51.9753 38.4219 52.1211C38.3255 52.2669 38.2773 52.5495 38.2773 52.9688C38.2773 53.388 38.3255 53.6706 38.4219 53.8164C38.5182 53.9622 38.6758 54.0352 38.8945 54.0352C39.1133 54.0352 39.2708 53.9622 39.3672 53.8164C39.4635 53.6706 39.5117 53.3867 39.5117 52.9648ZM45.0312 55.2227C45.0312 54.806 44.9831 54.5247 44.8867 54.3789C44.7904 54.2331 44.6328 54.1602 44.4141 54.1602C44.1953 54.1602 44.0378 54.2331 43.9414 54.3789C43.8451 54.5247 43.7969 54.8073 43.7969 55.2266C43.7969 55.6458 43.8451 55.9284 43.9414 56.0742C44.0378 56.2201 44.1953 56.293 44.4141 56.293C44.6328 56.293 44.7904 56.2201 44.8867 56.0742C44.9831 55.9284 45.0312 55.6445 45.0312 55.2227Z" fill="#28292C"/>
<path d="M82.3398 54.9375H80.2578V57H79.1875V54.9375H77.1055V53.8906H79.1875V51.8281H80.2578V53.8906H82.3398V54.9375ZM88.3555 55.0312C88.3555 55.3333 88.2982 55.6146 88.1836 55.875C88.0716 56.1328 87.9076 56.3542 87.6914 56.5391C87.4518 56.737 87.1758 56.8841 86.8633 56.9805C86.5534 57.0742 86.1992 57.1211 85.8008 57.1211C85.3346 57.1185 84.9401 57.0807 84.6172 57.0078C84.2969 56.9375 84.0352 56.8581 83.832 56.7695V55.4844H83.9961C84.2331 55.625 84.4883 55.7422 84.7617 55.8359C85.0352 55.9297 85.3073 55.9766 85.5781 55.9766C85.7422 55.9766 85.9193 55.9583 86.1094 55.9219C86.3021 55.8828 86.4544 55.8138 86.5664 55.7148C86.6549 55.6341 86.7214 55.5521 86.7656 55.4688C86.8125 55.3854 86.8359 55.2565 86.8359 55.082C86.8359 54.9466 86.8047 54.8307 86.7422 54.7344C86.6823 54.6354 86.6042 54.556 86.5078 54.4961C86.3672 54.4102 86.1979 54.3542 86 54.3281C85.8021 54.2995 85.6224 54.2852 85.4609 54.2852C85.2266 54.2852 85.0013 54.306 84.7852 54.3477C84.5716 54.3867 84.3841 54.4258 84.2227 54.4648H84.0508V51.1836H88.1875V52.2969H85.4609V53.2461C85.5417 53.2409 85.6432 53.237 85.7656 53.2344C85.8906 53.2292 86 53.2266 86.0938 53.2266C86.4141 53.2266 86.6992 53.2578 86.9492 53.3203C87.2018 53.3802 87.4193 53.4648 87.6016 53.5742C87.8385 53.7174 88.0234 53.9076 88.1562 54.1445C88.2891 54.3789 88.3555 54.6745 88.3555 55.0312ZM94.1289 54.0898C94.1289 54.5794 94.0846 55.0182 93.9961 55.4062C93.9076 55.7917 93.7695 56.1081 93.582 56.3555C93.3893 56.6081 93.1419 56.7995 92.8398 56.9297C92.5378 57.0573 92.1654 57.1211 91.7227 57.1211C91.2878 57.1211 90.9167 57.056 90.6094 56.9258C90.3021 56.7956 90.0534 56.6029 89.8633 56.3477C89.6706 56.0924 89.5312 55.776 89.4453 55.3984C89.3594 55.0182 89.3164 54.5833 89.3164 54.0938C89.3164 53.5885 89.3607 53.1497 89.4492 52.7773C89.5378 52.4049 89.6784 52.0898 89.8711 51.832C90.0638 51.5768 90.3138 51.3854 90.6211 51.2578C90.9284 51.1302 91.2956 51.0664 91.7227 51.0664C92.168 51.0664 92.5417 51.1328 92.8438 51.2656C93.1458 51.3958 93.3932 51.5911 93.5859 51.8516C93.776 52.1068 93.9141 52.4219 94 52.7969C94.0859 53.1693 94.1289 53.6003 94.1289 54.0898ZM92.6172 54.0898C92.6172 53.3867 92.5482 52.8867 92.4102 52.5898C92.2721 52.2904 92.043 52.1406 91.7227 52.1406C91.4023 52.1406 91.1732 52.2904 91.0352 52.5898C90.8971 52.8867 90.8281 53.3893 90.8281 54.0977C90.8281 54.7878 90.8984 55.2852 91.0391 55.5898C91.1797 55.8945 91.4076 56.0469 91.7227 56.0469C92.0378 56.0469 92.2656 55.8945 92.4062 55.5898C92.5469 55.2852 92.6172 54.7852 92.6172 54.0898ZM98.6641 52.9531C98.6641 53.6016 98.5143 54.082 98.2148 54.3945C97.9154 54.707 97.4792 54.8633 96.9062 54.8633C96.3151 54.8633 95.8698 54.7057 95.5703 54.3906C95.2734 54.0729 95.125 53.599 95.125 52.9688C95.125 52.3255 95.2773 51.849 95.582 51.5391C95.8867 51.2266 96.3281 51.0703 96.9062 51.0703C97.4896 51.0703 97.9284 51.2266 98.2227 51.5391C98.5169 51.849 98.6641 52.3203 98.6641 52.9531ZM101.711 51.1836L98.6641 57H97.6133L100.66 51.1836H101.711ZM104.184 55.2109C104.184 55.8594 104.034 56.3398 103.734 56.6523C103.435 56.9648 102.999 57.1211 102.426 57.1211C101.835 57.1211 101.389 56.9635 101.09 56.6484C100.793 56.3307 100.645 55.8568 100.645 55.2266C100.645 54.5833 100.797 54.1068 101.102 53.7969C101.406 53.4844 101.848 53.3281 102.426 53.3281C103.009 53.3281 103.448 53.4844 103.742 53.7969C104.036 54.1068 104.184 54.5781 104.184 55.2109ZM97.5117 52.9648C97.5117 52.5482 97.4635 52.2669 97.3672 52.1211C97.2708 51.9753 97.1133 51.9023 96.8945 51.9023C96.6758 51.9023 96.5182 51.9753 96.4219 52.1211C96.3255 52.2669 96.2773 52.5495 96.2773 52.9688C96.2773 53.388 96.3255 53.6706 96.4219 53.8164C96.5182 53.9622 96.6758 54.0352 96.8945 54.0352C97.1133 54.0352 97.2708 53.9622 97.3672 53.8164C97.4635 53.6706 97.5117 53.3867 97.5117 52.9648ZM103.031 55.2227C103.031 54.806 102.983 54.5247 102.887 54.3789C102.79 54.2331 102.633 54.1602 102.414 54.1602C102.195 54.1602 102.038 54.2331 101.941 54.3789C101.845 54.5247 101.797 54.8073 101.797 55.2266C101.797 55.6458 101.845 55.9284 101.941 56.0742C102.038 56.2201 102.195 56.293 102.414 56.293C102.633 56.293 102.79 56.2201 102.887 56.0742C102.983 55.9284 103.031 55.6445 103.031 55.2227Z" fill="#28292C"/>
<path d="M143.34 54.9375H141.258V57H140.188V54.9375H138.105V53.8906H140.188V51.8281H141.258V53.8906H143.34V54.9375ZM149.113 57H145.23V55.9844H146.457V52.9102H145.23V51.9609C145.418 51.9609 145.598 51.9505 145.77 51.9297C145.941 51.9062 146.085 51.8672 146.199 51.8125C146.335 51.7474 146.436 51.6628 146.504 51.5586C146.572 51.4544 146.611 51.3242 146.621 51.168H147.914V55.9844H149.113V57ZM155.129 54.0898C155.129 54.5794 155.085 55.0182 154.996 55.4062C154.908 55.7917 154.77 56.1081 154.582 56.3555C154.389 56.6081 154.142 56.7995 153.84 56.9297C153.538 57.0573 153.165 57.1211 152.723 57.1211C152.288 57.1211 151.917 57.056 151.609 56.9258C151.302 56.7956 151.053 56.6029 150.863 56.3477C150.671 56.0924 150.531 55.776 150.445 55.3984C150.359 55.0182 150.316 54.5833 150.316 54.0938C150.316 53.5885 150.361 53.1497 150.449 52.7773C150.538 52.4049 150.678 52.0898 150.871 51.832C151.064 51.5768 151.314 51.3854 151.621 51.2578C151.928 51.1302 152.296 51.0664 152.723 51.0664C153.168 51.0664 153.542 51.1328 153.844 51.2656C154.146 51.3958 154.393 51.5911 154.586 51.8516C154.776 52.1068 154.914 52.4219 155 52.7969C155.086 53.1693 155.129 53.6003 155.129 54.0898ZM153.617 54.0898C153.617 53.3867 153.548 52.8867 153.41 52.5898C153.272 52.2904 153.043 52.1406 152.723 52.1406C152.402 52.1406 152.173 52.2904 152.035 52.5898C151.897 52.8867 151.828 53.3893 151.828 54.0977C151.828 54.7878 151.898 55.2852 152.039 55.5898C152.18 55.8945 152.408 56.0469 152.723 56.0469C153.038 56.0469 153.266 55.8945 153.406 55.5898C153.547 55.2852 153.617 54.7852 153.617 54.0898ZM159.664 52.9531C159.664 53.6016 159.514 54.082 159.215 54.3945C158.915 54.707 158.479 54.8633 157.906 54.8633C157.315 54.8633 156.87 54.7057 156.57 54.3906C156.273 54.0729 156.125 53.599 156.125 52.9688C156.125 52.3255 156.277 51.849 156.582 51.5391C156.887 51.2266 157.328 51.0703 157.906 51.0703C158.49 51.0703 158.928 51.2266 159.223 51.5391C159.517 51.849 159.664 52.3203 159.664 52.9531ZM162.711 51.1836L159.664 57H158.613L161.66 51.1836H162.711ZM165.184 55.2109C165.184 55.8594 165.034 56.3398 164.734 56.6523C164.435 56.9648 163.999 57.1211 163.426 57.1211C162.835 57.1211 162.389 56.9635 162.09 56.6484C161.793 56.3307 161.645 55.8568 161.645 55.2266C161.645 54.5833 161.797 54.1068 162.102 53.7969C162.406 53.4844 162.848 53.3281 163.426 53.3281C164.009 53.3281 164.448 53.4844 164.742 53.7969C165.036 54.1068 165.184 54.5781 165.184 55.2109ZM158.512 52.9648C158.512 52.5482 158.464 52.2669 158.367 52.1211C158.271 51.9753 158.113 51.9023 157.895 51.9023C157.676 51.9023 157.518 51.9753 157.422 52.1211C157.326 52.2669 157.277 52.5495 157.277 52.9688C157.277 53.388 157.326 53.6706 157.422 53.8164C157.518 53.9622 157.676 54.0352 157.895 54.0352C158.113 54.0352 158.271 53.9622 158.367 53.8164C158.464 53.6706 158.512 53.3867 158.512 52.9648ZM164.031 55.2227C164.031 54.806 163.983 54.5247 163.887 54.3789C163.79 54.2331 163.633 54.1602 163.414 54.1602C163.195 54.1602 163.038 54.2331 162.941 54.3789C162.845 54.5247 162.797 54.8073 162.797 55.2266C162.797 55.6458 162.845 55.9284 162.941 56.0742C163.038 56.2201 163.195 56.293 163.414 56.293C163.633 56.293 163.79 56.2201 163.887 56.0742C163.983 55.9284 164.031 55.6445 164.031 55.2227Z" fill="#28292C"/>
<path d="M21.4961 74.9375H19.4141V77H18.3438V74.9375H16.2617V73.8906H18.3438V71.8281H19.4141V73.8906H21.4961V74.9375ZM27.2695 77H23.3867V75.9844H24.6133V72.9102H23.3867V71.9609C23.5742 71.9609 23.7539 71.9505 23.9258 71.9297C24.0977 71.9062 24.2409 71.8672 24.3555 71.8125C24.4909 71.7474 24.5924 71.6628 24.6602 71.5586C24.7279 71.4544 24.7669 71.3242 24.7773 71.168H26.0703V75.9844H27.2695V77ZM33.2852 74.0898C33.2852 74.5794 33.2409 75.0182 33.1523 75.4062C33.0638 75.7917 32.9258 76.1081 32.7383 76.3555C32.5456 76.6081 32.2982 76.7995 31.9961 76.9297C31.694 77.0573 31.3216 77.1211 30.8789 77.1211C30.444 77.1211 30.0729 77.056 29.7656 76.9258C29.4583 76.7956 29.2096 76.6029 29.0195 76.3477C28.8268 76.0924 28.6875 75.776 28.6016 75.3984C28.5156 75.0182 28.4727 74.5833 28.4727 74.0938C28.4727 73.5885 28.5169 73.1497 28.6055 72.7773C28.694 72.4049 28.8346 72.0898 29.0273 71.832C29.2201 71.5768 29.4701 71.3854 29.7773 71.2578C30.0846 71.1302 30.4518 71.0664 30.8789 71.0664C31.3242 71.0664 31.6979 71.1328 32 71.2656C32.3021 71.3958 32.5495 71.5911 32.7422 71.8516C32.9323 72.1068 33.0703 72.4219 33.1562 72.7969C33.2422 73.1693 33.2852 73.6003 33.2852 74.0898ZM31.7734 74.0898C31.7734 73.3867 31.7044 72.8867 31.5664 72.5898C31.4284 72.2904 31.1992 72.1406 30.8789 72.1406C30.5586 72.1406 30.3294 72.2904 30.1914 72.5898C30.0534 72.8867 29.9844 73.3893 29.9844 74.0977C29.9844 74.7878 30.0547 75.2852 30.1953 75.5898C30.3359 75.8945 30.5638 76.0469 30.8789 76.0469C31.194 76.0469 31.4219 75.8945 31.5625 75.5898C31.7031 75.2852 31.7734 74.7852 31.7734 74.0898ZM38.9727 74.0898C38.9727 74.5794 38.9284 75.0182 38.8398 75.4062C38.7513 75.7917 38.6133 76.1081 38.4258 76.3555C38.2331 76.6081 37.9857 76.7995 37.6836 76.9297C37.3815 77.0573 37.0091 77.1211 36.5664 77.1211C36.1315 77.1211 35.7604 77.056 35.4531 76.9258C35.1458 76.7956 34.8971 76.6029 34.707 76.3477C34.5143 76.0924 34.375 75.776 34.2891 75.3984C34.2031 75.0182 34.1602 74.5833 34.1602 74.0938C34.1602 73.5885 34.2044 73.1497 34.293 72.7773C34.3815 72.4049 34.5221 72.0898 34.7148 71.832C34.9076 71.5768 35.1576 71.3854 35.4648 71.2578C35.7721 71.1302 36.1393 71.0664 36.5664 71.0664C37.0117 71.0664 37.3854 71.1328 37.6875 71.2656C37.9896 71.3958 38.237 71.5911 38.4297 71.8516C38.6198 72.1068 38.7578 72.4219 38.8438 72.7969C38.9297 73.1693 38.9727 73.6003 38.9727 74.0898ZM37.4609 74.0898C37.4609 73.3867 37.3919 72.8867 37.2539 72.5898C37.1159 72.2904 36.8867 72.1406 36.5664 72.1406C36.2461 72.1406 36.0169 72.2904 35.8789 72.5898C35.7409 72.8867 35.6719 73.3893 35.6719 74.0977C35.6719 74.7878 35.7422 75.2852 35.8828 75.5898C36.0234 75.8945 36.2513 76.0469 36.5664 76.0469C36.8815 76.0469 37.1094 75.8945 37.25 75.5898C37.3906 75.2852 37.4609 74.7852 37.4609 74.0898ZM43.5078 72.9531C43.5078 73.6016 43.3581 74.082 43.0586 74.3945C42.7591 74.707 42.3229 74.8633 41.75 74.8633C41.1589 74.8633 40.7135 74.7057 40.4141 74.3906C40.1172 74.0729 39.9688 73.599 39.9688 72.9688C39.9688 72.3255 40.1211 71.849 40.4258 71.5391C40.7305 71.2266 41.1719 71.0703 41.75 71.0703C42.3333 71.0703 42.7721 71.2266 43.0664 71.5391C43.3607 71.849 43.5078 72.3203 43.5078 72.9531ZM46.5547 71.1836L43.5078 77H42.457L45.5039 71.1836H46.5547ZM49.0273 75.2109C49.0273 75.8594 48.8776 76.3398 48.5781 76.6523C48.2786 76.9648 47.8424 77.1211 47.2695 77.1211C46.6784 77.1211 46.2331 76.9635 45.9336 76.6484C45.6367 76.3307 45.4883 75.8568 45.4883 75.2266C45.4883 74.5833 45.6406 74.1068 45.9453 73.7969C46.25 73.4844 46.6914 73.3281 47.2695 73.3281C47.8529 73.3281 48.2917 73.4844 48.5859 73.7969C48.8802 74.1068 49.0273 74.5781 49.0273 75.2109ZM42.3555 72.9648C42.3555 72.5482 42.3073 72.2669 42.2109 72.1211C42.1146 71.9753 41.957 71.9023 41.7383 71.9023C41.5195 71.9023 41.362 71.9753 41.2656 72.1211C41.1693 72.2669 41.1211 72.5495 41.1211 72.9688C41.1211 73.388 41.1693 73.6706 41.2656 73.8164C41.362 73.9622 41.5195 74.0352 41.7383 74.0352C41.957 74.0352 42.1146 73.9622 42.2109 73.8164C42.3073 73.6706 42.3555 73.3867 42.3555 72.9648ZM47.875 75.2227C47.875 74.806 47.8268 74.5247 47.7305 74.3789C47.6341 74.2331 47.4766 74.1602 47.2578 74.1602C47.0391 74.1602 46.8815 74.2331 46.7852 74.3789C46.6888 74.5247 46.6406 74.8073 46.6406 75.2266C46.6406 75.6458 46.6888 75.9284 46.7852 76.0742C46.8815 76.2201 47.0391 76.293 47.2578 76.293C47.4766 76.293 47.6341 76.2201 47.7305 76.0742C47.8268 75.9284 47.875 75.6445 47.875 75.2227Z" fill="#28292C"/>
<path d="M82.3398 74.9375H80.2578V77H79.1875V74.9375H77.1055V73.8906H79.1875V71.8281H80.2578V73.8906H82.3398V74.9375ZM87.9102 74.2734C88.0378 74.3828 88.1393 74.5104 88.2148 74.6562C88.2904 74.8021 88.3281 74.9961 88.3281 75.2383C88.3281 75.5117 88.2734 75.7669 88.1641 76.0039C88.0573 76.2409 87.8919 76.444 87.668 76.6133C87.4492 76.7773 87.1914 76.9036 86.8945 76.9922C86.6003 77.0781 86.2422 77.1211 85.8203 77.1211C85.3385 77.1211 84.9245 77.0833 84.5781 77.0078C84.2344 76.9323 83.9544 76.8477 83.7383 76.7539V75.4766H83.8906C84.1146 75.612 84.3815 75.7292 84.6914 75.8281C85.0039 75.9271 85.2891 75.9766 85.5469 75.9766C85.6979 75.9766 85.862 75.9648 86.0391 75.9414C86.2161 75.9154 86.3659 75.8607 86.4883 75.7773C86.5846 75.7122 86.6615 75.6341 86.7188 75.543C86.776 75.4492 86.8047 75.3151 86.8047 75.1406C86.8047 74.9714 86.7656 74.8411 86.6875 74.75C86.6094 74.6562 86.5065 74.5898 86.3789 74.5508C86.2513 74.5091 86.0977 74.487 85.918 74.4844C85.7383 74.4792 85.5716 74.4766 85.418 74.4766H85.0977V73.4375H85.4297C85.6328 73.4375 85.8125 73.431 85.9688 73.418C86.125 73.4049 86.2578 73.375 86.3672 73.3281C86.4818 73.2786 86.5677 73.2135 86.625 73.1328C86.6823 73.0495 86.7109 72.9284 86.7109 72.7695C86.7109 72.6523 86.681 72.5586 86.6211 72.4883C86.5612 72.4154 86.4857 72.3581 86.3945 72.3164C86.293 72.2695 86.1732 72.2383 86.0352 72.2227C85.8971 72.207 85.7786 72.1992 85.6797 72.1992C85.4349 72.1992 85.1693 72.2422 84.8828 72.3281C84.5964 72.4115 84.319 72.5326 84.0508 72.6914H83.9062V71.4297C84.1198 71.3438 84.4102 71.2617 84.7773 71.1836C85.1445 71.1029 85.5169 71.0625 85.8945 71.0625C86.2617 71.0625 86.5833 71.0951 86.8594 71.1602C87.1354 71.2227 87.3633 71.3073 87.543 71.4141C87.7565 71.5417 87.9154 71.6966 88.0195 71.8789C88.1237 72.0612 88.1758 72.2747 88.1758 72.5195C88.1758 72.8424 88.0755 73.1315 87.875 73.3867C87.6745 73.6393 87.4102 73.8008 87.082 73.8711V73.9258C87.2148 73.944 87.3555 73.9805 87.5039 74.0352C87.6523 74.0898 87.7878 74.1693 87.9102 74.2734ZM94.1289 74.0898C94.1289 74.5794 94.0846 75.0182 93.9961 75.4062C93.9076 75.7917 93.7695 76.1081 93.582 76.3555C93.3893 76.6081 93.1419 76.7995 92.8398 76.9297C92.5378 77.0573 92.1654 77.1211 91.7227 77.1211C91.2878 77.1211 90.9167 77.056 90.6094 76.9258C90.3021 76.7956 90.0534 76.6029 89.8633 76.3477C89.6706 76.0924 89.5312 75.776 89.4453 75.3984C89.3594 75.0182 89.3164 74.5833 89.3164 74.0938C89.3164 73.5885 89.3607 73.1497 89.4492 72.7773C89.5378 72.4049 89.6784 72.0898 89.8711 71.832C90.0638 71.5768 90.3138 71.3854 90.6211 71.2578C90.9284 71.1302 91.2956 71.0664 91.7227 71.0664C92.168 71.0664 92.5417 71.1328 92.8438 71.2656C93.1458 71.3958 93.3932 71.5911 93.5859 71.8516C93.776 72.1068 93.9141 72.4219 94 72.7969C94.0859 73.1693 94.1289 73.6003 94.1289 74.0898ZM92.6172 74.0898C92.6172 73.3867 92.5482 72.8867 92.4102 72.5898C92.2721 72.2904 92.043 72.1406 91.7227 72.1406C91.4023 72.1406 91.1732 72.2904 91.0352 72.5898C90.8971 72.8867 90.8281 73.3893 90.8281 74.0977C90.8281 74.7878 90.8984 75.2852 91.0391 75.5898C91.1797 75.8945 91.4076 76.0469 91.7227 76.0469C92.0378 76.0469 92.2656 75.8945 92.4062 75.5898C92.5469 75.2852 92.6172 74.7852 92.6172 74.0898ZM98.6641 72.9531C98.6641 73.6016 98.5143 74.082 98.2148 74.3945C97.9154 74.707 97.4792 74.8633 96.9062 74.8633C96.3151 74.8633 95.8698 74.7057 95.5703 74.3906C95.2734 74.0729 95.125 73.599 95.125 72.9688C95.125 72.3255 95.2773 71.849 95.582 71.5391C95.8867 71.2266 96.3281 71.0703 96.9062 71.0703C97.4896 71.0703 97.9284 71.2266 98.2227 71.5391C98.5169 71.849 98.6641 72.3203 98.6641 72.9531ZM101.711 71.1836L98.6641 77H97.6133L100.66 71.1836H101.711ZM104.184 75.2109C104.184 75.8594 104.034 76.3398 103.734 76.6523C103.435 76.9648 102.999 77.1211 102.426 77.1211C101.835 77.1211 101.389 76.9635 101.09 76.6484C100.793 76.3307 100.645 75.8568 100.645 75.2266C100.645 74.5833 100.797 74.1068 101.102 73.7969C101.406 73.4844 101.848 73.3281 102.426 73.3281C103.009 73.3281 103.448 73.4844 103.742 73.7969C104.036 74.1068 104.184 74.5781 104.184 75.2109ZM97.5117 72.9648C97.5117 72.5482 97.4635 72.2669 97.3672 72.1211C97.2708 71.9753 97.1133 71.9023 96.8945 71.9023C96.6758 71.9023 96.5182 71.9753 96.4219 72.1211C96.3255 72.2669 96.2773 72.5495 96.2773 72.9688C96.2773 73.388 96.3255 73.6706 96.4219 73.8164C96.5182 73.9622 96.6758 74.0352 96.8945 74.0352C97.1133 74.0352 97.2708 73.9622 97.3672 73.8164C97.4635 73.6706 97.5117 73.3867 97.5117 72.9648ZM103.031 75.2227C103.031 74.806 102.983 74.5247 102.887 74.3789C102.79 74.2331 102.633 74.1602 102.414 74.1602C102.195 74.1602 102.038 74.2331 101.941 74.3789C101.845 74.5247 101.797 74.8073 101.797 75.2266C101.797 75.6458 101.845 75.9284 101.941 76.0742C102.038 76.2201 102.195 76.293 102.414 76.293C102.633 76.293 102.79 76.2201 102.887 76.0742C102.983 75.9284 103.031 75.6445 103.031 75.2227Z" fill="#28292C"/>
<path d="M143.34 74.9375H141.258V77H140.188V74.9375H138.105V73.8906H140.188V71.8281H141.258V73.8906H143.34V74.9375ZM148.91 74.2734C149.038 74.3828 149.139 74.5104 149.215 74.6562C149.29 74.8021 149.328 74.9961 149.328 75.2383C149.328 75.5117 149.273 75.7669 149.164 76.0039C149.057 76.2409 148.892 76.444 148.668 76.6133C148.449 76.7773 148.191 76.9036 147.895 76.9922C147.6 77.0781 147.242 77.1211 146.82 77.1211C146.339 77.1211 145.924 77.0833 145.578 77.0078C145.234 76.9323 144.954 76.8477 144.738 76.7539V75.4766H144.891C145.115 75.612 145.382 75.7292 145.691 75.8281C146.004 75.9271 146.289 75.9766 146.547 75.9766C146.698 75.9766 146.862 75.9648 147.039 75.9414C147.216 75.9154 147.366 75.8607 147.488 75.7773C147.585 75.7122 147.661 75.6341 147.719 75.543C147.776 75.4492 147.805 75.3151 147.805 75.1406C147.805 74.9714 147.766 74.8411 147.688 74.75C147.609 74.6562 147.507 74.5898 147.379 74.5508C147.251 74.5091 147.098 74.487 146.918 74.4844C146.738 74.4792 146.572 74.4766 146.418 74.4766H146.098V73.4375H146.43C146.633 73.4375 146.812 73.431 146.969 73.418C147.125 73.4049 147.258 73.375 147.367 73.3281C147.482 73.2786 147.568 73.2135 147.625 73.1328C147.682 73.0495 147.711 72.9284 147.711 72.7695C147.711 72.6523 147.681 72.5586 147.621 72.4883C147.561 72.4154 147.486 72.3581 147.395 72.3164C147.293 72.2695 147.173 72.2383 147.035 72.2227C146.897 72.207 146.779 72.1992 146.68 72.1992C146.435 72.1992 146.169 72.2422 145.883 72.3281C145.596 72.4115 145.319 72.5326 145.051 72.6914H144.906V71.4297C145.12 71.3438 145.41 71.2617 145.777 71.1836C146.145 71.1029 146.517 71.0625 146.895 71.0625C147.262 71.0625 147.583 71.0951 147.859 71.1602C148.135 71.2227 148.363 71.3073 148.543 71.4141C148.757 71.5417 148.915 71.6966 149.02 71.8789C149.124 72.0612 149.176 72.2747 149.176 72.5195C149.176 72.8424 149.076 73.1315 148.875 73.3867C148.674 73.6393 148.41 73.8008 148.082 73.8711V73.9258C148.215 73.944 148.355 73.9805 148.504 74.0352C148.652 74.0898 148.788 74.1693 148.91 74.2734ZM155.043 75.0312C155.043 75.3333 154.986 75.6146 154.871 75.875C154.759 76.1328 154.595 76.3542 154.379 76.5391C154.139 76.737 153.863 76.8841 153.551 76.9805C153.241 77.0742 152.887 77.1211 152.488 77.1211C152.022 77.1185 151.628 77.0807 151.305 77.0078C150.984 76.9375 150.723 76.8581 150.52 76.7695V75.4844H150.684C150.921 75.625 151.176 75.7422 151.449 75.8359C151.723 75.9297 151.995 75.9766 152.266 75.9766C152.43 75.9766 152.607 75.9583 152.797 75.9219C152.99 75.8828 153.142 75.8138 153.254 75.7148C153.342 75.6341 153.409 75.5521 153.453 75.4688C153.5 75.3854 153.523 75.2565 153.523 75.082C153.523 74.9466 153.492 74.8307 153.43 74.7344C153.37 74.6354 153.292 74.556 153.195 74.4961C153.055 74.4102 152.885 74.3542 152.688 74.3281C152.49 74.2995 152.31 74.2852 152.148 74.2852C151.914 74.2852 151.689 74.306 151.473 74.3477C151.259 74.3867 151.072 74.4258 150.91 74.4648H150.738V71.1836H154.875V72.2969H152.148V73.2461C152.229 73.2409 152.331 73.237 152.453 73.2344C152.578 73.2292 152.688 73.2266 152.781 73.2266C153.102 73.2266 153.387 73.2578 153.637 73.3203C153.889 73.3802 154.107 73.4648 154.289 73.5742C154.526 73.7174 154.711 73.9076 154.844 74.1445C154.977 74.3789 155.043 74.6745 155.043 75.0312ZM159.664 72.9531C159.664 73.6016 159.514 74.082 159.215 74.3945C158.915 74.707 158.479 74.8633 157.906 74.8633C157.315 74.8633 156.87 74.7057 156.57 74.3906C156.273 74.0729 156.125 73.599 156.125 72.9688C156.125 72.3255 156.277 71.849 156.582 71.5391C156.887 71.2266 157.328 71.0703 157.906 71.0703C158.49 71.0703 158.928 71.2266 159.223 71.5391C159.517 71.849 159.664 72.3203 159.664 72.9531ZM162.711 71.1836L159.664 77H158.613L161.66 71.1836H162.711ZM165.184 75.2109C165.184 75.8594 165.034 76.3398 164.734 76.6523C164.435 76.9648 163.999 77.1211 163.426 77.1211C162.835 77.1211 162.389 76.9635 162.09 76.6484C161.793 76.3307 161.645 75.8568 161.645 75.2266C161.645 74.5833 161.797 74.1068 162.102 73.7969C162.406 73.4844 162.848 73.3281 163.426 73.3281C164.009 73.3281 164.448 73.4844 164.742 73.7969C165.036 74.1068 165.184 74.5781 165.184 75.2109ZM158.512 72.9648C158.512 72.5482 158.464 72.2669 158.367 72.1211C158.271 71.9753 158.113 71.9023 157.895 71.9023C157.676 71.9023 157.518 71.9753 157.422 72.1211C157.326 72.2669 157.277 72.5495 157.277 72.9688C157.277 73.388 157.326 73.6706 157.422 73.8164C157.518 73.9622 157.676 74.0352 157.895 74.0352C158.113 74.0352 158.271 73.9622 158.367 73.8164C158.464 73.6706 158.512 73.3867 158.512 72.9648ZM164.031 75.2227C164.031 74.806 163.983 74.5247 163.887 74.3789C163.79 74.2331 163.633 74.1602 163.414 74.1602C163.195 74.1602 163.038 74.2331 162.941 74.3789C162.845 74.5247 162.797 74.8073 162.797 75.2266C162.797 75.6458 162.845 75.9284 162.941 76.0742C163.038 76.2201 163.195 76.293 163.414 76.293C163.633 76.293 163.79 76.2201 163.887 76.0742C163.983 75.9284 164.031 75.6445 164.031 75.2227Z" fill="#28292C"/>
<path d="M21.4961 34.9375H19.4141V37H18.3438V34.9375H16.2617V33.8906H18.3438V31.8281H19.4141V33.8906H21.4961V34.9375ZM27.2695 37H23.3867V35.9844H24.6133V32.9102H23.3867V31.9609C23.5742 31.9609 23.7539 31.9505 23.9258 31.9297C24.0977 31.9062 24.2409 31.8672 24.3555 31.8125C24.4909 31.7474 24.5924 31.6628 24.6602 31.5586C24.7279 31.4544 24.7669 31.3242 24.7773 31.168H26.0703V35.9844H27.2695V37ZM33.2852 34.0898C33.2852 34.5794 33.2409 35.0182 33.1523 35.4062C33.0638 35.7917 32.9258 36.1081 32.7383 36.3555C32.5456 36.6081 32.2982 36.7995 31.9961 36.9297C31.694 37.0573 31.3216 37.1211 30.8789 37.1211C30.444 37.1211 30.0729 37.056 29.7656 36.9258C29.4583 36.7956 29.2096 36.6029 29.0195 36.3477C28.8268 36.0924 28.6875 35.776 28.6016 35.3984C28.5156 35.0182 28.4727 34.5833 28.4727 34.0938C28.4727 33.5885 28.5169 33.1497 28.6055 32.7773C28.694 32.4049 28.8346 32.0898 29.0273 31.832C29.2201 31.5768 29.4701 31.3854 29.7773 31.2578C30.0846 31.1302 30.4518 31.0664 30.8789 31.0664C31.3242 31.0664 31.6979 31.1328 32 31.2656C32.3021 31.3958 32.5495 31.5911 32.7422 31.8516C32.9323 32.1068 33.0703 32.4219 33.1562 32.7969C33.2422 33.1693 33.2852 33.6003 33.2852 34.0898ZM31.7734 34.0898C31.7734 33.3867 31.7044 32.8867 31.5664 32.5898C31.4284 32.2904 31.1992 32.1406 30.8789 32.1406C30.5586 32.1406 30.3294 32.2904 30.1914 32.5898C30.0534 32.8867 29.9844 33.3893 29.9844 34.0977C29.9844 34.7878 30.0547 35.2852 30.1953 35.5898C30.3359 35.8945 30.5638 36.0469 30.8789 36.0469C31.194 36.0469 31.4219 35.8945 31.5625 35.5898C31.7031 35.2852 31.7734 34.7852 31.7734 34.0898ZM38.9727 34.0898C38.9727 34.5794 38.9284 35.0182 38.8398 35.4062C38.7513 35.7917 38.6133 36.1081 38.4258 36.3555C38.2331 36.6081 37.9857 36.7995 37.6836 36.9297C37.3815 37.0573 37.0091 37.1211 36.5664 37.1211C36.1315 37.1211 35.7604 37.056 35.4531 36.9258C35.1458 36.7956 34.8971 36.6029 34.707 36.3477C34.5143 36.0924 34.375 35.776 34.2891 35.3984C34.2031 35.0182 34.1602 34.5833 34.1602 34.0938C34.1602 33.5885 34.2044 33.1497 34.293 32.7773C34.3815 32.4049 34.5221 32.0898 34.7148 31.832C34.9076 31.5768 35.1576 31.3854 35.4648 31.2578C35.7721 31.1302 36.1393 31.0664 36.5664 31.0664C37.0117 31.0664 37.3854 31.1328 37.6875 31.2656C37.9896 31.3958 38.237 31.5911 38.4297 31.8516C38.6198 32.1068 38.7578 32.4219 38.8438 32.7969C38.9297 33.1693 38.9727 33.6003 38.9727 34.0898ZM37.4609 34.0898C37.4609 33.3867 37.3919 32.8867 37.2539 32.5898C37.1159 32.2904 36.8867 32.1406 36.5664 32.1406C36.2461 32.1406 36.0169 32.2904 35.8789 32.5898C35.7409 32.8867 35.6719 33.3893 35.6719 34.0977C35.6719 34.7878 35.7422 35.2852 35.8828 35.5898C36.0234 35.8945 36.2513 36.0469 36.5664 36.0469C36.8815 36.0469 37.1094 35.8945 37.25 35.5898C37.3906 35.2852 37.4609 34.7852 37.4609 34.0898ZM43.5078 32.9531C43.5078 33.6016 43.3581 34.082 43.0586 34.3945C42.7591 34.707 42.3229 34.8633 41.75 34.8633C41.1589 34.8633 40.7135 34.7057 40.4141 34.3906C40.1172 34.0729 39.9688 33.599 39.9688 32.9688C39.9688 32.3255 40.1211 31.849 40.4258 31.5391C40.7305 31.2266 41.1719 31.0703 41.75 31.0703C42.3333 31.0703 42.7721 31.2266 43.0664 31.5391C43.3607 31.849 43.5078 32.3203 43.5078 32.9531ZM46.5547 31.1836L43.5078 37H42.457L45.5039 31.1836H46.5547ZM49.0273 35.2109C49.0273 35.8594 48.8776 36.3398 48.5781 36.6523C48.2786 36.9648 47.8424 37.1211 47.2695 37.1211C46.6784 37.1211 46.2331 36.9635 45.9336 36.6484C45.6367 36.3307 45.4883 35.8568 45.4883 35.2266C45.4883 34.5833 45.6406 34.1068 45.9453 33.7969C46.25 33.4844 46.6914 33.3281 47.2695 33.3281C47.8529 33.3281 48.2917 33.4844 48.5859 33.7969C48.8802 34.1068 49.0273 34.5781 49.0273 35.2109ZM42.3555 32.9648C42.3555 32.5482 42.3073 32.2669 42.2109 32.1211C42.1146 31.9753 41.957 31.9023 41.7383 31.9023C41.5195 31.9023 41.362 31.9753 41.2656 32.1211C41.1693 32.2669 41.1211 32.5495 41.1211 32.9688C41.1211 33.388 41.1693 33.6706 41.2656 33.8164C41.362 33.9622 41.5195 34.0352 41.7383 34.0352C41.957 34.0352 42.1146 33.9622 42.2109 33.8164C42.3073 33.6706 42.3555 33.3867 42.3555 32.9648ZM47.875 35.2227C47.875 34.806 47.8268 34.5247 47.7305 34.3789C47.6341 34.2331 47.4766 34.1602 47.2578 34.1602C47.0391 34.1602 46.8815 34.2331 46.7852 34.3789C46.6888 34.5247 46.6406 34.8073 46.6406 35.2266C46.6406 35.6458 46.6888 35.9284 46.7852 36.0742C46.8815 36.2201 47.0391 36.293 47.2578 36.293C47.4766 36.293 47.6341 36.2201 47.7305 36.0742C47.8268 35.9284 47.875 35.6445 47.875 35.2227Z" fill="#28292C"/>
<path d="M82.3398 34.9375H80.2578V37H79.1875V34.9375H77.1055V33.8906H79.1875V31.8281H80.2578V33.8906H82.3398V34.9375ZM87.9102 34.2734C88.0378 34.3828 88.1393 34.5104 88.2148 34.6562C88.2904 34.8021 88.3281 34.9961 88.3281 35.2383C88.3281 35.5117 88.2734 35.7669 88.1641 36.0039C88.0573 36.2409 87.8919 36.444 87.668 36.6133C87.4492 36.7773 87.1914 36.9036 86.8945 36.9922C86.6003 37.0781 86.2422 37.1211 85.8203 37.1211C85.3385 37.1211 84.9245 37.0833 84.5781 37.0078C84.2344 36.9323 83.9544 36.8477 83.7383 36.7539V35.4766H83.8906C84.1146 35.612 84.3815 35.7292 84.6914 35.8281C85.0039 35.9271 85.2891 35.9766 85.5469 35.9766C85.6979 35.9766 85.862 35.9648 86.0391 35.9414C86.2161 35.9154 86.3659 35.8607 86.4883 35.7773C86.5846 35.7122 86.6615 35.6341 86.7188 35.543C86.776 35.4492 86.8047 35.3151 86.8047 35.1406C86.8047 34.9714 86.7656 34.8411 86.6875 34.75C86.6094 34.6562 86.5065 34.5898 86.3789 34.5508C86.2513 34.5091 86.0977 34.487 85.918 34.4844C85.7383 34.4792 85.5716 34.4766 85.418 34.4766H85.0977V33.4375H85.4297C85.6328 33.4375 85.8125 33.431 85.9688 33.418C86.125 33.4049 86.2578 33.375 86.3672 33.3281C86.4818 33.2786 86.5677 33.2135 86.625 33.1328C86.6823 33.0495 86.7109 32.9284 86.7109 32.7695C86.7109 32.6523 86.681 32.5586 86.6211 32.4883C86.5612 32.4154 86.4857 32.3581 86.3945 32.3164C86.293 32.2695 86.1732 32.2383 86.0352 32.2227C85.8971 32.207 85.7786 32.1992 85.6797 32.1992C85.4349 32.1992 85.1693 32.2422 84.8828 32.3281C84.5964 32.4115 84.319 32.5326 84.0508 32.6914H83.9062V31.4297C84.1198 31.3438 84.4102 31.2617 84.7773 31.1836C85.1445 31.1029 85.5169 31.0625 85.8945 31.0625C86.2617 31.0625 86.5833 31.0951 86.8594 31.1602C87.1354 31.2227 87.3633 31.3073 87.543 31.4141C87.7565 31.5417 87.9154 31.6966 88.0195 31.8789C88.1237 32.0612 88.1758 32.2747 88.1758 32.5195C88.1758 32.8424 88.0755 33.1315 87.875 33.3867C87.6745 33.6393 87.4102 33.8008 87.082 33.8711V33.9258C87.2148 33.944 87.3555 33.9805 87.5039 34.0352C87.6523 34.0898 87.7878 34.1693 87.9102 34.2734ZM94.1289 34.0898C94.1289 34.5794 94.0846 35.0182 93.9961 35.4062C93.9076 35.7917 93.7695 36.1081 93.582 36.3555C93.3893 36.6081 93.1419 36.7995 92.8398 36.9297C92.5378 37.0573 92.1654 37.1211 91.7227 37.1211C91.2878 37.1211 90.9167 37.056 90.6094 36.9258C90.3021 36.7956 90.0534 36.6029 89.8633 36.3477C89.6706 36.0924 89.5312 35.776 89.4453 35.3984C89.3594 35.0182 89.3164 34.5833 89.3164 34.0938C89.3164 33.5885 89.3607 33.1497 89.4492 32.7773C89.5378 32.4049 89.6784 32.0898 89.8711 31.832C90.0638 31.5768 90.3138 31.3854 90.6211 31.2578C90.9284 31.1302 91.2956 31.0664 91.7227 31.0664C92.168 31.0664 92.5417 31.1328 92.8438 31.2656C93.1458 31.3958 93.3932 31.5911 93.5859 31.8516C93.776 32.1068 93.9141 32.4219 94 32.7969C94.0859 33.1693 94.1289 33.6003 94.1289 34.0898ZM92.6172 34.0898C92.6172 33.3867 92.5482 32.8867 92.4102 32.5898C92.2721 32.2904 92.043 32.1406 91.7227 32.1406C91.4023 32.1406 91.1732 32.2904 91.0352 32.5898C90.8971 32.8867 90.8281 33.3893 90.8281 34.0977C90.8281 34.7878 90.8984 35.2852 91.0391 35.5898C91.1797 35.8945 91.4076 36.0469 91.7227 36.0469C92.0378 36.0469 92.2656 35.8945 92.4062 35.5898C92.5469 35.2852 92.6172 34.7852 92.6172 34.0898ZM98.6641 32.9531C98.6641 33.6016 98.5143 34.082 98.2148 34.3945C97.9154 34.707 97.4792 34.8633 96.9062 34.8633C96.3151 34.8633 95.8698 34.7057 95.5703 34.3906C95.2734 34.0729 95.125 33.599 95.125 32.9688C95.125 32.3255 95.2773 31.849 95.582 31.5391C95.8867 31.2266 96.3281 31.0703 96.9062 31.0703C97.4896 31.0703 97.9284 31.2266 98.2227 31.5391C98.5169 31.849 98.6641 32.3203 98.6641 32.9531ZM101.711 31.1836L98.6641 37H97.6133L100.66 31.1836H101.711ZM104.184 35.2109C104.184 35.8594 104.034 36.3398 103.734 36.6523C103.435 36.9648 102.999 37.1211 102.426 37.1211C101.835 37.1211 101.389 36.9635 101.09 36.6484C100.793 36.3307 100.645 35.8568 100.645 35.2266C100.645 34.5833 100.797 34.1068 101.102 33.7969C101.406 33.4844 101.848 33.3281 102.426 33.3281C103.009 33.3281 103.448 33.4844 103.742 33.7969C104.036 34.1068 104.184 34.5781 104.184 35.2109ZM97.5117 32.9648C97.5117 32.5482 97.4635 32.2669 97.3672 32.1211C97.2708 31.9753 97.1133 31.9023 96.8945 31.9023C96.6758 31.9023 96.5182 31.9753 96.4219 32.1211C96.3255 32.2669 96.2773 32.5495 96.2773 32.9688C96.2773 33.388 96.3255 33.6706 96.4219 33.8164C96.5182 33.9622 96.6758 34.0352 96.8945 34.0352C97.1133 34.0352 97.2708 33.9622 97.3672 33.8164C97.4635 33.6706 97.5117 33.3867 97.5117 32.9648ZM103.031 35.2227C103.031 34.806 102.983 34.5247 102.887 34.3789C102.79 34.2331 102.633 34.1602 102.414 34.1602C102.195 34.1602 102.038 34.2331 101.941 34.3789C101.845 34.5247 101.797 34.8073 101.797 35.2266C101.797 35.6458 101.845 35.9284 101.941 36.0742C102.038 36.2201 102.195 36.293 102.414 36.293C102.633 36.293 102.79 36.2201 102.887 36.0742C102.983 35.9284 103.031 35.6445 103.031 35.2227Z" fill="#28292C"/>
<path d="M143.34 34.9375H141.258V37H140.188V34.9375H138.105V33.8906H140.188V31.8281H141.258V33.8906H143.34V34.9375ZM148.91 34.2734C149.038 34.3828 149.139 34.5104 149.215 34.6562C149.29 34.8021 149.328 34.9961 149.328 35.2383C149.328 35.5117 149.273 35.7669 149.164 36.0039C149.057 36.2409 148.892 36.444 148.668 36.6133C148.449 36.7773 148.191 36.9036 147.895 36.9922C147.6 37.0781 147.242 37.1211 146.82 37.1211C146.339 37.1211 145.924 37.0833 145.578 37.0078C145.234 36.9323 144.954 36.8477 144.738 36.7539V35.4766H144.891C145.115 35.612 145.382 35.7292 145.691 35.8281C146.004 35.9271 146.289 35.9766 146.547 35.9766C146.698 35.9766 146.862 35.9648 147.039 35.9414C147.216 35.9154 147.366 35.8607 147.488 35.7773C147.585 35.7122 147.661 35.6341 147.719 35.543C147.776 35.4492 147.805 35.3151 147.805 35.1406C147.805 34.9714 147.766 34.8411 147.688 34.75C147.609 34.6562 147.507 34.5898 147.379 34.5508C147.251 34.5091 147.098 34.487 146.918 34.4844C146.738 34.4792 146.572 34.4766 146.418 34.4766H146.098V33.4375H146.43C146.633 33.4375 146.812 33.431 146.969 33.418C147.125 33.4049 147.258 33.375 147.367 33.3281C147.482 33.2786 147.568 33.2135 147.625 33.1328C147.682 33.0495 147.711 32.9284 147.711 32.7695C147.711 32.6523 147.681 32.5586 147.621 32.4883C147.561 32.4154 147.486 32.3581 147.395 32.3164C147.293 32.2695 147.173 32.2383 147.035 32.2227C146.897 32.207 146.779 32.1992 146.68 32.1992C146.435 32.1992 146.169 32.2422 145.883 32.3281C145.596 32.4115 145.319 32.5326 145.051 32.6914H144.906V31.4297C145.12 31.3438 145.41 31.2617 145.777 31.1836C146.145 31.1029 146.517 31.0625 146.895 31.0625C147.262 31.0625 147.583 31.0951 147.859 31.1602C148.135 31.2227 148.363 31.3073 148.543 31.4141C148.757 31.5417 148.915 31.6966 149.02 31.8789C149.124 32.0612 149.176 32.2747 149.176 32.5195C149.176 32.8424 149.076 33.1315 148.875 33.3867C148.674 33.6393 148.41 33.8008 148.082 33.8711V33.9258C148.215 33.944 148.355 33.9805 148.504 34.0352C148.652 34.0898 148.788 34.1693 148.91 34.2734ZM155.043 35.0312C155.043 35.3333 154.986 35.6146 154.871 35.875C154.759 36.1328 154.595 36.3542 154.379 36.5391C154.139 36.737 153.863 36.8841 153.551 36.9805C153.241 37.0742 152.887 37.1211 152.488 37.1211C152.022 37.1185 151.628 37.0807 151.305 37.0078C150.984 36.9375 150.723 36.8581 150.52 36.7695V35.4844H150.684C150.921 35.625 151.176 35.7422 151.449 35.8359C151.723 35.9297 151.995 35.9766 152.266 35.9766C152.43 35.9766 152.607 35.9583 152.797 35.9219C152.99 35.8828 153.142 35.8138 153.254 35.7148C153.342 35.6341 153.409 35.5521 153.453 35.4688C153.5 35.3854 153.523 35.2565 153.523 35.082C153.523 34.9466 153.492 34.8307 153.43 34.7344C153.37 34.6354 153.292 34.556 153.195 34.4961C153.055 34.4102 152.885 34.3542 152.688 34.3281C152.49 34.2995 152.31 34.2852 152.148 34.2852C151.914 34.2852 151.689 34.306 151.473 34.3477C151.259 34.3867 151.072 34.4258 150.91 34.4648H150.738V31.1836H154.875V32.2969H152.148V33.2461C152.229 33.2409 152.331 33.237 152.453 33.2344C152.578 33.2292 152.688 33.2266 152.781 33.2266C153.102 33.2266 153.387 33.2578 153.637 33.3203C153.889 33.3802 154.107 33.4648 154.289 33.5742C154.526 33.7174 154.711 33.9076 154.844 34.1445C154.977 34.3789 155.043 34.6745 155.043 35.0312ZM159.664 32.9531C159.664 33.6016 159.514 34.082 159.215 34.3945C158.915 34.707 158.479 34.8633 157.906 34.8633C157.315 34.8633 156.87 34.7057 156.57 34.3906C156.273 34.0729 156.125 33.599 156.125 32.9688C156.125 32.3255 156.277 31.849 156.582 31.5391C156.887 31.2266 157.328 31.0703 157.906 31.0703C158.49 31.0703 158.928 31.2266 159.223 31.5391C159.517 31.849 159.664 32.3203 159.664 32.9531ZM162.711 31.1836L159.664 37H158.613L161.66 31.1836H162.711ZM165.184 35.2109C165.184 35.8594 165.034 36.3398 164.734 36.6523C164.435 36.9648 163.999 37.1211 163.426 37.1211C162.835 37.1211 162.389 36.9635 162.09 36.6484C161.793 36.3307 161.645 35.8568 161.645 35.2266C161.645 34.5833 161.797 34.1068 162.102 33.7969C162.406 33.4844 162.848 33.3281 163.426 33.3281C164.009 33.3281 164.448 33.4844 164.742 33.7969C165.036 34.1068 165.184 34.5781 165.184 35.2109ZM158.512 32.9648C158.512 32.5482 158.464 32.2669 158.367 32.1211C158.271 31.9753 158.113 31.9023 157.895 31.9023C157.676 31.9023 157.518 31.9753 157.422 32.1211C157.326 32.2669 157.277 32.5495 157.277 32.9688C157.277 33.388 157.326 33.6706 157.422 33.8164C157.518 33.9622 157.676 34.0352 157.895 34.0352C158.113 34.0352 158.271 33.9622 158.367 33.8164C158.464 33.6706 158.512 33.3867 158.512 32.9648ZM164.031 35.2227C164.031 34.806 163.983 34.5247 163.887 34.3789C163.79 34.2331 163.633 34.1602 163.414 34.1602C163.195 34.1602 163.038 34.2331 162.941 34.3789C162.845 34.5247 162.797 34.8073 162.797 35.2266C162.797 35.6458 162.845 35.9284 162.941 36.0742C163.038 36.2201 163.195 36.293 163.414 36.293C163.633 36.293 163.79 36.2201 163.887 36.0742C163.983 35.9284 164.031 35.6445 164.031 35.2227Z" fill="#28292C"/>
<rect x="9" y="12" width="166" height="9" fill="#5F5F5F"/>
<rect x="9" y="90" width="166" height="1" fill="#CCCCCC"/>
</svg>
