<svg width="212" height="115" viewBox="0 0 212 115" fill="none" xmlns="http://www.w3.org/2000/svg">
<rect x="2" y="2" width="208" height="111" fill="#F9F9F9" stroke="#333333" stroke-width="2.5"/>
<path fill-rule="evenodd" clip-rule="evenodd" d="M104.875 28.0166H114.909C115.601 28.0166 116.163 28.5781 116.163 29.2708V35.5416C116.163 36.2343 115.601 36.7958 114.909 36.7958H104.875C104.183 36.7958 103.621 36.2343 103.621 35.5416V29.2708C103.621 28.5781 104.183 28.0166 104.875 28.0166ZM106.129 30.5249V34.2874H113.654V30.5249H106.129ZM104.875 39.3041H114.909C115.601 39.3041 116.163 39.8656 116.163 40.5583V46.8291C116.163 47.5218 115.601 48.0833 114.909 48.0833H104.875C104.183 48.0833 103.621 47.5218 103.621 46.8291V40.5583C103.621 39.8656 104.183 39.3041 104.875 39.3041ZM106.129 41.8124V45.5749H113.654V41.8124H106.129ZM129.959 28.0166H119.925C119.233 28.0166 118.671 28.5781 118.671 29.2708V35.5416C118.671 36.2343 119.233 36.7958 119.925 36.7958H129.959C130.651 36.7958 131.213 36.2343 131.213 35.5416V29.2708C131.213 28.5781 130.651 28.0166 129.959 28.0166ZM121.179 34.2874V30.5249H128.704V34.2874H121.179ZM119.925 39.3041H129.959C130.651 39.3041 131.213 39.8656 131.213 40.5583V46.8291C131.213 47.5218 130.651 48.0833 129.959 48.0833H119.925C119.233 48.0833 118.671 47.5218 118.671 46.8291V40.5583C118.671 39.8656 119.233 39.3041 119.925 39.3041ZM121.179 41.8124V45.5749H128.704V41.8124H121.179Z" fill="#CCCCCC"/>
<mask id="mask0" mask-type="alpha" maskUnits="userSpaceOnUse" x="103" y="28" width="29" height="21">
<path fill-rule="evenodd" clip-rule="evenodd" d="M104.875 28.0166H114.909C115.601 28.0166 116.163 28.5781 116.163 29.2708V35.5416C116.163 36.2343 115.601 36.7958 114.909 36.7958H104.875C104.183 36.7958 103.621 36.2343 103.621 35.5416V29.2708C103.621 28.5781 104.183 28.0166 104.875 28.0166ZM106.129 30.5249V34.2874H113.654V30.5249H106.129ZM104.875 39.3041H114.909C115.601 39.3041 116.163 39.8656 116.163 40.5583V46.8291C116.163 47.5218 115.601 48.0833 114.909 48.0833H104.875C104.183 48.0833 103.621 47.5218 103.621 46.8291V40.5583C103.621 39.8656 104.183 39.3041 104.875 39.3041ZM106.129 41.8124V45.5749H113.654V41.8124H106.129ZM129.959 28.0166H119.925C119.233 28.0166 118.671 28.5781 118.671 29.2708V35.5416C118.671 36.2343 119.233 36.7958 119.925 36.7958H129.959C130.651 36.7958 131.213 36.2343 131.213 35.5416V29.2708C131.213 28.5781 130.651 28.0166 129.959 28.0166ZM121.179 34.2874V30.5249H128.704V34.2874H121.179ZM119.925 39.3041H129.959C130.651 39.3041 131.213 39.8656 131.213 40.5583V46.8291C131.213 47.5218 130.651 48.0833 129.959 48.0833H119.925C119.233 48.0833 118.671 47.5218 118.671 46.8291V40.5583C118.671 39.8656 119.233 39.3041 119.925 39.3041ZM121.179 41.8124V45.5749H128.704V41.8124H121.179Z" fill="white"/>
</mask>
<g mask="url(#mask0)">
<rect x="102.367" y="23" width="30.1" height="30.1" fill="#333333"/>
</g>
<rect x="101.404" y="89.9663" width="26.425" height="2.91667" fill="#333333"/>
<ellipse cx="102.872" cy="84.133" rx="2.93611" ry="2.91667" fill="#333333"/>
<ellipse cx="116.819" cy="81.9456" rx="3.67014" ry="3.64583" fill="#333333"/>
<ellipse cx="120.489" cy="68.0915" rx="2.93611" ry="2.91667" fill="#333333"/>
<ellipse cx="127.095" cy="65.9038" rx="2.20208" ry="2.1875" fill="#333333"/>
<ellipse cx="122.691" cy="73.1958" rx="2.20208" ry="2.1875" fill="#333333"/>
<ellipse cx="109.479" cy="74.654" rx="5.13819" ry="5.10417" fill="#333333"/>
<rect x="23.875" y="84" width="59.25" height="6.5" fill="#5CB247"/>
<rect x="23.875" y="38.5" width="9.875" height="39" fill="#5CB247"/>
<rect x="73.25" y="61.25" width="9.875" height="16.25" fill="#5CB247"/>
<rect x="56.7915" y="25.5" width="9.875" height="52" fill="#5CB247"/>
<rect x="40.3335" y="48.25" width="9.875" height="29.25" fill="#5CB247"/>
<mask id="mask1" mask-type="alpha" maskUnits="userSpaceOnUse" x="40" y="48" width="11" height="30">
<rect x="40.3335" y="48.25" width="9.875" height="29.25" fill="white"/>
</mask>
<g mask="url(#mask1)">
</g>
<path fill-rule="evenodd" clip-rule="evenodd" d="M166.3 69.375H182.55V92.125H150.05V62.875H166.3V69.375ZM153.3 88.875H156.55V85.625H153.3V88.875ZM156.55 82.375H153.3V79.125H156.55V82.375ZM153.3 75.875H156.55V72.625H153.3V75.875ZM156.55 69.375H153.3V66.125H156.55V69.375ZM159.8 88.875H163.05V85.625H159.8V88.875ZM163.05 82.375H159.8V79.125H163.05V82.375ZM159.8 75.875H163.05V72.625H159.8V75.875ZM163.05 69.375H159.8V66.125H163.05V69.375ZM179.3 88.875V72.625H166.3V75.875H169.55V79.125H166.3V82.375H169.55V85.625H166.3V88.875H179.3ZM176.05 75.875H172.8V79.125H176.05V75.875ZM172.8 82.375H176.05V85.625H172.8V82.375Z" fill="black"/>
<mask id="mask2" mask-type="alpha" maskUnits="userSpaceOnUse" x="150" y="62" width="33" height="31">
<path fill-rule="evenodd" clip-rule="evenodd" d="M166.3 69.375H182.55V92.125H150.05V62.875H166.3V69.375ZM153.3 88.875H156.55V85.625H153.3V88.875ZM156.55 82.375H153.3V79.125H156.55V82.375ZM153.3 75.875H156.55V72.625H153.3V75.875ZM156.55 69.375H153.3V66.125H156.55V69.375ZM159.8 88.875H163.05V85.625H159.8V88.875ZM163.05 82.375H159.8V79.125H163.05V82.375ZM159.8 75.875H163.05V72.625H159.8V75.875ZM163.05 69.375H159.8V66.125H163.05V69.375ZM179.3 88.875V72.625H166.3V75.875H169.55V79.125H166.3V82.375H169.55V85.625H166.3V88.875H179.3ZM176.05 75.875H172.8V79.125H176.05V75.875ZM172.8 82.375H176.05V85.625H172.8V82.375Z" fill="white"/>
</mask>
<g mask="url(#mask2)">
<rect x="146.8" y="58" width="39" height="39" fill="#333333"/>
</g>
</svg>
