<svg width="640" height="516" viewBox="0 0 640 516" fill="none" xmlns="http://www.w3.org/2000/svg">
<rect width="640" height="516" fill="white"/>
<rect width="640" height="516" fill="white"/>
<path d="M194 468.233C194 469.479 192.881 470.489 191.5 470.489C190.119 470.489 189 469.479 189 468.233C189 466.987 190.119 465.977 191.5 465.977C192.881 465.977 194 466.987 194 468.233Z" fill="black"/>
<line x1="210" y1="462.771" x2="567.808" y2="462.771" stroke="black"/>
<line x1="210" y1="470.891" x2="467.488" y2="470.891" stroke="black"/>
<path d="M194 432.143C194 433.389 192.881 434.398 191.5 434.398C190.119 434.398 189 433.389 189 432.143C189 430.897 190.119 429.887 191.5 429.887C192.881 429.887 194 430.897 194 432.143Z" fill="black"/>
<line x1="210" y1="426.68" x2="567.808" y2="426.68" stroke="black"/>
<line x1="210" y1="434.801" x2="467.488" y2="434.801" stroke="black"/>
<path d="M194 396.053C194 397.298 192.881 398.308 191.5 398.308C190.119 398.308 189 397.298 189 396.053C189 394.807 190.119 393.797 191.5 393.797C192.881 393.797 194 394.807 194 396.053Z" fill="black"/>
<line x1="210" y1="390.59" x2="567.808" y2="390.59" stroke="black"/>
<line x1="210" y1="398.711" x2="467.488" y2="398.711" stroke="black"/>
<path d="M194 359.962C194 361.208 192.881 362.218 191.5 362.218C190.119 362.218 189 361.208 189 359.962C189 358.717 190.119 357.707 191.5 357.707C192.881 357.707 194 358.717 194 359.962Z" fill="black"/>
<line x1="210" y1="354.5" x2="567.808" y2="354.5" stroke="black"/>
<line x1="210" y1="362.62" x2="467.488" y2="362.62" stroke="black"/>
<path d="M46 455.15H171V475H46V455.15Z" fill="#ECECEE"/>
<path d="M46 355H171V379.361H46V355Z" fill="#383838"/>
<line x1="77" y1="434.5" x2="140" y2="434.5" stroke="black"/>
<line x1="77" y1="398.5" x2="140" y2="398.5" stroke="black"/>
<line x1="87" y1="417.5" x2="129" y2="417.5" stroke="black"/>
<rect x="45.9" y="354.9" width="125.2" height="120.2" stroke="black" stroke-width="0.2"/>
<path d="M194 311.233C194 312.479 192.881 313.489 191.5 313.489C190.119 313.489 189 312.479 189 311.233C189 309.987 190.119 308.977 191.5 308.977C192.881 308.977 194 309.987 194 311.233Z" fill="black"/>
<line x1="210" y1="305.771" x2="567.808" y2="305.771" stroke="black"/>
<line x1="210" y1="313.891" x2="467.488" y2="313.891" stroke="black"/>
<path d="M194 275.143C194 276.389 192.881 277.398 191.5 277.398C190.119 277.398 189 276.389 189 275.143C189 273.897 190.119 272.887 191.5 272.887C192.881 272.887 194 273.897 194 275.143Z" fill="black"/>
<line x1="210" y1="269.68" x2="567.808" y2="269.68" stroke="black"/>
<line x1="210" y1="277.801" x2="467.488" y2="277.801" stroke="black"/>
<path d="M194 239.053C194 240.298 192.881 241.308 191.5 241.308C190.119 241.308 189 240.298 189 239.053C189 237.807 190.119 236.797 191.5 236.797C192.881 236.797 194 237.807 194 239.053Z" fill="black"/>
<line x1="210" y1="233.59" x2="567.808" y2="233.59" stroke="black"/>
<line x1="210" y1="241.711" x2="467.488" y2="241.711" stroke="black"/>
<path d="M194 202.962C194 204.208 192.881 205.218 191.5 205.218C190.119 205.218 189 204.208 189 202.962C189 201.717 190.119 200.707 191.5 200.707C192.881 200.707 194 201.717 194 202.962Z" fill="black"/>
<line x1="210" y1="197.5" x2="567.808" y2="197.5" stroke="black"/>
<line x1="210" y1="205.62" x2="467.488" y2="205.62" stroke="black"/>
<path d="M46 298.15H171V318H46V298.15Z" fill="#ECECEE"/>
<path d="M46 198H171V222.361H46V198Z" fill="#383838"/>
<line x1="77" y1="277.5" x2="140" y2="277.5" stroke="black"/>
<line x1="77" y1="241.5" x2="140" y2="241.5" stroke="black"/>
<line x1="87" y1="260.5" x2="129" y2="260.5" stroke="black"/>
<rect x="45.9" y="197.9" width="125.2" height="120.2" stroke="black" stroke-width="0.2"/>
<path d="M194 154.233C194 155.479 192.881 156.489 191.5 156.489C190.119 156.489 189 155.479 189 154.233C189 152.987 190.119 151.977 191.5 151.977C192.881 151.977 194 152.987 194 154.233Z" fill="black"/>
<line x1="210" y1="148.771" x2="567.808" y2="148.771" stroke="black"/>
<line x1="210" y1="156.891" x2="467.488" y2="156.891" stroke="black"/>
<path d="M194 118.143C194 119.389 192.881 120.399 191.5 120.399C190.119 120.399 189 119.389 189 118.143C189 116.897 190.119 115.887 191.5 115.887C192.881 115.887 194 116.897 194 118.143Z" fill="black"/>
<line x1="210" y1="112.68" x2="567.808" y2="112.68" stroke="black"/>
<line x1="210" y1="120.801" x2="467.488" y2="120.801" stroke="black"/>
<path d="M194 82.0526C194 83.2984 192.881 84.3083 191.5 84.3083C190.119 84.3083 189 83.2984 189 82.0526C189 80.8069 190.119 79.797 191.5 79.797C192.881 79.797 194 80.8069 194 82.0526Z" fill="black"/>
<line x1="210" y1="76.5902" x2="567.808" y2="76.5902" stroke="black"/>
<line x1="210" y1="84.7105" x2="467.488" y2="84.7105" stroke="black"/>
<path d="M194 45.9624C194 47.2082 192.881 48.218 191.5 48.218C190.119 48.218 189 47.2082 189 45.9624C189 44.7166 190.119 43.7068 191.5 43.7068C192.881 43.7068 194 44.7166 194 45.9624Z" fill="black"/>
<line x1="210" y1="40.5" x2="567.808" y2="40.5" stroke="black"/>
<line x1="210" y1="48.6203" x2="467.488" y2="48.6203" stroke="black"/>
<path d="M46 141.15H171V161H46V141.15Z" fill="#ECECEE"/>
<path d="M46 41H171V65.3609H46V41Z" fill="#383838"/>
<line x1="77" y1="120.5" x2="140" y2="120.5" stroke="black"/>
<line x1="77" y1="84.5" x2="140" y2="84.5" stroke="black"/>
<line x1="87" y1="103.5" x2="129" y2="103.5" stroke="black"/>
<rect x="45.9" y="40.9" width="125.2" height="120.2" stroke="black" stroke-width="0.2"/>
</svg>
