<svg width="185" height="112" viewBox="0 0 185 112" fill="none" xmlns="http://www.w3.org/2000/svg">
<rect width="185" height="112" fill="white"/>
<rect x="9" y="13" width="29" height="9" fill="#006176"/>
<rect x="40" y="13" width="65" height="9" fill="#006176"/>
<rect x="107" y="13" width="65" height="9" fill="#006176"/>
<rect x="9" y="13" width="29" height="9" fill="#006176"/>
<path d="M11.2539 92.0469L14.125 99.6758L16.9893 92.0469H19.2246V102H17.502V98.7188L17.6729 94.3301L14.7334 102H13.4961L10.5635 94.3369L10.7344 98.7188V102H9.01172V92.0469H11.2539ZM22.8818 102H21.2207V94.6035H22.8818V102ZM21.1182 92.6826C21.1182 92.4274 21.1979 92.2155 21.3574 92.0469C21.5215 91.8783 21.7539 91.7939 22.0547 91.7939C22.3555 91.7939 22.5879 91.8783 22.752 92.0469C22.916 92.2155 22.998 92.4274 22.998 92.6826C22.998 92.9333 22.916 93.1429 22.752 93.3115C22.5879 93.4756 22.3555 93.5576 22.0547 93.5576C21.7539 93.5576 21.5215 93.4756 21.3574 93.3115C21.1979 93.1429 21.1182 92.9333 21.1182 92.6826ZM26.2383 94.6035L26.2861 95.458C26.833 94.7972 27.5508 94.4668 28.4395 94.4668C29.9798 94.4668 30.7637 95.3486 30.791 97.1123V102H29.1299V97.208C29.1299 96.7386 29.0273 96.3923 28.8223 96.1689C28.6217 95.9411 28.2913 95.8271 27.8311 95.8271C27.1611 95.8271 26.6621 96.1302 26.334 96.7363V102H24.6729V94.6035H26.2383ZM34.2568 102H32.5957V94.6035H34.2568V102ZM32.4932 92.6826C32.4932 92.4274 32.5729 92.2155 32.7324 92.0469C32.8965 91.8783 33.1289 91.7939 33.4297 91.7939C33.7305 91.7939 33.9629 91.8783 34.127 92.0469C34.291 92.2155 34.373 92.4274 34.373 92.6826C34.373 92.9333 34.291 93.1429 34.127 93.3115C33.9629 93.4756 33.7305 93.5576 33.4297 93.5576C33.1289 93.5576 32.8965 93.4756 32.7324 93.3115C32.5729 93.1429 32.4932 92.9333 32.4932 92.6826ZM42.5967 100.811C43.0114 100.811 43.3555 100.69 43.6289 100.448C43.9023 100.207 44.0482 99.9082 44.0664 99.5527H45.6318C45.6136 100.013 45.4701 100.444 45.2012 100.845C44.9323 101.241 44.5677 101.556 44.1074 101.788C43.6471 102.021 43.1504 102.137 42.6172 102.137C41.5827 102.137 40.7624 101.802 40.1562 101.132C39.5501 100.462 39.2471 99.5368 39.2471 98.3564V98.1855C39.2471 97.0599 39.5479 96.1598 40.1494 95.4854C40.751 94.8063 41.5713 94.4668 42.6104 94.4668C43.4899 94.4668 44.2054 94.7243 44.7568 95.2393C45.3128 95.7497 45.6045 96.4219 45.6318 97.2559H44.0664C44.0482 96.832 43.9023 96.4834 43.6289 96.21C43.36 95.9365 43.016 95.7998 42.5967 95.7998C42.0589 95.7998 41.6442 95.9958 41.3525 96.3877C41.0609 96.7751 40.9128 97.3652 40.9082 98.1582V98.4248C40.9082 99.2269 41.0518 99.8262 41.3389 100.223C41.6305 100.615 42.0498 100.811 42.5967 100.811ZM51.3057 102C51.2327 101.859 51.1689 101.629 51.1143 101.31C50.5856 101.861 49.9385 102.137 49.1729 102.137C48.43 102.137 47.8239 101.925 47.3545 101.501C46.8851 101.077 46.6504 100.553 46.6504 99.9287C46.6504 99.1403 46.9421 98.5365 47.5254 98.1172C48.1133 97.6934 48.9518 97.4814 50.041 97.4814H51.0596V96.9961C51.0596 96.6133 50.9525 96.3079 50.7383 96.0801C50.5241 95.8477 50.1982 95.7314 49.7607 95.7314C49.3825 95.7314 49.0726 95.8271 48.8311 96.0186C48.5895 96.2054 48.4688 96.4447 48.4688 96.7363H46.8076C46.8076 96.3307 46.9421 95.9525 47.2109 95.6016C47.4798 95.2461 47.8444 94.9681 48.3047 94.7676C48.7695 94.5671 49.2868 94.4668 49.8564 94.4668C50.7223 94.4668 51.4128 94.6855 51.9277 95.123C52.4427 95.556 52.707 96.1667 52.7207 96.9551V100.291C52.7207 100.956 52.8141 101.487 53.001 101.884V102H51.3057ZM49.4805 100.804C49.8086 100.804 50.1162 100.724 50.4033 100.564C50.695 100.405 50.9137 100.191 51.0596 99.9219V98.5273H50.1641C49.5488 98.5273 49.0863 98.6344 48.7764 98.8486C48.4665 99.0628 48.3115 99.3659 48.3115 99.7578C48.3115 100.077 48.4163 100.332 48.626 100.523C48.8402 100.71 49.125 100.804 49.4805 100.804ZM58.6064 99.9902C58.6064 99.694 58.4834 99.4684 58.2373 99.3135C57.9958 99.1585 57.5924 99.0218 57.0273 98.9033C56.4622 98.7848 55.9906 98.6344 55.6123 98.4521C54.7829 98.0511 54.3682 97.4701 54.3682 96.709C54.3682 96.071 54.637 95.5378 55.1748 95.1094C55.7126 94.681 56.3962 94.4668 57.2256 94.4668C58.1097 94.4668 58.8229 94.6855 59.3652 95.123C59.9121 95.5605 60.1855 96.1279 60.1855 96.8252H58.5244C58.5244 96.5062 58.4059 96.2419 58.1689 96.0322C57.932 95.818 57.6175 95.7109 57.2256 95.7109C56.861 95.7109 56.5625 95.7952 56.3301 95.9639C56.1022 96.1325 55.9883 96.3581 55.9883 96.6406C55.9883 96.8958 56.0954 97.0941 56.3096 97.2354C56.5238 97.3766 56.9567 97.5202 57.6084 97.666C58.2601 97.8073 58.7705 97.9782 59.1396 98.1787C59.5133 98.3747 59.7891 98.6117 59.9668 98.8896C60.1491 99.1676 60.2402 99.5049 60.2402 99.9014C60.2402 100.567 59.9645 101.107 59.4131 101.521C58.8617 101.932 58.1393 102.137 57.2461 102.137C56.64 102.137 56.0999 102.027 55.626 101.809C55.152 101.59 54.7829 101.289 54.5186 100.906C54.2542 100.523 54.1221 100.111 54.1221 99.6689H55.7354C55.7581 100.061 55.9062 100.364 56.1797 100.578C56.4531 100.788 56.8154 100.893 57.2666 100.893C57.7041 100.893 58.0368 100.811 58.2646 100.646C58.4925 100.478 58.6064 100.259 58.6064 99.9902ZM64.9502 102.137C63.8975 102.137 63.043 101.806 62.3867 101.146C61.735 100.48 61.4092 99.596 61.4092 98.4932V98.2881C61.4092 97.5498 61.5505 96.8913 61.833 96.3125C62.1201 95.7292 62.5212 95.2757 63.0361 94.9521C63.5511 94.6286 64.1253 94.4668 64.7588 94.4668C65.766 94.4668 66.543 94.7881 67.0898 95.4307C67.6413 96.0732 67.917 96.9824 67.917 98.1582V98.8281H63.084C63.1341 99.4388 63.3369 99.9219 63.6924 100.277C64.0524 100.633 64.5036 100.811 65.0459 100.811C65.807 100.811 66.4268 100.503 66.9053 99.8877L67.8008 100.742C67.5046 101.184 67.1081 101.528 66.6113 101.774C66.1191 102.016 65.5654 102.137 64.9502 102.137ZM64.752 95.7998C64.2962 95.7998 63.9271 95.9593 63.6445 96.2783C63.3665 96.5973 63.1888 97.0417 63.1113 97.6113H66.2764V97.4883C66.2399 96.9323 66.0918 96.513 65.832 96.2305C65.5723 95.9434 65.2122 95.7998 64.752 95.7998ZM74.7803 92.8057V94.6035H76.0859V95.834H74.7803V99.9629C74.7803 100.245 74.835 100.451 74.9443 100.578C75.0583 100.701 75.2588 100.763 75.5459 100.763C75.7373 100.763 75.931 100.74 76.127 100.694V101.979C75.7487 102.084 75.3841 102.137 75.0332 102.137C73.7572 102.137 73.1191 101.433 73.1191 100.024V95.834H71.9023V94.6035H73.1191V92.8057H74.7803ZM81.7803 102C81.7074 101.859 81.6436 101.629 81.5889 101.31C81.0602 101.861 80.4131 102.137 79.6475 102.137C78.9046 102.137 78.2985 101.925 77.8291 101.501C77.3597 101.077 77.125 100.553 77.125 99.9287C77.125 99.1403 77.4167 98.5365 78 98.1172C78.5879 97.6934 79.4264 97.4814 80.5156 97.4814H81.5342V96.9961C81.5342 96.6133 81.4271 96.3079 81.2129 96.0801C80.9987 95.8477 80.6729 95.7314 80.2354 95.7314C79.8571 95.7314 79.5472 95.8271 79.3057 96.0186C79.0641 96.2054 78.9434 96.4447 78.9434 96.7363H77.2822C77.2822 96.3307 77.4167 95.9525 77.6855 95.6016C77.9544 95.2461 78.319 94.9681 78.7793 94.7676C79.2441 94.5671 79.7614 94.4668 80.3311 94.4668C81.1969 94.4668 81.8874 94.6855 82.4023 95.123C82.9173 95.556 83.1816 96.1667 83.1953 96.9551V100.291C83.1953 100.956 83.2887 101.487 83.4756 101.884V102H81.7803ZM79.9551 100.804C80.2832 100.804 80.5908 100.724 80.8779 100.564C81.1696 100.405 81.3883 100.191 81.5342 99.9219V98.5273H80.6387C80.0234 98.5273 79.5609 98.6344 79.251 98.8486C78.9411 99.0628 78.7861 99.3659 78.7861 99.7578C78.7861 100.077 78.891 100.332 79.1006 100.523C79.3148 100.71 79.5996 100.804 79.9551 100.804ZM91.4258 98.377C91.4258 99.5254 91.1683 100.439 90.6533 101.118C90.1429 101.797 89.4388 102.137 88.541 102.137C87.6751 102.137 87.0007 101.825 86.5176 101.2L86.4355 102H84.9316V91.5H86.5928V95.3145C87.0713 94.7493 87.7161 94.4668 88.5273 94.4668C89.4297 94.4668 90.1383 94.8018 90.6533 95.4717C91.1683 96.1416 91.4258 97.0781 91.4258 98.2812V98.377ZM89.7646 98.2334C89.7646 97.4313 89.6234 96.8298 89.3408 96.4287C89.0583 96.0277 88.6481 95.8271 88.1104 95.8271C87.3903 95.8271 86.8844 96.1416 86.5928 96.7705V99.8193C86.889 100.462 87.3994 100.783 88.124 100.783C88.6436 100.783 89.0446 100.59 89.3271 100.202C89.6097 99.8148 89.7555 99.2292 89.7646 98.4453V98.2334ZM94.5908 102H92.9297V91.5H94.5908V102ZM99.6631 102.137C98.6104 102.137 97.7559 101.806 97.0996 101.146C96.4479 100.48 96.1221 99.596 96.1221 98.4932V98.2881C96.1221 97.5498 96.2633 96.8913 96.5459 96.3125C96.833 95.7292 97.234 95.2757 97.749 94.9521C98.264 94.6286 98.8382 94.4668 99.4717 94.4668C100.479 94.4668 101.256 94.7881 101.803 95.4307C102.354 96.0732 102.63 96.9824 102.63 98.1582V98.8281H97.7969C97.847 99.4388 98.0498 99.9219 98.4053 100.277C98.7653 100.633 99.2165 100.811 99.7588 100.811C100.52 100.811 101.14 100.503 101.618 99.8877L102.514 100.742C102.217 101.184 101.821 101.528 101.324 101.774C100.832 102.016 100.278 102.137 99.6631 102.137ZM99.4648 95.7998C99.0091 95.7998 98.64 95.9593 98.3574 96.2783C98.0794 96.5973 97.9017 97.0417 97.8242 97.6113H100.989V97.4883C100.953 96.9323 100.805 96.513 100.545 96.2305C100.285 95.9434 99.9251 95.7998 99.4648 95.7998Z" fill="#28292C"/>
<rect x="9" y="82" width="166" height="1" fill="#CCCCCC"/>
<rect x="9" y="49" width="162" height="1" fill="#CCCCCC"/>
<rect x="10" y="27" width="22" height="3.80952" fill="#CCCCCC"/>
<rect x="10" y="33.0952" width="17.4706" height="3.80952" fill="#CCCCCC"/>
<rect x="10" y="39.1905" width="22" height="3.80952" fill="#CCCCCC"/>
<rect x="40" y="27" width="54" height="3.80952" fill="#CCCCCC"/>
<rect x="40" y="33.0952" width="42.8824" height="3.80952" fill="#CCCCCC"/>
<rect x="40" y="39.1905" width="54" height="3.80952" fill="#CCCCCC"/>
<rect x="108" y="27" width="58" height="3.80952" fill="#CCCCCC"/>
<rect x="108" y="33.0952" width="46.0588" height="3.80952" fill="#CCCCCC"/>
<rect x="108" y="39.1905" width="58" height="3.80952" fill="#CCCCCC"/>
<rect x="10" y="56" width="22" height="3.80952" fill="#CCCCCC"/>
<rect x="10" y="62.0952" width="17.4706" height="3.80952" fill="#CCCCCC"/>
<rect x="10" y="68.1905" width="22" height="3.80952" fill="#CCCCCC"/>
<rect x="40" y="56" width="54" height="3.80952" fill="#CCCCCC"/>
<rect x="40" y="62.0952" width="42.8824" height="3.80952" fill="#CCCCCC"/>
<rect x="40" y="68.1905" width="54" height="3.80952" fill="#CCCCCC"/>
<rect x="108" y="56" width="58" height="3.80952" fill="#CCCCCC"/>
<rect x="108" y="62.0952" width="46.0588" height="3.80952" fill="#CCCCCC"/>
<rect x="108" y="68.1905" width="58" height="3.80952" fill="#CCCCCC"/>
</svg>
