<svg width="229" height="123" viewBox="0 0 229 123" fill="none" xmlns="http://www.w3.org/2000/svg">
<rect x="1" y="1" width="42" height="7.86935" fill="#333333" stroke="#333333"/>
<rect x="1" y="51.1309" width="42" height="7.86935" fill="#5CB247" stroke="#333333"/>
<rect x="1" y="8.86914" width="42" height="42.2613" fill="#F9F9F9" stroke="#333333"/>
<mask id="path-4-inside-1" fill="white">
<path fill-rule="evenodd" clip-rule="evenodd" d="M30.6884 14.6987H13.6074V15.2816H30.6884V14.6987ZM13.6074 15.8646H30.6884V16.4475H13.6074V15.8646ZM30.6884 17.0304H13.6074V17.6133H30.6884V17.0304ZM30.6884 18.1962H13.6074V18.7791H30.6884V18.1962Z"/>
</mask>
<path fill-rule="evenodd" clip-rule="evenodd" d="M30.6884 14.6987H13.6074V15.2816H30.6884V14.6987ZM13.6074 15.8646H30.6884V16.4475H13.6074V15.8646ZM30.6884 17.0304H13.6074V17.6133H30.6884V17.0304ZM30.6884 18.1962H13.6074V18.7791H30.6884V18.1962Z" fill="#D8D8D8"/>
<path d="M13.6074 14.6987V13.6987H12.6074V14.6987H13.6074ZM30.6884 14.6987H31.6884V13.6987H30.6884V14.6987ZM13.6074 15.2816H12.6074V16.2816H13.6074V15.2816ZM30.6884 15.2816V16.2816H31.6884V15.2816H30.6884ZM30.6884 15.8646H31.6884V14.8646H30.6884V15.8646ZM13.6074 15.8646V14.8646H12.6074V15.8646H13.6074ZM30.6884 16.4475V17.4475H31.6884V16.4475H30.6884ZM13.6074 16.4475H12.6074V17.4475H13.6074V16.4475ZM13.6074 17.0304V16.0304H12.6074V17.0304H13.6074ZM30.6884 17.0304H31.6884V16.0304H30.6884V17.0304ZM13.6074 17.6133H12.6074V18.6133H13.6074V17.6133ZM30.6884 17.6133V18.6133H31.6884V17.6133H30.6884ZM13.6074 18.1962V17.1962H12.6074V18.1962H13.6074ZM30.6884 18.1962H31.6884V17.1962H30.6884V18.1962ZM13.6074 18.7791H12.6074V19.7791H13.6074V18.7791ZM30.6884 18.7791V19.7791H31.6884V18.7791H30.6884ZM13.6074 15.6987H30.6884V13.6987H13.6074V15.6987ZM14.6074 15.2816V14.6987H12.6074V15.2816H14.6074ZM30.6884 14.2816H13.6074V16.2816H30.6884V14.2816ZM29.6884 14.6987V15.2816H31.6884V14.6987H29.6884ZM30.6884 14.8646H13.6074V16.8646H30.6884V14.8646ZM31.6884 16.4475V15.8646H29.6884V16.4475H31.6884ZM13.6074 17.4475H30.6884V15.4475H13.6074V17.4475ZM12.6074 15.8646V16.4475H14.6074V15.8646H12.6074ZM13.6074 18.0304H30.6884V16.0304H13.6074V18.0304ZM14.6074 17.6133V17.0304H12.6074V17.6133H14.6074ZM30.6884 16.6133H13.6074V18.6133H30.6884V16.6133ZM29.6884 17.0304V17.6133H31.6884V17.0304H29.6884ZM13.6074 19.1962H30.6884V17.1962H13.6074V19.1962ZM14.6074 18.7791V18.1962H12.6074V18.7791H14.6074ZM30.6884 17.7791H13.6074V19.7791H30.6884V17.7791ZM29.6884 18.1962V18.7791H31.6884V18.1962H29.6884Z" fill="#979797" mask="url(#path-4-inside-1)"/>
<mask id="mask0" mask-type="alpha" maskUnits="userSpaceOnUse" x="13" y="14" width="18" height="5">
<mask id="path-6-inside-2" mask-type="luminance" fill="white">
<path fill-rule="evenodd" clip-rule="evenodd" d="M30.6884 14.6987H13.6074V15.2816H30.6884V14.6987ZM13.6074 15.8646H30.6884V16.4475H13.6074V15.8646ZM30.6884 17.0304H13.6074V17.6133H30.6884V17.0304ZM30.6884 18.1962H13.6074V18.7791H30.6884V18.1962Z"/>
</mask>
<path fill-rule="evenodd" clip-rule="evenodd" d="M30.6884 14.6987H13.6074V15.2816H30.6884V14.6987ZM13.6074 15.8646H30.6884V16.4475H13.6074V15.8646ZM30.6884 17.0304H13.6074V17.6133H30.6884V17.0304ZM30.6884 18.1962H13.6074V18.7791H30.6884V18.1962Z" fill="white"/>
<path d="M13.6074 14.6987V13.6987H12.6074V14.6987H13.6074ZM30.6884 14.6987H31.6884V13.6987H30.6884V14.6987ZM13.6074 15.2816H12.6074V16.2816H13.6074V15.2816ZM30.6884 15.2816V16.2816H31.6884V15.2816H30.6884ZM30.6884 15.8646H31.6884V14.8646H30.6884V15.8646ZM13.6074 15.8646V14.8646H12.6074V15.8646H13.6074ZM30.6884 16.4475V17.4475H31.6884V16.4475H30.6884ZM13.6074 16.4475H12.6074V17.4475H13.6074V16.4475ZM13.6074 17.0304V16.0304H12.6074V17.0304H13.6074ZM30.6884 17.0304H31.6884V16.0304H30.6884V17.0304ZM13.6074 17.6133H12.6074V18.6133H13.6074V17.6133ZM30.6884 17.6133V18.6133H31.6884V17.6133H30.6884ZM13.6074 18.1962V17.1962H12.6074V18.1962H13.6074ZM30.6884 18.1962H31.6884V17.1962H30.6884V18.1962ZM13.6074 18.7791H12.6074V19.7791H13.6074V18.7791ZM30.6884 18.7791V19.7791H31.6884V18.7791H30.6884ZM13.6074 15.6987H30.6884V13.6987H13.6074V15.6987ZM14.6074 15.2816V14.6987H12.6074V15.2816H14.6074ZM30.6884 14.2816H13.6074V16.2816H30.6884V14.2816ZM29.6884 14.6987V15.2816H31.6884V14.6987H29.6884ZM30.6884 14.8646H13.6074V16.8646H30.6884V14.8646ZM31.6884 16.4475V15.8646H29.6884V16.4475H31.6884ZM13.6074 17.4475H30.6884V15.4475H13.6074V17.4475ZM12.6074 15.8646V16.4475H14.6074V15.8646H12.6074ZM13.6074 18.0304H30.6884V16.0304H13.6074V18.0304ZM14.6074 17.6133V17.0304H12.6074V17.6133H14.6074ZM30.6884 16.6133H13.6074V18.6133H30.6884V16.6133ZM29.6884 17.0304V17.6133H31.6884V17.0304H29.6884ZM13.6074 19.1962H30.6884V17.1962H13.6074V19.1962ZM14.6074 18.7791V18.1962H12.6074V18.7791H14.6074ZM30.6884 17.7791H13.6074V19.7791H30.6884V17.7791ZM29.6884 18.1962V18.7791H31.6884V18.1962H29.6884Z" fill="white" mask="url(#path-6-inside-2)"/>
</mask>
<g mask="url(#mask0)">
<rect x="10.7606" y="13.2412" width="22.7746" height="6.99498" fill="#333333"/>
</g>
<rect x="1" y="64" width="42" height="7.86935" fill="#333333" stroke="#333333"/>
<rect x="1" y="114.131" width="42" height="7.86935" fill="#5CB247" stroke="#333333"/>
<rect x="1" y="71.8691" width="42" height="42.2613" fill="#F9F9F9" stroke="#333333"/>
<mask id="path-12-inside-3" fill="white">
<path fill-rule="evenodd" clip-rule="evenodd" d="M30.6884 77.6987H13.6074V78.2816H30.6884V77.6987ZM13.6074 78.8646H30.6884V79.4475H13.6074V78.8646ZM30.6884 80.0304H13.6074V80.6133H30.6884V80.0304ZM30.6884 81.1962H13.6074V81.7791H30.6884V81.1962Z"/>
</mask>
<path fill-rule="evenodd" clip-rule="evenodd" d="M30.6884 77.6987H13.6074V78.2816H30.6884V77.6987ZM13.6074 78.8646H30.6884V79.4475H13.6074V78.8646ZM30.6884 80.0304H13.6074V80.6133H30.6884V80.0304ZM30.6884 81.1962H13.6074V81.7791H30.6884V81.1962Z" fill="#D8D8D8"/>
<path d="M13.6074 77.6987V76.6987H12.6074V77.6987H13.6074ZM30.6884 77.6987H31.6884V76.6987H30.6884V77.6987ZM13.6074 78.2816H12.6074V79.2816H13.6074V78.2816ZM30.6884 78.2816V79.2816H31.6884V78.2816H30.6884ZM30.6884 78.8646H31.6884V77.8646H30.6884V78.8646ZM13.6074 78.8646V77.8646H12.6074V78.8646H13.6074ZM30.6884 79.4475V80.4475H31.6884V79.4475H30.6884ZM13.6074 79.4475H12.6074V80.4475H13.6074V79.4475ZM13.6074 80.0304V79.0304H12.6074V80.0304H13.6074ZM30.6884 80.0304H31.6884V79.0304H30.6884V80.0304ZM13.6074 80.6133H12.6074V81.6133H13.6074V80.6133ZM30.6884 80.6133V81.6133H31.6884V80.6133H30.6884ZM13.6074 81.1962V80.1962H12.6074V81.1962H13.6074ZM30.6884 81.1962H31.6884V80.1962H30.6884V81.1962ZM13.6074 81.7791H12.6074V82.7791H13.6074V81.7791ZM30.6884 81.7791V82.7791H31.6884V81.7791H30.6884ZM13.6074 78.6987H30.6884V76.6987H13.6074V78.6987ZM14.6074 78.2816V77.6987H12.6074V78.2816H14.6074ZM30.6884 77.2816H13.6074V79.2816H30.6884V77.2816ZM29.6884 77.6987V78.2816H31.6884V77.6987H29.6884ZM30.6884 77.8646H13.6074V79.8646H30.6884V77.8646ZM31.6884 79.4475V78.8646H29.6884V79.4475H31.6884ZM13.6074 80.4475H30.6884V78.4475H13.6074V80.4475ZM12.6074 78.8646V79.4475H14.6074V78.8646H12.6074ZM13.6074 81.0304H30.6884V79.0304H13.6074V81.0304ZM14.6074 80.6133V80.0304H12.6074V80.6133H14.6074ZM30.6884 79.6133H13.6074V81.6133H30.6884V79.6133ZM29.6884 80.0304V80.6133H31.6884V80.0304H29.6884ZM13.6074 82.1962H30.6884V80.1962H13.6074V82.1962ZM14.6074 81.7791V81.1962H12.6074V81.7791H14.6074ZM30.6884 80.7791H13.6074V82.7791H30.6884V80.7791ZM29.6884 81.1962V81.7791H31.6884V81.1962H29.6884Z" fill="#979797" mask="url(#path-12-inside-3)"/>
<mask id="mask1" mask-type="alpha" maskUnits="userSpaceOnUse" x="13" y="77" width="18" height="5">
<mask id="path-14-inside-4" mask-type="luminance" fill="white">
<path fill-rule="evenodd" clip-rule="evenodd" d="M30.6884 77.6987H13.6074V78.2816H30.6884V77.6987ZM13.6074 78.8646H30.6884V79.4475H13.6074V78.8646ZM30.6884 80.0304H13.6074V80.6133H30.6884V80.0304ZM30.6884 81.1962H13.6074V81.7791H30.6884V81.1962Z"/>
</mask>
<path fill-rule="evenodd" clip-rule="evenodd" d="M30.6884 77.6987H13.6074V78.2816H30.6884V77.6987ZM13.6074 78.8646H30.6884V79.4475H13.6074V78.8646ZM30.6884 80.0304H13.6074V80.6133H30.6884V80.0304ZM30.6884 81.1962H13.6074V81.7791H30.6884V81.1962Z" fill="white"/>
<path d="M13.6074 77.6987V76.6987H12.6074V77.6987H13.6074ZM30.6884 77.6987H31.6884V76.6987H30.6884V77.6987ZM13.6074 78.2816H12.6074V79.2816H13.6074V78.2816ZM30.6884 78.2816V79.2816H31.6884V78.2816H30.6884ZM30.6884 78.8646H31.6884V77.8646H30.6884V78.8646ZM13.6074 78.8646V77.8646H12.6074V78.8646H13.6074ZM30.6884 79.4475V80.4475H31.6884V79.4475H30.6884ZM13.6074 79.4475H12.6074V80.4475H13.6074V79.4475ZM13.6074 80.0304V79.0304H12.6074V80.0304H13.6074ZM30.6884 80.0304H31.6884V79.0304H30.6884V80.0304ZM13.6074 80.6133H12.6074V81.6133H13.6074V80.6133ZM30.6884 80.6133V81.6133H31.6884V80.6133H30.6884ZM13.6074 81.1962V80.1962H12.6074V81.1962H13.6074ZM30.6884 81.1962H31.6884V80.1962H30.6884V81.1962ZM13.6074 81.7791H12.6074V82.7791H13.6074V81.7791ZM30.6884 81.7791V82.7791H31.6884V81.7791H30.6884ZM13.6074 78.6987H30.6884V76.6987H13.6074V78.6987ZM14.6074 78.2816V77.6987H12.6074V78.2816H14.6074ZM30.6884 77.2816H13.6074V79.2816H30.6884V77.2816ZM29.6884 77.6987V78.2816H31.6884V77.6987H29.6884ZM30.6884 77.8646H13.6074V79.8646H30.6884V77.8646ZM31.6884 79.4475V78.8646H29.6884V79.4475H31.6884ZM13.6074 80.4475H30.6884V78.4475H13.6074V80.4475ZM12.6074 78.8646V79.4475H14.6074V78.8646H12.6074ZM13.6074 81.0304H30.6884V79.0304H13.6074V81.0304ZM14.6074 80.6133V80.0304H12.6074V80.6133H14.6074ZM30.6884 79.6133H13.6074V81.6133H30.6884V79.6133ZM29.6884 80.0304V80.6133H31.6884V80.0304H29.6884ZM13.6074 82.1962H30.6884V80.1962H13.6074V82.1962ZM14.6074 81.7791V81.1962H12.6074V81.7791H14.6074ZM30.6884 80.7791H13.6074V82.7791H30.6884V80.7791ZM29.6884 81.1962V81.7791H31.6884V81.1962H29.6884Z" fill="white" mask="url(#path-14-inside-4)"/>
</mask>
<g mask="url(#mask1)">
<rect x="10.7606" y="76.2412" width="22.7746" height="6.99498" fill="#333333"/>
</g>
<rect x="47" y="1" width="42" height="7.86935" fill="#333333" stroke="#333333"/>
<rect x="47" y="51.1309" width="42" height="7.86935" fill="#5CB247" stroke="#333333"/>
<rect x="47" y="8.86914" width="42" height="42.2613" fill="#F9F9F9" stroke="#333333"/>
<mask id="path-20-inside-5" fill="white">
<path fill-rule="evenodd" clip-rule="evenodd" d="M76.6884 14.6987H59.6074V15.2816H76.6884V14.6987ZM59.6074 15.8646H76.6884V16.4475H59.6074V15.8646ZM76.6884 17.0304H59.6074V17.6133H76.6884V17.0304ZM76.6884 18.1962H59.6074V18.7791H76.6884V18.1962Z"/>
</mask>
<path fill-rule="evenodd" clip-rule="evenodd" d="M76.6884 14.6987H59.6074V15.2816H76.6884V14.6987ZM59.6074 15.8646H76.6884V16.4475H59.6074V15.8646ZM76.6884 17.0304H59.6074V17.6133H76.6884V17.0304ZM76.6884 18.1962H59.6074V18.7791H76.6884V18.1962Z" fill="#D8D8D8"/>
<path d="M59.6074 14.6987V13.6987H58.6074V14.6987H59.6074ZM76.6884 14.6987H77.6884V13.6987H76.6884V14.6987ZM59.6074 15.2816H58.6074V16.2816H59.6074V15.2816ZM76.6884 15.2816V16.2816H77.6884V15.2816H76.6884ZM76.6884 15.8646H77.6884V14.8646H76.6884V15.8646ZM59.6074 15.8646V14.8646H58.6074V15.8646H59.6074ZM76.6884 16.4475V17.4475H77.6884V16.4475H76.6884ZM59.6074 16.4475H58.6074V17.4475H59.6074V16.4475ZM59.6074 17.0304V16.0304H58.6074V17.0304H59.6074ZM76.6884 17.0304H77.6884V16.0304H76.6884V17.0304ZM59.6074 17.6133H58.6074V18.6133H59.6074V17.6133ZM76.6884 17.6133V18.6133H77.6884V17.6133H76.6884ZM59.6074 18.1962V17.1962H58.6074V18.1962H59.6074ZM76.6884 18.1962H77.6884V17.1962H76.6884V18.1962ZM59.6074 18.7791H58.6074V19.7791H59.6074V18.7791ZM76.6884 18.7791V19.7791H77.6884V18.7791H76.6884ZM59.6074 15.6987H76.6884V13.6987H59.6074V15.6987ZM60.6074 15.2816V14.6987H58.6074V15.2816H60.6074ZM76.6884 14.2816H59.6074V16.2816H76.6884V14.2816ZM75.6884 14.6987V15.2816H77.6884V14.6987H75.6884ZM76.6884 14.8646H59.6074V16.8646H76.6884V14.8646ZM77.6884 16.4475V15.8646H75.6884V16.4475H77.6884ZM59.6074 17.4475H76.6884V15.4475H59.6074V17.4475ZM58.6074 15.8646V16.4475H60.6074V15.8646H58.6074ZM59.6074 18.0304H76.6884V16.0304H59.6074V18.0304ZM60.6074 17.6133V17.0304H58.6074V17.6133H60.6074ZM76.6884 16.6133H59.6074V18.6133H76.6884V16.6133ZM75.6884 17.0304V17.6133H77.6884V17.0304H75.6884ZM59.6074 19.1962H76.6884V17.1962H59.6074V19.1962ZM60.6074 18.7791V18.1962H58.6074V18.7791H60.6074ZM76.6884 17.7791H59.6074V19.7791H76.6884V17.7791ZM75.6884 18.1962V18.7791H77.6884V18.1962H75.6884Z" fill="#979797" mask="url(#path-20-inside-5)"/>
<mask id="mask2" mask-type="alpha" maskUnits="userSpaceOnUse" x="59" y="14" width="18" height="5">
<mask id="path-22-inside-6" mask-type="luminance" fill="white">
<path fill-rule="evenodd" clip-rule="evenodd" d="M76.6884 14.6987H59.6074V15.2816H76.6884V14.6987ZM59.6074 15.8646H76.6884V16.4475H59.6074V15.8646ZM76.6884 17.0304H59.6074V17.6133H76.6884V17.0304ZM76.6884 18.1962H59.6074V18.7791H76.6884V18.1962Z"/>
</mask>
<path fill-rule="evenodd" clip-rule="evenodd" d="M76.6884 14.6987H59.6074V15.2816H76.6884V14.6987ZM59.6074 15.8646H76.6884V16.4475H59.6074V15.8646ZM76.6884 17.0304H59.6074V17.6133H76.6884V17.0304ZM76.6884 18.1962H59.6074V18.7791H76.6884V18.1962Z" fill="white"/>
<path d="M59.6074 14.6987V13.6987H58.6074V14.6987H59.6074ZM76.6884 14.6987H77.6884V13.6987H76.6884V14.6987ZM59.6074 15.2816H58.6074V16.2816H59.6074V15.2816ZM76.6884 15.2816V16.2816H77.6884V15.2816H76.6884ZM76.6884 15.8646H77.6884V14.8646H76.6884V15.8646ZM59.6074 15.8646V14.8646H58.6074V15.8646H59.6074ZM76.6884 16.4475V17.4475H77.6884V16.4475H76.6884ZM59.6074 16.4475H58.6074V17.4475H59.6074V16.4475ZM59.6074 17.0304V16.0304H58.6074V17.0304H59.6074ZM76.6884 17.0304H77.6884V16.0304H76.6884V17.0304ZM59.6074 17.6133H58.6074V18.6133H59.6074V17.6133ZM76.6884 17.6133V18.6133H77.6884V17.6133H76.6884ZM59.6074 18.1962V17.1962H58.6074V18.1962H59.6074ZM76.6884 18.1962H77.6884V17.1962H76.6884V18.1962ZM59.6074 18.7791H58.6074V19.7791H59.6074V18.7791ZM76.6884 18.7791V19.7791H77.6884V18.7791H76.6884ZM59.6074 15.6987H76.6884V13.6987H59.6074V15.6987ZM60.6074 15.2816V14.6987H58.6074V15.2816H60.6074ZM76.6884 14.2816H59.6074V16.2816H76.6884V14.2816ZM75.6884 14.6987V15.2816H77.6884V14.6987H75.6884ZM76.6884 14.8646H59.6074V16.8646H76.6884V14.8646ZM77.6884 16.4475V15.8646H75.6884V16.4475H77.6884ZM59.6074 17.4475H76.6884V15.4475H59.6074V17.4475ZM58.6074 15.8646V16.4475H60.6074V15.8646H58.6074ZM59.6074 18.0304H76.6884V16.0304H59.6074V18.0304ZM60.6074 17.6133V17.0304H58.6074V17.6133H60.6074ZM76.6884 16.6133H59.6074V18.6133H76.6884V16.6133ZM75.6884 17.0304V17.6133H77.6884V17.0304H75.6884ZM59.6074 19.1962H76.6884V17.1962H59.6074V19.1962ZM60.6074 18.7791V18.1962H58.6074V18.7791H60.6074ZM76.6884 17.7791H59.6074V19.7791H76.6884V17.7791ZM75.6884 18.1962V18.7791H77.6884V18.1962H75.6884Z" fill="white" mask="url(#path-22-inside-6)"/>
</mask>
<g mask="url(#mask2)">
<rect x="56.7606" y="13.2412" width="22.7746" height="6.99498" fill="#333333"/>
</g>
<rect x="47" y="64" width="42" height="7.86935" fill="#333333" stroke="#333333"/>
<rect x="47" y="114.131" width="42" height="7.86935" fill="#5CB247" stroke="#333333"/>
<rect x="47" y="71.8691" width="42" height="42.2613" fill="#F9F9F9" stroke="#333333"/>
<mask id="path-28-inside-7" fill="white">
<path fill-rule="evenodd" clip-rule="evenodd" d="M76.6884 77.6987H59.6074V78.2816H76.6884V77.6987ZM59.6074 78.8646H76.6884V79.4475H59.6074V78.8646ZM76.6884 80.0304H59.6074V80.6133H76.6884V80.0304ZM76.6884 81.1962H59.6074V81.7791H76.6884V81.1962Z"/>
</mask>
<path fill-rule="evenodd" clip-rule="evenodd" d="M76.6884 77.6987H59.6074V78.2816H76.6884V77.6987ZM59.6074 78.8646H76.6884V79.4475H59.6074V78.8646ZM76.6884 80.0304H59.6074V80.6133H76.6884V80.0304ZM76.6884 81.1962H59.6074V81.7791H76.6884V81.1962Z" fill="#D8D8D8"/>
<path d="M59.6074 77.6987V76.6987H58.6074V77.6987H59.6074ZM76.6884 77.6987H77.6884V76.6987H76.6884V77.6987ZM59.6074 78.2816H58.6074V79.2816H59.6074V78.2816ZM76.6884 78.2816V79.2816H77.6884V78.2816H76.6884ZM76.6884 78.8646H77.6884V77.8646H76.6884V78.8646ZM59.6074 78.8646V77.8646H58.6074V78.8646H59.6074ZM76.6884 79.4475V80.4475H77.6884V79.4475H76.6884ZM59.6074 79.4475H58.6074V80.4475H59.6074V79.4475ZM59.6074 80.0304V79.0304H58.6074V80.0304H59.6074ZM76.6884 80.0304H77.6884V79.0304H76.6884V80.0304ZM59.6074 80.6133H58.6074V81.6133H59.6074V80.6133ZM76.6884 80.6133V81.6133H77.6884V80.6133H76.6884ZM59.6074 81.1962V80.1962H58.6074V81.1962H59.6074ZM76.6884 81.1962H77.6884V80.1962H76.6884V81.1962ZM59.6074 81.7791H58.6074V82.7791H59.6074V81.7791ZM76.6884 81.7791V82.7791H77.6884V81.7791H76.6884ZM59.6074 78.6987H76.6884V76.6987H59.6074V78.6987ZM60.6074 78.2816V77.6987H58.6074V78.2816H60.6074ZM76.6884 77.2816H59.6074V79.2816H76.6884V77.2816ZM75.6884 77.6987V78.2816H77.6884V77.6987H75.6884ZM76.6884 77.8646H59.6074V79.8646H76.6884V77.8646ZM77.6884 79.4475V78.8646H75.6884V79.4475H77.6884ZM59.6074 80.4475H76.6884V78.4475H59.6074V80.4475ZM58.6074 78.8646V79.4475H60.6074V78.8646H58.6074ZM59.6074 81.0304H76.6884V79.0304H59.6074V81.0304ZM60.6074 80.6133V80.0304H58.6074V80.6133H60.6074ZM76.6884 79.6133H59.6074V81.6133H76.6884V79.6133ZM75.6884 80.0304V80.6133H77.6884V80.0304H75.6884ZM59.6074 82.1962H76.6884V80.1962H59.6074V82.1962ZM60.6074 81.7791V81.1962H58.6074V81.7791H60.6074ZM76.6884 80.7791H59.6074V82.7791H76.6884V80.7791ZM75.6884 81.1962V81.7791H77.6884V81.1962H75.6884Z" fill="#979797" mask="url(#path-28-inside-7)"/>
<mask id="mask3" mask-type="alpha" maskUnits="userSpaceOnUse" x="59" y="77" width="18" height="5">
<mask id="path-30-inside-8" mask-type="luminance" fill="white">
<path fill-rule="evenodd" clip-rule="evenodd" d="M76.6884 77.6987H59.6074V78.2816H76.6884V77.6987ZM59.6074 78.8646H76.6884V79.4475H59.6074V78.8646ZM76.6884 80.0304H59.6074V80.6133H76.6884V80.0304ZM76.6884 81.1962H59.6074V81.7791H76.6884V81.1962Z"/>
</mask>
<path fill-rule="evenodd" clip-rule="evenodd" d="M76.6884 77.6987H59.6074V78.2816H76.6884V77.6987ZM59.6074 78.8646H76.6884V79.4475H59.6074V78.8646ZM76.6884 80.0304H59.6074V80.6133H76.6884V80.0304ZM76.6884 81.1962H59.6074V81.7791H76.6884V81.1962Z" fill="white"/>
<path d="M59.6074 77.6987V76.6987H58.6074V77.6987H59.6074ZM76.6884 77.6987H77.6884V76.6987H76.6884V77.6987ZM59.6074 78.2816H58.6074V79.2816H59.6074V78.2816ZM76.6884 78.2816V79.2816H77.6884V78.2816H76.6884ZM76.6884 78.8646H77.6884V77.8646H76.6884V78.8646ZM59.6074 78.8646V77.8646H58.6074V78.8646H59.6074ZM76.6884 79.4475V80.4475H77.6884V79.4475H76.6884ZM59.6074 79.4475H58.6074V80.4475H59.6074V79.4475ZM59.6074 80.0304V79.0304H58.6074V80.0304H59.6074ZM76.6884 80.0304H77.6884V79.0304H76.6884V80.0304ZM59.6074 80.6133H58.6074V81.6133H59.6074V80.6133ZM76.6884 80.6133V81.6133H77.6884V80.6133H76.6884ZM59.6074 81.1962V80.1962H58.6074V81.1962H59.6074ZM76.6884 81.1962H77.6884V80.1962H76.6884V81.1962ZM59.6074 81.7791H58.6074V82.7791H59.6074V81.7791ZM76.6884 81.7791V82.7791H77.6884V81.7791H76.6884ZM59.6074 78.6987H76.6884V76.6987H59.6074V78.6987ZM60.6074 78.2816V77.6987H58.6074V78.2816H60.6074ZM76.6884 77.2816H59.6074V79.2816H76.6884V77.2816ZM75.6884 77.6987V78.2816H77.6884V77.6987H75.6884ZM76.6884 77.8646H59.6074V79.8646H76.6884V77.8646ZM77.6884 79.4475V78.8646H75.6884V79.4475H77.6884ZM59.6074 80.4475H76.6884V78.4475H59.6074V80.4475ZM58.6074 78.8646V79.4475H60.6074V78.8646H58.6074ZM59.6074 81.0304H76.6884V79.0304H59.6074V81.0304ZM60.6074 80.6133V80.0304H58.6074V80.6133H60.6074ZM76.6884 79.6133H59.6074V81.6133H76.6884V79.6133ZM75.6884 80.0304V80.6133H77.6884V80.0304H75.6884ZM59.6074 82.1962H76.6884V80.1962H59.6074V82.1962ZM60.6074 81.7791V81.1962H58.6074V81.7791H60.6074ZM76.6884 80.7791H59.6074V82.7791H76.6884V80.7791ZM75.6884 81.1962V81.7791H77.6884V81.1962H75.6884Z" fill="white" mask="url(#path-30-inside-8)"/>
</mask>
<g mask="url(#mask3)">
<rect x="56.7606" y="76.2412" width="22.7746" height="6.99498" fill="#333333"/>
</g>
<rect x="94" y="1" width="42" height="7.86935" fill="#333333" stroke="#333333"/>
<rect x="94" y="51.1309" width="42" height="7.86935" fill="#5CB247" stroke="#333333"/>
<rect x="94" y="8.86914" width="42" height="42.2613" fill="#F9F9F9" stroke="#333333"/>
<mask id="path-36-inside-9" fill="white">
<path fill-rule="evenodd" clip-rule="evenodd" d="M123.688 14.6987H106.607V15.2816H123.688V14.6987ZM106.607 15.8646H123.688V16.4475H106.607V15.8646ZM123.688 17.0304H106.607V17.6133H123.688V17.0304ZM123.688 18.1962H106.607V18.7791H123.688V18.1962Z"/>
</mask>
<path fill-rule="evenodd" clip-rule="evenodd" d="M123.688 14.6987H106.607V15.2816H123.688V14.6987ZM106.607 15.8646H123.688V16.4475H106.607V15.8646ZM123.688 17.0304H106.607V17.6133H123.688V17.0304ZM123.688 18.1962H106.607V18.7791H123.688V18.1962Z" fill="#D8D8D8"/>
<path d="M106.607 14.6987V13.6987H105.607V14.6987H106.607ZM123.688 14.6987H124.688V13.6987H123.688V14.6987ZM106.607 15.2816H105.607V16.2816H106.607V15.2816ZM123.688 15.2816V16.2816H124.688V15.2816H123.688ZM123.688 15.8646H124.688V14.8646H123.688V15.8646ZM106.607 15.8646V14.8646H105.607V15.8646H106.607ZM123.688 16.4475V17.4475H124.688V16.4475H123.688ZM106.607 16.4475H105.607V17.4475H106.607V16.4475ZM106.607 17.0304V16.0304H105.607V17.0304H106.607ZM123.688 17.0304H124.688V16.0304H123.688V17.0304ZM106.607 17.6133H105.607V18.6133H106.607V17.6133ZM123.688 17.6133V18.6133H124.688V17.6133H123.688ZM106.607 18.1962V17.1962H105.607V18.1962H106.607ZM123.688 18.1962H124.688V17.1962H123.688V18.1962ZM106.607 18.7791H105.607V19.7791H106.607V18.7791ZM123.688 18.7791V19.7791H124.688V18.7791H123.688ZM106.607 15.6987H123.688V13.6987H106.607V15.6987ZM107.607 15.2816V14.6987H105.607V15.2816H107.607ZM123.688 14.2816H106.607V16.2816H123.688V14.2816ZM122.688 14.6987V15.2816H124.688V14.6987H122.688ZM123.688 14.8646H106.607V16.8646H123.688V14.8646ZM124.688 16.4475V15.8646H122.688V16.4475H124.688ZM106.607 17.4475H123.688V15.4475H106.607V17.4475ZM105.607 15.8646V16.4475H107.607V15.8646H105.607ZM106.607 18.0304H123.688V16.0304H106.607V18.0304ZM107.607 17.6133V17.0304H105.607V17.6133H107.607ZM123.688 16.6133H106.607V18.6133H123.688V16.6133ZM122.688 17.0304V17.6133H124.688V17.0304H122.688ZM106.607 19.1962H123.688V17.1962H106.607V19.1962ZM107.607 18.7791V18.1962H105.607V18.7791H107.607ZM123.688 17.7791H106.607V19.7791H123.688V17.7791ZM122.688 18.1962V18.7791H124.688V18.1962H122.688Z" fill="#979797" mask="url(#path-36-inside-9)"/>
<mask id="mask4" mask-type="alpha" maskUnits="userSpaceOnUse" x="106" y="14" width="18" height="5">
<mask id="path-38-inside-10" mask-type="luminance" fill="white">
<path fill-rule="evenodd" clip-rule="evenodd" d="M123.688 14.6987H106.607V15.2816H123.688V14.6987ZM106.607 15.8646H123.688V16.4475H106.607V15.8646ZM123.688 17.0304H106.607V17.6133H123.688V17.0304ZM123.688 18.1962H106.607V18.7791H123.688V18.1962Z"/>
</mask>
<path fill-rule="evenodd" clip-rule="evenodd" d="M123.688 14.6987H106.607V15.2816H123.688V14.6987ZM106.607 15.8646H123.688V16.4475H106.607V15.8646ZM123.688 17.0304H106.607V17.6133H123.688V17.0304ZM123.688 18.1962H106.607V18.7791H123.688V18.1962Z" fill="white"/>
<path d="M106.607 14.6987V13.6987H105.607V14.6987H106.607ZM123.688 14.6987H124.688V13.6987H123.688V14.6987ZM106.607 15.2816H105.607V16.2816H106.607V15.2816ZM123.688 15.2816V16.2816H124.688V15.2816H123.688ZM123.688 15.8646H124.688V14.8646H123.688V15.8646ZM106.607 15.8646V14.8646H105.607V15.8646H106.607ZM123.688 16.4475V17.4475H124.688V16.4475H123.688ZM106.607 16.4475H105.607V17.4475H106.607V16.4475ZM106.607 17.0304V16.0304H105.607V17.0304H106.607ZM123.688 17.0304H124.688V16.0304H123.688V17.0304ZM106.607 17.6133H105.607V18.6133H106.607V17.6133ZM123.688 17.6133V18.6133H124.688V17.6133H123.688ZM106.607 18.1962V17.1962H105.607V18.1962H106.607ZM123.688 18.1962H124.688V17.1962H123.688V18.1962ZM106.607 18.7791H105.607V19.7791H106.607V18.7791ZM123.688 18.7791V19.7791H124.688V18.7791H123.688ZM106.607 15.6987H123.688V13.6987H106.607V15.6987ZM107.607 15.2816V14.6987H105.607V15.2816H107.607ZM123.688 14.2816H106.607V16.2816H123.688V14.2816ZM122.688 14.6987V15.2816H124.688V14.6987H122.688ZM123.688 14.8646H106.607V16.8646H123.688V14.8646ZM124.688 16.4475V15.8646H122.688V16.4475H124.688ZM106.607 17.4475H123.688V15.4475H106.607V17.4475ZM105.607 15.8646V16.4475H107.607V15.8646H105.607ZM106.607 18.0304H123.688V16.0304H106.607V18.0304ZM107.607 17.6133V17.0304H105.607V17.6133H107.607ZM123.688 16.6133H106.607V18.6133H123.688V16.6133ZM122.688 17.0304V17.6133H124.688V17.0304H122.688ZM106.607 19.1962H123.688V17.1962H106.607V19.1962ZM107.607 18.7791V18.1962H105.607V18.7791H107.607ZM123.688 17.7791H106.607V19.7791H123.688V17.7791ZM122.688 18.1962V18.7791H124.688V18.1962H122.688Z" fill="white" mask="url(#path-38-inside-10)"/>
</mask>
<g mask="url(#mask4)">
<rect x="103.761" y="13.2412" width="22.7746" height="6.99498" fill="#333333"/>
</g>
<rect x="94" y="64" width="42" height="7.86935" fill="#333333" stroke="#333333"/>
<rect x="94" y="114.131" width="42" height="7.86935" fill="#5CB247" stroke="#333333"/>
<rect x="94" y="71.8691" width="42" height="42.2613" fill="#F9F9F9" stroke="#333333"/>
<mask id="path-44-inside-11" fill="white">
<path fill-rule="evenodd" clip-rule="evenodd" d="M123.688 77.6987H106.607V78.2816H123.688V77.6987ZM106.607 78.8646H123.688V79.4475H106.607V78.8646ZM123.688 80.0304H106.607V80.6133H123.688V80.0304ZM123.688 81.1962H106.607V81.7791H123.688V81.1962Z"/>
</mask>
<path fill-rule="evenodd" clip-rule="evenodd" d="M123.688 77.6987H106.607V78.2816H123.688V77.6987ZM106.607 78.8646H123.688V79.4475H106.607V78.8646ZM123.688 80.0304H106.607V80.6133H123.688V80.0304ZM123.688 81.1962H106.607V81.7791H123.688V81.1962Z" fill="#D8D8D8"/>
<path d="M106.607 77.6987V76.6987H105.607V77.6987H106.607ZM123.688 77.6987H124.688V76.6987H123.688V77.6987ZM106.607 78.2816H105.607V79.2816H106.607V78.2816ZM123.688 78.2816V79.2816H124.688V78.2816H123.688ZM123.688 78.8646H124.688V77.8646H123.688V78.8646ZM106.607 78.8646V77.8646H105.607V78.8646H106.607ZM123.688 79.4475V80.4475H124.688V79.4475H123.688ZM106.607 79.4475H105.607V80.4475H106.607V79.4475ZM106.607 80.0304V79.0304H105.607V80.0304H106.607ZM123.688 80.0304H124.688V79.0304H123.688V80.0304ZM106.607 80.6133H105.607V81.6133H106.607V80.6133ZM123.688 80.6133V81.6133H124.688V80.6133H123.688ZM106.607 81.1962V80.1962H105.607V81.1962H106.607ZM123.688 81.1962H124.688V80.1962H123.688V81.1962ZM106.607 81.7791H105.607V82.7791H106.607V81.7791ZM123.688 81.7791V82.7791H124.688V81.7791H123.688ZM106.607 78.6987H123.688V76.6987H106.607V78.6987ZM107.607 78.2816V77.6987H105.607V78.2816H107.607ZM123.688 77.2816H106.607V79.2816H123.688V77.2816ZM122.688 77.6987V78.2816H124.688V77.6987H122.688ZM123.688 77.8646H106.607V79.8646H123.688V77.8646ZM124.688 79.4475V78.8646H122.688V79.4475H124.688ZM106.607 80.4475H123.688V78.4475H106.607V80.4475ZM105.607 78.8646V79.4475H107.607V78.8646H105.607ZM106.607 81.0304H123.688V79.0304H106.607V81.0304ZM107.607 80.6133V80.0304H105.607V80.6133H107.607ZM123.688 79.6133H106.607V81.6133H123.688V79.6133ZM122.688 80.0304V80.6133H124.688V80.0304H122.688ZM106.607 82.1962H123.688V80.1962H106.607V82.1962ZM107.607 81.7791V81.1962H105.607V81.7791H107.607ZM123.688 80.7791H106.607V82.7791H123.688V80.7791ZM122.688 81.1962V81.7791H124.688V81.1962H122.688Z" fill="#979797" mask="url(#path-44-inside-11)"/>
<mask id="mask5" mask-type="alpha" maskUnits="userSpaceOnUse" x="106" y="77" width="18" height="5">
<mask id="path-46-inside-12" mask-type="luminance" fill="white">
<path fill-rule="evenodd" clip-rule="evenodd" d="M123.688 77.6987H106.607V78.2816H123.688V77.6987ZM106.607 78.8646H123.688V79.4475H106.607V78.8646ZM123.688 80.0304H106.607V80.6133H123.688V80.0304ZM123.688 81.1962H106.607V81.7791H123.688V81.1962Z"/>
</mask>
<path fill-rule="evenodd" clip-rule="evenodd" d="M123.688 77.6987H106.607V78.2816H123.688V77.6987ZM106.607 78.8646H123.688V79.4475H106.607V78.8646ZM123.688 80.0304H106.607V80.6133H123.688V80.0304ZM123.688 81.1962H106.607V81.7791H123.688V81.1962Z" fill="white"/>
<path d="M106.607 77.6987V76.6987H105.607V77.6987H106.607ZM123.688 77.6987H124.688V76.6987H123.688V77.6987ZM106.607 78.2816H105.607V79.2816H106.607V78.2816ZM123.688 78.2816V79.2816H124.688V78.2816H123.688ZM123.688 78.8646H124.688V77.8646H123.688V78.8646ZM106.607 78.8646V77.8646H105.607V78.8646H106.607ZM123.688 79.4475V80.4475H124.688V79.4475H123.688ZM106.607 79.4475H105.607V80.4475H106.607V79.4475ZM106.607 80.0304V79.0304H105.607V80.0304H106.607ZM123.688 80.0304H124.688V79.0304H123.688V80.0304ZM106.607 80.6133H105.607V81.6133H106.607V80.6133ZM123.688 80.6133V81.6133H124.688V80.6133H123.688ZM106.607 81.1962V80.1962H105.607V81.1962H106.607ZM123.688 81.1962H124.688V80.1962H123.688V81.1962ZM106.607 81.7791H105.607V82.7791H106.607V81.7791ZM123.688 81.7791V82.7791H124.688V81.7791H123.688ZM106.607 78.6987H123.688V76.6987H106.607V78.6987ZM107.607 78.2816V77.6987H105.607V78.2816H107.607ZM123.688 77.2816H106.607V79.2816H123.688V77.2816ZM122.688 77.6987V78.2816H124.688V77.6987H122.688ZM123.688 77.8646H106.607V79.8646H123.688V77.8646ZM124.688 79.4475V78.8646H122.688V79.4475H124.688ZM106.607 80.4475H123.688V78.4475H106.607V80.4475ZM105.607 78.8646V79.4475H107.607V78.8646H105.607ZM106.607 81.0304H123.688V79.0304H106.607V81.0304ZM107.607 80.6133V80.0304H105.607V80.6133H107.607ZM123.688 79.6133H106.607V81.6133H123.688V79.6133ZM122.688 80.0304V80.6133H124.688V80.0304H122.688ZM106.607 82.1962H123.688V80.1962H106.607V82.1962ZM107.607 81.7791V81.1962H105.607V81.7791H107.607ZM123.688 80.7791H106.607V82.7791H123.688V80.7791ZM122.688 81.1962V81.7791H124.688V81.1962H122.688Z" fill="white" mask="url(#path-46-inside-12)"/>
</mask>
<g mask="url(#mask5)">
<rect x="103.761" y="76.2412" width="22.7746" height="6.99498" fill="#333333"/>
</g>
<rect x="140" y="1" width="42" height="7.86935" fill="#333333" stroke="#333333"/>
<rect x="140" y="51.1309" width="42" height="7.86935" fill="#5CB247" stroke="#333333"/>
<rect x="140" y="8.86914" width="42" height="42.2613" fill="#F9F9F9" stroke="#333333"/>
<mask id="path-52-inside-13" fill="white">
<path fill-rule="evenodd" clip-rule="evenodd" d="M169.688 14.6987H152.607V15.2816H169.688V14.6987ZM152.607 15.8646H169.688V16.4475H152.607V15.8646ZM169.688 17.0304H152.607V17.6133H169.688V17.0304ZM169.688 18.1962H152.607V18.7791H169.688V18.1962Z"/>
</mask>
<path fill-rule="evenodd" clip-rule="evenodd" d="M169.688 14.6987H152.607V15.2816H169.688V14.6987ZM152.607 15.8646H169.688V16.4475H152.607V15.8646ZM169.688 17.0304H152.607V17.6133H169.688V17.0304ZM169.688 18.1962H152.607V18.7791H169.688V18.1962Z" fill="#D8D8D8"/>
<path d="M152.607 14.6987V13.6987H151.607V14.6987H152.607ZM169.688 14.6987H170.688V13.6987H169.688V14.6987ZM152.607 15.2816H151.607V16.2816H152.607V15.2816ZM169.688 15.2816V16.2816H170.688V15.2816H169.688ZM169.688 15.8646H170.688V14.8646H169.688V15.8646ZM152.607 15.8646V14.8646H151.607V15.8646H152.607ZM169.688 16.4475V17.4475H170.688V16.4475H169.688ZM152.607 16.4475H151.607V17.4475H152.607V16.4475ZM152.607 17.0304V16.0304H151.607V17.0304H152.607ZM169.688 17.0304H170.688V16.0304H169.688V17.0304ZM152.607 17.6133H151.607V18.6133H152.607V17.6133ZM169.688 17.6133V18.6133H170.688V17.6133H169.688ZM152.607 18.1962V17.1962H151.607V18.1962H152.607ZM169.688 18.1962H170.688V17.1962H169.688V18.1962ZM152.607 18.7791H151.607V19.7791H152.607V18.7791ZM169.688 18.7791V19.7791H170.688V18.7791H169.688ZM152.607 15.6987H169.688V13.6987H152.607V15.6987ZM153.607 15.2816V14.6987H151.607V15.2816H153.607ZM169.688 14.2816H152.607V16.2816H169.688V14.2816ZM168.688 14.6987V15.2816H170.688V14.6987H168.688ZM169.688 14.8646H152.607V16.8646H169.688V14.8646ZM170.688 16.4475V15.8646H168.688V16.4475H170.688ZM152.607 17.4475H169.688V15.4475H152.607V17.4475ZM151.607 15.8646V16.4475H153.607V15.8646H151.607ZM152.607 18.0304H169.688V16.0304H152.607V18.0304ZM153.607 17.6133V17.0304H151.607V17.6133H153.607ZM169.688 16.6133H152.607V18.6133H169.688V16.6133ZM168.688 17.0304V17.6133H170.688V17.0304H168.688ZM152.607 19.1962H169.688V17.1962H152.607V19.1962ZM153.607 18.7791V18.1962H151.607V18.7791H153.607ZM169.688 17.7791H152.607V19.7791H169.688V17.7791ZM168.688 18.1962V18.7791H170.688V18.1962H168.688Z" fill="#979797" mask="url(#path-52-inside-13)"/>
<mask id="mask6" mask-type="alpha" maskUnits="userSpaceOnUse" x="152" y="14" width="18" height="5">
<mask id="path-54-inside-14" mask-type="luminance" fill="white">
<path fill-rule="evenodd" clip-rule="evenodd" d="M169.688 14.6987H152.607V15.2816H169.688V14.6987ZM152.607 15.8646H169.688V16.4475H152.607V15.8646ZM169.688 17.0304H152.607V17.6133H169.688V17.0304ZM169.688 18.1962H152.607V18.7791H169.688V18.1962Z"/>
</mask>
<path fill-rule="evenodd" clip-rule="evenodd" d="M169.688 14.6987H152.607V15.2816H169.688V14.6987ZM152.607 15.8646H169.688V16.4475H152.607V15.8646ZM169.688 17.0304H152.607V17.6133H169.688V17.0304ZM169.688 18.1962H152.607V18.7791H169.688V18.1962Z" fill="white"/>
<path d="M152.607 14.6987V13.6987H151.607V14.6987H152.607ZM169.688 14.6987H170.688V13.6987H169.688V14.6987ZM152.607 15.2816H151.607V16.2816H152.607V15.2816ZM169.688 15.2816V16.2816H170.688V15.2816H169.688ZM169.688 15.8646H170.688V14.8646H169.688V15.8646ZM152.607 15.8646V14.8646H151.607V15.8646H152.607ZM169.688 16.4475V17.4475H170.688V16.4475H169.688ZM152.607 16.4475H151.607V17.4475H152.607V16.4475ZM152.607 17.0304V16.0304H151.607V17.0304H152.607ZM169.688 17.0304H170.688V16.0304H169.688V17.0304ZM152.607 17.6133H151.607V18.6133H152.607V17.6133ZM169.688 17.6133V18.6133H170.688V17.6133H169.688ZM152.607 18.1962V17.1962H151.607V18.1962H152.607ZM169.688 18.1962H170.688V17.1962H169.688V18.1962ZM152.607 18.7791H151.607V19.7791H152.607V18.7791ZM169.688 18.7791V19.7791H170.688V18.7791H169.688ZM152.607 15.6987H169.688V13.6987H152.607V15.6987ZM153.607 15.2816V14.6987H151.607V15.2816H153.607ZM169.688 14.2816H152.607V16.2816H169.688V14.2816ZM168.688 14.6987V15.2816H170.688V14.6987H168.688ZM169.688 14.8646H152.607V16.8646H169.688V14.8646ZM170.688 16.4475V15.8646H168.688V16.4475H170.688ZM152.607 17.4475H169.688V15.4475H152.607V17.4475ZM151.607 15.8646V16.4475H153.607V15.8646H151.607ZM152.607 18.0304H169.688V16.0304H152.607V18.0304ZM153.607 17.6133V17.0304H151.607V17.6133H153.607ZM169.688 16.6133H152.607V18.6133H169.688V16.6133ZM168.688 17.0304V17.6133H170.688V17.0304H168.688ZM152.607 19.1962H169.688V17.1962H152.607V19.1962ZM153.607 18.7791V18.1962H151.607V18.7791H153.607ZM169.688 17.7791H152.607V19.7791H169.688V17.7791ZM168.688 18.1962V18.7791H170.688V18.1962H168.688Z" fill="white" mask="url(#path-54-inside-14)"/>
</mask>
<g mask="url(#mask6)">
<rect x="149.761" y="13.2412" width="22.7746" height="6.99498" fill="#333333"/>
</g>
<rect x="140" y="64" width="42" height="7.86935" fill="#333333" stroke="#333333"/>
<rect x="140" y="114.131" width="42" height="7.86935" fill="#5CB247" stroke="#333333"/>
<rect x="140" y="71.8691" width="42" height="42.2613" fill="#F9F9F9" stroke="#333333"/>
<mask id="path-60-inside-15" fill="white">
<path fill-rule="evenodd" clip-rule="evenodd" d="M169.688 77.6987H152.607V78.2816H169.688V77.6987ZM152.607 78.8646H169.688V79.4475H152.607V78.8646ZM169.688 80.0304H152.607V80.6133H169.688V80.0304ZM169.688 81.1962H152.607V81.7791H169.688V81.1962Z"/>
</mask>
<path fill-rule="evenodd" clip-rule="evenodd" d="M169.688 77.6987H152.607V78.2816H169.688V77.6987ZM152.607 78.8646H169.688V79.4475H152.607V78.8646ZM169.688 80.0304H152.607V80.6133H169.688V80.0304ZM169.688 81.1962H152.607V81.7791H169.688V81.1962Z" fill="#D8D8D8"/>
<path d="M152.607 77.6987V76.6987H151.607V77.6987H152.607ZM169.688 77.6987H170.688V76.6987H169.688V77.6987ZM152.607 78.2816H151.607V79.2816H152.607V78.2816ZM169.688 78.2816V79.2816H170.688V78.2816H169.688ZM169.688 78.8646H170.688V77.8646H169.688V78.8646ZM152.607 78.8646V77.8646H151.607V78.8646H152.607ZM169.688 79.4475V80.4475H170.688V79.4475H169.688ZM152.607 79.4475H151.607V80.4475H152.607V79.4475ZM152.607 80.0304V79.0304H151.607V80.0304H152.607ZM169.688 80.0304H170.688V79.0304H169.688V80.0304ZM152.607 80.6133H151.607V81.6133H152.607V80.6133ZM169.688 80.6133V81.6133H170.688V80.6133H169.688ZM152.607 81.1962V80.1962H151.607V81.1962H152.607ZM169.688 81.1962H170.688V80.1962H169.688V81.1962ZM152.607 81.7791H151.607V82.7791H152.607V81.7791ZM169.688 81.7791V82.7791H170.688V81.7791H169.688ZM152.607 78.6987H169.688V76.6987H152.607V78.6987ZM153.607 78.2816V77.6987H151.607V78.2816H153.607ZM169.688 77.2816H152.607V79.2816H169.688V77.2816ZM168.688 77.6987V78.2816H170.688V77.6987H168.688ZM169.688 77.8646H152.607V79.8646H169.688V77.8646ZM170.688 79.4475V78.8646H168.688V79.4475H170.688ZM152.607 80.4475H169.688V78.4475H152.607V80.4475ZM151.607 78.8646V79.4475H153.607V78.8646H151.607ZM152.607 81.0304H169.688V79.0304H152.607V81.0304ZM153.607 80.6133V80.0304H151.607V80.6133H153.607ZM169.688 79.6133H152.607V81.6133H169.688V79.6133ZM168.688 80.0304V80.6133H170.688V80.0304H168.688ZM152.607 82.1962H169.688V80.1962H152.607V82.1962ZM153.607 81.7791V81.1962H151.607V81.7791H153.607ZM169.688 80.7791H152.607V82.7791H169.688V80.7791ZM168.688 81.1962V81.7791H170.688V81.1962H168.688Z" fill="#979797" mask="url(#path-60-inside-15)"/>
<mask id="mask7" mask-type="alpha" maskUnits="userSpaceOnUse" x="152" y="77" width="18" height="5">
<mask id="path-62-inside-16" mask-type="luminance" fill="white">
<path fill-rule="evenodd" clip-rule="evenodd" d="M169.688 77.6987H152.607V78.2816H169.688V77.6987ZM152.607 78.8646H169.688V79.4475H152.607V78.8646ZM169.688 80.0304H152.607V80.6133H169.688V80.0304ZM169.688 81.1962H152.607V81.7791H169.688V81.1962Z"/>
</mask>
<path fill-rule="evenodd" clip-rule="evenodd" d="M169.688 77.6987H152.607V78.2816H169.688V77.6987ZM152.607 78.8646H169.688V79.4475H152.607V78.8646ZM169.688 80.0304H152.607V80.6133H169.688V80.0304ZM169.688 81.1962H152.607V81.7791H169.688V81.1962Z" fill="white"/>
<path d="M152.607 77.6987V76.6987H151.607V77.6987H152.607ZM169.688 77.6987H170.688V76.6987H169.688V77.6987ZM152.607 78.2816H151.607V79.2816H152.607V78.2816ZM169.688 78.2816V79.2816H170.688V78.2816H169.688ZM169.688 78.8646H170.688V77.8646H169.688V78.8646ZM152.607 78.8646V77.8646H151.607V78.8646H152.607ZM169.688 79.4475V80.4475H170.688V79.4475H169.688ZM152.607 79.4475H151.607V80.4475H152.607V79.4475ZM152.607 80.0304V79.0304H151.607V80.0304H152.607ZM169.688 80.0304H170.688V79.0304H169.688V80.0304ZM152.607 80.6133H151.607V81.6133H152.607V80.6133ZM169.688 80.6133V81.6133H170.688V80.6133H169.688ZM152.607 81.1962V80.1962H151.607V81.1962H152.607ZM169.688 81.1962H170.688V80.1962H169.688V81.1962ZM152.607 81.7791H151.607V82.7791H152.607V81.7791ZM169.688 81.7791V82.7791H170.688V81.7791H169.688ZM152.607 78.6987H169.688V76.6987H152.607V78.6987ZM153.607 78.2816V77.6987H151.607V78.2816H153.607ZM169.688 77.2816H152.607V79.2816H169.688V77.2816ZM168.688 77.6987V78.2816H170.688V77.6987H168.688ZM169.688 77.8646H152.607V79.8646H169.688V77.8646ZM170.688 79.4475V78.8646H168.688V79.4475H170.688ZM152.607 80.4475H169.688V78.4475H152.607V80.4475ZM151.607 78.8646V79.4475H153.607V78.8646H151.607ZM152.607 81.0304H169.688V79.0304H152.607V81.0304ZM153.607 80.6133V80.0304H151.607V80.6133H153.607ZM169.688 79.6133H152.607V81.6133H169.688V79.6133ZM168.688 80.0304V80.6133H170.688V80.0304H168.688ZM152.607 82.1962H169.688V80.1962H152.607V82.1962ZM153.607 81.7791V81.1962H151.607V81.7791H153.607ZM169.688 80.7791H152.607V82.7791H169.688V80.7791ZM168.688 81.1962V81.7791H170.688V81.1962H168.688Z" fill="white" mask="url(#path-62-inside-16)"/>
</mask>
<g mask="url(#mask7)">
<rect x="149.761" y="76.2412" width="22.7746" height="6.99498" fill="#333333"/>
</g>
<rect x="186" y="1" width="42" height="7.86935" fill="#333333" stroke="#333333"/>
<rect x="186" y="51.1309" width="42" height="7.86935" fill="#5CB247" stroke="#333333"/>
<rect x="186" y="8.86914" width="42" height="42.2613" fill="#F9F9F9" stroke="#333333"/>
<mask id="path-68-inside-17" fill="white">
<path fill-rule="evenodd" clip-rule="evenodd" d="M215.688 14.6987H198.607V15.2816H215.688V14.6987ZM198.607 15.8646H215.688V16.4475H198.607V15.8646ZM215.688 17.0304H198.607V17.6133H215.688V17.0304ZM215.688 18.1962H198.607V18.7791H215.688V18.1962Z"/>
</mask>
<path fill-rule="evenodd" clip-rule="evenodd" d="M215.688 14.6987H198.607V15.2816H215.688V14.6987ZM198.607 15.8646H215.688V16.4475H198.607V15.8646ZM215.688 17.0304H198.607V17.6133H215.688V17.0304ZM215.688 18.1962H198.607V18.7791H215.688V18.1962Z" fill="#D8D8D8"/>
<path d="M198.607 14.6987V13.6987H197.607V14.6987H198.607ZM215.688 14.6987H216.688V13.6987H215.688V14.6987ZM198.607 15.2816H197.607V16.2816H198.607V15.2816ZM215.688 15.2816V16.2816H216.688V15.2816H215.688ZM215.688 15.8646H216.688V14.8646H215.688V15.8646ZM198.607 15.8646V14.8646H197.607V15.8646H198.607ZM215.688 16.4475V17.4475H216.688V16.4475H215.688ZM198.607 16.4475H197.607V17.4475H198.607V16.4475ZM198.607 17.0304V16.0304H197.607V17.0304H198.607ZM215.688 17.0304H216.688V16.0304H215.688V17.0304ZM198.607 17.6133H197.607V18.6133H198.607V17.6133ZM215.688 17.6133V18.6133H216.688V17.6133H215.688ZM198.607 18.1962V17.1962H197.607V18.1962H198.607ZM215.688 18.1962H216.688V17.1962H215.688V18.1962ZM198.607 18.7791H197.607V19.7791H198.607V18.7791ZM215.688 18.7791V19.7791H216.688V18.7791H215.688ZM198.607 15.6987H215.688V13.6987H198.607V15.6987ZM199.607 15.2816V14.6987H197.607V15.2816H199.607ZM215.688 14.2816H198.607V16.2816H215.688V14.2816ZM214.688 14.6987V15.2816H216.688V14.6987H214.688ZM215.688 14.8646H198.607V16.8646H215.688V14.8646ZM216.688 16.4475V15.8646H214.688V16.4475H216.688ZM198.607 17.4475H215.688V15.4475H198.607V17.4475ZM197.607 15.8646V16.4475H199.607V15.8646H197.607ZM198.607 18.0304H215.688V16.0304H198.607V18.0304ZM199.607 17.6133V17.0304H197.607V17.6133H199.607ZM215.688 16.6133H198.607V18.6133H215.688V16.6133ZM214.688 17.0304V17.6133H216.688V17.0304H214.688ZM198.607 19.1962H215.688V17.1962H198.607V19.1962ZM199.607 18.7791V18.1962H197.607V18.7791H199.607ZM215.688 17.7791H198.607V19.7791H215.688V17.7791ZM214.688 18.1962V18.7791H216.688V18.1962H214.688Z" fill="#979797" mask="url(#path-68-inside-17)"/>
<mask id="mask8" mask-type="alpha" maskUnits="userSpaceOnUse" x="198" y="14" width="18" height="5">
<mask id="path-70-inside-18" mask-type="luminance" fill="white">
<path fill-rule="evenodd" clip-rule="evenodd" d="M215.688 14.6987H198.607V15.2816H215.688V14.6987ZM198.607 15.8646H215.688V16.4475H198.607V15.8646ZM215.688 17.0304H198.607V17.6133H215.688V17.0304ZM215.688 18.1962H198.607V18.7791H215.688V18.1962Z"/>
</mask>
<path fill-rule="evenodd" clip-rule="evenodd" d="M215.688 14.6987H198.607V15.2816H215.688V14.6987ZM198.607 15.8646H215.688V16.4475H198.607V15.8646ZM215.688 17.0304H198.607V17.6133H215.688V17.0304ZM215.688 18.1962H198.607V18.7791H215.688V18.1962Z" fill="white"/>
<path d="M198.607 14.6987V13.6987H197.607V14.6987H198.607ZM215.688 14.6987H216.688V13.6987H215.688V14.6987ZM198.607 15.2816H197.607V16.2816H198.607V15.2816ZM215.688 15.2816V16.2816H216.688V15.2816H215.688ZM215.688 15.8646H216.688V14.8646H215.688V15.8646ZM198.607 15.8646V14.8646H197.607V15.8646H198.607ZM215.688 16.4475V17.4475H216.688V16.4475H215.688ZM198.607 16.4475H197.607V17.4475H198.607V16.4475ZM198.607 17.0304V16.0304H197.607V17.0304H198.607ZM215.688 17.0304H216.688V16.0304H215.688V17.0304ZM198.607 17.6133H197.607V18.6133H198.607V17.6133ZM215.688 17.6133V18.6133H216.688V17.6133H215.688ZM198.607 18.1962V17.1962H197.607V18.1962H198.607ZM215.688 18.1962H216.688V17.1962H215.688V18.1962ZM198.607 18.7791H197.607V19.7791H198.607V18.7791ZM215.688 18.7791V19.7791H216.688V18.7791H215.688ZM198.607 15.6987H215.688V13.6987H198.607V15.6987ZM199.607 15.2816V14.6987H197.607V15.2816H199.607ZM215.688 14.2816H198.607V16.2816H215.688V14.2816ZM214.688 14.6987V15.2816H216.688V14.6987H214.688ZM215.688 14.8646H198.607V16.8646H215.688V14.8646ZM216.688 16.4475V15.8646H214.688V16.4475H216.688ZM198.607 17.4475H215.688V15.4475H198.607V17.4475ZM197.607 15.8646V16.4475H199.607V15.8646H197.607ZM198.607 18.0304H215.688V16.0304H198.607V18.0304ZM199.607 17.6133V17.0304H197.607V17.6133H199.607ZM215.688 16.6133H198.607V18.6133H215.688V16.6133ZM214.688 17.0304V17.6133H216.688V17.0304H214.688ZM198.607 19.1962H215.688V17.1962H198.607V19.1962ZM199.607 18.7791V18.1962H197.607V18.7791H199.607ZM215.688 17.7791H198.607V19.7791H215.688V17.7791ZM214.688 18.1962V18.7791H216.688V18.1962H214.688Z" fill="white" mask="url(#path-70-inside-18)"/>
</mask>
<g mask="url(#mask8)">
<rect x="195.761" y="13.2412" width="22.7746" height="6.99498" fill="#333333"/>
</g>
<rect x="186" y="64" width="42" height="7.86935" fill="#333333" stroke="#333333"/>
<rect x="186" y="114.131" width="42" height="7.86935" fill="#5CB247" stroke="#333333"/>
<rect x="186" y="71.8691" width="42" height="42.2613" fill="#F9F9F9" stroke="#333333"/>
<mask id="path-76-inside-19" fill="white">
<path fill-rule="evenodd" clip-rule="evenodd" d="M215.688 77.6987H198.607V78.2816H215.688V77.6987ZM198.607 78.8646H215.688V79.4475H198.607V78.8646ZM215.688 80.0304H198.607V80.6133H215.688V80.0304ZM215.688 81.1962H198.607V81.7791H215.688V81.1962Z"/>
</mask>
<path fill-rule="evenodd" clip-rule="evenodd" d="M215.688 77.6987H198.607V78.2816H215.688V77.6987ZM198.607 78.8646H215.688V79.4475H198.607V78.8646ZM215.688 80.0304H198.607V80.6133H215.688V80.0304ZM215.688 81.1962H198.607V81.7791H215.688V81.1962Z" fill="#D8D8D8"/>
<path d="M198.607 77.6987V76.6987H197.607V77.6987H198.607ZM215.688 77.6987H216.688V76.6987H215.688V77.6987ZM198.607 78.2816H197.607V79.2816H198.607V78.2816ZM215.688 78.2816V79.2816H216.688V78.2816H215.688ZM215.688 78.8646H216.688V77.8646H215.688V78.8646ZM198.607 78.8646V77.8646H197.607V78.8646H198.607ZM215.688 79.4475V80.4475H216.688V79.4475H215.688ZM198.607 79.4475H197.607V80.4475H198.607V79.4475ZM198.607 80.0304V79.0304H197.607V80.0304H198.607ZM215.688 80.0304H216.688V79.0304H215.688V80.0304ZM198.607 80.6133H197.607V81.6133H198.607V80.6133ZM215.688 80.6133V81.6133H216.688V80.6133H215.688ZM198.607 81.1962V80.1962H197.607V81.1962H198.607ZM215.688 81.1962H216.688V80.1962H215.688V81.1962ZM198.607 81.7791H197.607V82.7791H198.607V81.7791ZM215.688 81.7791V82.7791H216.688V81.7791H215.688ZM198.607 78.6987H215.688V76.6987H198.607V78.6987ZM199.607 78.2816V77.6987H197.607V78.2816H199.607ZM215.688 77.2816H198.607V79.2816H215.688V77.2816ZM214.688 77.6987V78.2816H216.688V77.6987H214.688ZM215.688 77.8646H198.607V79.8646H215.688V77.8646ZM216.688 79.4475V78.8646H214.688V79.4475H216.688ZM198.607 80.4475H215.688V78.4475H198.607V80.4475ZM197.607 78.8646V79.4475H199.607V78.8646H197.607ZM198.607 81.0304H215.688V79.0304H198.607V81.0304ZM199.607 80.6133V80.0304H197.607V80.6133H199.607ZM215.688 79.6133H198.607V81.6133H215.688V79.6133ZM214.688 80.0304V80.6133H216.688V80.0304H214.688ZM198.607 82.1962H215.688V80.1962H198.607V82.1962ZM199.607 81.7791V81.1962H197.607V81.7791H199.607ZM215.688 80.7791H198.607V82.7791H215.688V80.7791ZM214.688 81.1962V81.7791H216.688V81.1962H214.688Z" fill="#979797" mask="url(#path-76-inside-19)"/>
<mask id="mask9" mask-type="alpha" maskUnits="userSpaceOnUse" x="198" y="77" width="18" height="5">
<mask id="path-78-inside-20" mask-type="luminance" fill="white">
<path fill-rule="evenodd" clip-rule="evenodd" d="M215.688 77.6987H198.607V78.2816H215.688V77.6987ZM198.607 78.8646H215.688V79.4475H198.607V78.8646ZM215.688 80.0304H198.607V80.6133H215.688V80.0304ZM215.688 81.1962H198.607V81.7791H215.688V81.1962Z"/>
</mask>
<path fill-rule="evenodd" clip-rule="evenodd" d="M215.688 77.6987H198.607V78.2816H215.688V77.6987ZM198.607 78.8646H215.688V79.4475H198.607V78.8646ZM215.688 80.0304H198.607V80.6133H215.688V80.0304ZM215.688 81.1962H198.607V81.7791H215.688V81.1962Z" fill="white"/>
<path d="M198.607 77.6987V76.6987H197.607V77.6987H198.607ZM215.688 77.6987H216.688V76.6987H215.688V77.6987ZM198.607 78.2816H197.607V79.2816H198.607V78.2816ZM215.688 78.2816V79.2816H216.688V78.2816H215.688ZM215.688 78.8646H216.688V77.8646H215.688V78.8646ZM198.607 78.8646V77.8646H197.607V78.8646H198.607ZM215.688 79.4475V80.4475H216.688V79.4475H215.688ZM198.607 79.4475H197.607V80.4475H198.607V79.4475ZM198.607 80.0304V79.0304H197.607V80.0304H198.607ZM215.688 80.0304H216.688V79.0304H215.688V80.0304ZM198.607 80.6133H197.607V81.6133H198.607V80.6133ZM215.688 80.6133V81.6133H216.688V80.6133H215.688ZM198.607 81.1962V80.1962H197.607V81.1962H198.607ZM215.688 81.1962H216.688V80.1962H215.688V81.1962ZM198.607 81.7791H197.607V82.7791H198.607V81.7791ZM215.688 81.7791V82.7791H216.688V81.7791H215.688ZM198.607 78.6987H215.688V76.6987H198.607V78.6987ZM199.607 78.2816V77.6987H197.607V78.2816H199.607ZM215.688 77.2816H198.607V79.2816H215.688V77.2816ZM214.688 77.6987V78.2816H216.688V77.6987H214.688ZM215.688 77.8646H198.607V79.8646H215.688V77.8646ZM216.688 79.4475V78.8646H214.688V79.4475H216.688ZM198.607 80.4475H215.688V78.4475H198.607V80.4475ZM197.607 78.8646V79.4475H199.607V78.8646H197.607ZM198.607 81.0304H215.688V79.0304H198.607V81.0304ZM199.607 80.6133V80.0304H197.607V80.6133H199.607ZM215.688 79.6133H198.607V81.6133H215.688V79.6133ZM214.688 80.0304V80.6133H216.688V80.0304H214.688ZM198.607 82.1962H215.688V80.1962H198.607V82.1962ZM199.607 81.7791V81.1962H197.607V81.7791H199.607ZM215.688 80.7791H198.607V82.7791H215.688V80.7791ZM214.688 81.1962V81.7791H216.688V81.1962H214.688Z" fill="white" mask="url(#path-78-inside-20)"/>
</mask>
<g mask="url(#mask9)">
<rect x="195.761" y="76.2412" width="22.7746" height="6.99498" fill="#333333"/>
</g>
</svg>
