<svg width="185" height="112" viewBox="0 0 185 112" fill="none" xmlns="http://www.w3.org/2000/svg">
<rect width="185" height="112" fill="white"/>
<path d="M16.9209 97.2832C16.9209 98.2266 16.7705 99.0446 16.4697 99.7373C16.1735 100.425 15.7565 100.972 15.2188 101.378L16.9277 102.711L15.8066 103.723L13.6875 102.048C13.4095 102.107 13.111 102.137 12.792 102.137C11.9899 102.137 11.2721 101.941 10.6387 101.549C10.0098 101.152 9.52214 100.59 9.17578 99.8604C8.83398 99.1312 8.66081 98.2904 8.65625 97.3379V96.7773C8.65625 95.8066 8.82715 94.9499 9.16895 94.207C9.5153 93.4642 10.0007 92.8968 10.625 92.5049C11.2539 92.1084 11.9717 91.9102 12.7783 91.9102C13.5986 91.9102 14.321 92.1061 14.9453 92.498C15.5742 92.8854 16.0596 93.446 16.4014 94.1797C16.7432 94.9089 16.9163 95.7588 16.9209 96.7295V97.2832ZM15.1846 96.7637C15.1846 95.6426 14.9749 94.7926 14.5557 94.2139C14.1364 93.6351 13.5439 93.3457 12.7783 93.3457C12.0355 93.3457 11.4521 93.6396 11.0283 94.2275C10.609 94.8109 10.3949 95.6357 10.3857 96.7021V97.2832C10.3857 98.3587 10.5954 99.1995 11.0146 99.8057C11.4385 100.412 12.0309 100.715 12.792 100.715C13.5622 100.715 14.1523 100.423 14.5625 99.8398C14.9772 99.2565 15.1846 98.4043 15.1846 97.2832V96.7637ZM22.998 101.275C22.5104 101.85 21.8177 102.137 20.9199 102.137C20.1178 102.137 19.5094 101.902 19.0947 101.433C18.6846 100.963 18.4795 100.284 18.4795 99.3955V94.6035H20.1406V99.375C20.1406 100.314 20.5303 100.783 21.3096 100.783C22.1162 100.783 22.6608 100.494 22.9434 99.915V94.6035H24.6045V102H23.0391L22.998 101.275ZM25.9854 98.2334C25.9854 97.5088 26.1289 96.8571 26.416 96.2783C26.7031 95.695 27.1064 95.2484 27.626 94.9385C28.1455 94.624 28.7425 94.4668 29.417 94.4668C30.415 94.4668 31.224 94.7881 31.8438 95.4307C32.4681 96.0732 32.8053 96.9255 32.8555 97.9873L32.8623 98.377C32.8623 99.1061 32.721 99.7578 32.4385 100.332C32.1605 100.906 31.7594 101.351 31.2354 101.665C30.7158 101.979 30.1143 102.137 29.4307 102.137C28.387 102.137 27.5508 101.79 26.9219 101.098C26.2975 100.4 25.9854 99.473 25.9854 98.3154V98.2334ZM27.6465 98.377C27.6465 99.138 27.8037 99.735 28.1182 100.168C28.4326 100.596 28.8701 100.811 29.4307 100.811C29.9912 100.811 30.4264 100.592 30.7363 100.154C31.0508 99.7168 31.208 99.0765 31.208 98.2334C31.208 97.486 31.0462 96.8936 30.7227 96.4561C30.4036 96.0186 29.9684 95.7998 29.417 95.7998C28.8747 95.7998 28.444 96.0163 28.125 96.4492C27.806 96.8776 27.6465 97.5202 27.6465 98.377ZM36.3486 92.8057V94.6035H37.6543V95.834H36.3486V99.9629C36.3486 100.245 36.4033 100.451 36.5127 100.578C36.6266 100.701 36.8271 100.763 37.1143 100.763C37.3057 100.763 37.4993 100.74 37.6953 100.694V101.979C37.3171 102.084 36.9525 102.137 36.6016 102.137C35.3255 102.137 34.6875 101.433 34.6875 100.024V95.834H33.4707V94.6035H34.6875V92.8057H36.3486ZM42.1865 102.137C41.1338 102.137 40.2793 101.806 39.623 101.146C38.9714 100.48 38.6455 99.596 38.6455 98.4932V98.2881C38.6455 97.5498 38.7868 96.8913 39.0693 96.3125C39.3564 95.7292 39.7575 95.2757 40.2725 94.9521C40.7874 94.6286 41.3617 94.4668 41.9951 94.4668C43.0023 94.4668 43.7793 94.7881 44.3262 95.4307C44.8776 96.0732 45.1533 96.9824 45.1533 98.1582V98.8281H40.3203C40.3704 99.4388 40.5732 99.9219 40.9287 100.277C41.2887 100.633 41.7399 100.811 42.2822 100.811C43.0433 100.811 43.6631 100.503 44.1416 99.8877L45.0371 100.742C44.7409 101.184 44.3444 101.528 43.8477 101.774C43.3555 102.016 42.8018 102.137 42.1865 102.137ZM41.9883 95.7998C41.5326 95.7998 41.1634 95.9593 40.8809 96.2783C40.6029 96.5973 40.4251 97.0417 40.3477 97.6113H43.5127V97.4883C43.4762 96.9323 43.3281 96.513 43.0684 96.2305C42.8086 95.9434 42.4486 95.7998 41.9883 95.7998ZM50.5947 99.9902C50.5947 99.694 50.4717 99.4684 50.2256 99.3135C49.984 99.1585 49.5807 99.0218 49.0156 98.9033C48.4505 98.7848 47.9788 98.6344 47.6006 98.4521C46.7712 98.0511 46.3564 97.4701 46.3564 96.709C46.3564 96.071 46.6253 95.5378 47.1631 95.1094C47.7008 94.681 48.3844 94.4668 49.2139 94.4668C50.098 94.4668 50.8112 94.6855 51.3535 95.123C51.9004 95.5605 52.1738 96.1279 52.1738 96.8252H50.5127C50.5127 96.5062 50.3942 96.2419 50.1572 96.0322C49.9202 95.818 49.6058 95.7109 49.2139 95.7109C48.8493 95.7109 48.5508 95.7952 48.3184 95.9639C48.0905 96.1325 47.9766 96.3581 47.9766 96.6406C47.9766 96.8958 48.0837 97.0941 48.2979 97.2354C48.512 97.3766 48.945 97.5202 49.5967 97.666C50.2484 97.8073 50.7588 97.9782 51.1279 98.1787C51.5016 98.3747 51.7773 98.6117 51.9551 98.8896C52.1374 99.1676 52.2285 99.5049 52.2285 99.9014C52.2285 100.567 51.9528 101.107 51.4014 101.521C50.8499 101.932 50.1276 102.137 49.2344 102.137C48.6283 102.137 48.0882 102.027 47.6143 101.809C47.1403 101.59 46.7712 101.289 46.5068 100.906C46.2425 100.523 46.1104 100.111 46.1104 99.6689H47.7236C47.7464 100.061 47.8945 100.364 48.168 100.578C48.4414 100.788 48.8037 100.893 49.2549 100.893C49.6924 100.893 50.0251 100.811 50.2529 100.646C50.4808 100.478 50.5947 100.259 50.5947 99.9902ZM61.3135 99.9902C61.3135 99.694 61.1904 99.4684 60.9443 99.3135C60.7028 99.1585 60.2995 99.0218 59.7344 98.9033C59.1693 98.7848 58.6976 98.6344 58.3193 98.4521C57.4899 98.0511 57.0752 97.4701 57.0752 96.709C57.0752 96.071 57.3441 95.5378 57.8818 95.1094C58.4196 94.681 59.1032 94.4668 59.9326 94.4668C60.8167 94.4668 61.5299 94.6855 62.0723 95.123C62.6191 95.5605 62.8926 96.1279 62.8926 96.8252H61.2314C61.2314 96.5062 61.113 96.2419 60.876 96.0322C60.639 95.818 60.3245 95.7109 59.9326 95.7109C59.568 95.7109 59.2695 95.7952 59.0371 95.9639C58.8092 96.1325 58.6953 96.3581 58.6953 96.6406C58.6953 96.8958 58.8024 97.0941 59.0166 97.2354C59.2308 97.3766 59.6637 97.5202 60.3154 97.666C60.9671 97.8073 61.4775 97.9782 61.8467 98.1787C62.2204 98.3747 62.4961 98.6117 62.6738 98.8896C62.8561 99.1676 62.9473 99.5049 62.9473 99.9014C62.9473 100.567 62.6715 101.107 62.1201 101.521C61.5687 101.932 60.8464 102.137 59.9531 102.137C59.347 102.137 58.807 102.027 58.333 101.809C57.859 101.59 57.4899 101.289 57.2256 100.906C56.9613 100.523 56.8291 100.111 56.8291 99.6689H58.4424C58.4652 100.061 58.6133 100.364 58.8867 100.578C59.1602 100.788 59.5225 100.893 59.9736 100.893C60.4111 100.893 60.7438 100.811 60.9717 100.646C61.1995 100.478 61.3135 100.259 61.3135 99.9902ZM66.167 102H64.5059V91.5H66.167V102ZM69.749 102H68.0879V94.6035H69.749V102ZM67.9854 92.6826C67.9854 92.4274 68.0651 92.2155 68.2246 92.0469C68.3887 91.8783 68.6211 91.7939 68.9219 91.7939C69.2227 91.7939 69.4551 91.8783 69.6191 92.0469C69.7832 92.2155 69.8652 92.4274 69.8652 92.6826C69.8652 92.9333 69.7832 93.1429 69.6191 93.3115C69.4551 93.4756 69.2227 93.5576 68.9219 93.5576C68.6211 93.5576 68.3887 93.4756 68.2246 93.3115C68.0651 93.1429 67.9854 92.9333 67.9854 92.6826ZM71.2529 98.2471C71.2529 97.1077 71.5173 96.194 72.0459 95.5059C72.5745 94.8132 73.2832 94.4668 74.1719 94.4668C74.9557 94.4668 75.5892 94.7402 76.0723 95.2871V91.5H77.7334V102H76.2295L76.1475 101.234C75.6507 101.836 74.9876 102.137 74.1582 102.137C73.2923 102.137 72.5905 101.788 72.0527 101.091C71.5195 100.394 71.2529 99.4456 71.2529 98.2471ZM72.9141 98.3906C72.9141 99.1426 73.0576 99.7305 73.3447 100.154C73.6364 100.574 74.0488 100.783 74.582 100.783C75.2611 100.783 75.7578 100.48 76.0723 99.874V96.7158C75.7669 96.1234 75.2747 95.8271 74.5957 95.8271C74.0579 95.8271 73.6432 96.0413 73.3516 96.4697C73.0599 96.8936 72.9141 97.5339 72.9141 98.3906ZM82.7236 102.137C81.6709 102.137 80.8164 101.806 80.1602 101.146C79.5085 100.48 79.1826 99.596 79.1826 98.4932V98.2881C79.1826 97.5498 79.3239 96.8913 79.6064 96.3125C79.8936 95.7292 80.2946 95.2757 80.8096 94.9521C81.3245 94.6286 81.8988 94.4668 82.5322 94.4668C83.5394 94.4668 84.3164 94.7881 84.8633 95.4307C85.4147 96.0732 85.6904 96.9824 85.6904 98.1582V98.8281H80.8574C80.9076 99.4388 81.1104 99.9219 81.4658 100.277C81.8258 100.633 82.277 100.811 82.8193 100.811C83.5804 100.811 84.2002 100.503 84.6787 99.8877L85.5742 100.742C85.278 101.184 84.8815 101.528 84.3848 101.774C83.8926 102.016 83.3389 102.137 82.7236 102.137ZM82.5254 95.7998C82.0697 95.7998 81.7005 95.9593 81.418 96.2783C81.14 96.5973 80.9622 97.0417 80.8848 97.6113H84.0498V97.4883C84.0133 96.9323 83.8652 96.513 83.6055 96.2305C83.3457 95.9434 82.9857 95.7998 82.5254 95.7998Z" fill="#28292C"/>
<rect x="9" y="82" width="166" height="1" fill="#CCCCCC"/>
<rect x="23" y="27" width="43" height="3.80952" fill="#CCCCCC"/>
<rect x="23" y="33" width="40" height="4" fill="#CCCCCC"/>
<rect x="23" y="39" width="36" height="4" fill="#CCCCCC"/>
<rect x="23" y="56" width="36" height="4" fill="#CCCCCC"/>
<rect x="23" y="62.0952" width="34.1471" height="3.80952" fill="#CCCCCC"/>
<rect x="23" y="68.1905" width="43" height="3.80952" fill="#CCCCCC"/>
<rect x="100" y="27" width="37" height="4" fill="#CCCCCC"/>
<rect x="100" y="33" width="41" height="4" fill="#CCCCCC"/>
<rect x="100" y="39.1905" width="43" height="3.80952" fill="#CCCCCC"/>
<rect x="100" y="56" width="43" height="3.80952" fill="#CCCCCC"/>
<rect x="100" y="62.0952" width="34.1471" height="3.80952" fill="#CCCCCC"/>
<rect x="100" y="68" width="39" height="4" fill="#CCCCCC"/>
</svg>
