<?xml version="1.0" encoding="UTF-8"?>
<svg width="140px" height="140px" viewBox="0 0 140 140" version="1.1" xmlns="http://www.w3.org/2000/svg" xmlns:xlink="http://www.w3.org/1999/xlink">
    <!-- Generator: Sketch 57.1 (83088) - https://sketch.com -->
    <title>Icons / 50px / Search  </title>
    <desc>Created with Sketch.</desc>
    <defs>
        <path d="M80.5,85.09375 L85.0963557,80.5 L105,100.40625 L100.406851,105 L80.5,85.09375 Z M64.75,35 C81.1804713,35 94.5,48.3195287 94.5,64.75 C94.5,81.1804713 81.1804713,94.5 64.75,94.5 C48.3195287,94.5 35,81.1804713 35,64.75 C35,48.3195287 48.3195287,35 64.75,35 Z M64.3125,41.125 C51.5063974,41.125 41.125,51.5063974 41.125,64.3125 C41.125,77.1186026 51.5063974,87.5 64.3125,87.5 C77.1186026,87.5 87.5,77.1186026 87.5,64.3125 C87.5,51.5063974 77.1186026,41.125 64.3125,41.125 Z" id="path-1"></path>
    </defs>
    <g id="Icons-/-50px-/-Search--" stroke="none" stroke-width="1" fill="none" fill-rule="evenodd">
        <mask id="mask-2" fill="white">
            <use xlink:href="#path-1"></use>
        </mask>
        <use id="Combined-Shape" fill="#FFFFFF" fill-rule="nonzero" xlink:href="#path-1"></use>
        <g id="Colors-/-Green" mask="url(#mask-2)" fill="#4b4b4b">
            <g transform="translate(0.000000, -1.794872)" id="Rectangle-3">
                <rect x="0" y="0" width="140" height="144"></rect>
            </g>
        </g>
    </g>
</svg>