<svg width="25" height="25" viewBox="0 0 25 25" fill="none" xmlns="http://www.w3.org/2000/svg">
<path fill-rule="evenodd" clip-rule="evenodd" d="M15.21 14.5H16L20.99 19.5L19.5 20.99L14.5 16V15.21L14.23 14.93C13.09 15.91 11.61 16.5 10 16.5C6.41 16.5 3.5 13.59 3.5 10C3.5 6.41 6.41 3.5 10 3.5C13.59 3.5 16.5 6.41 16.5 10C16.5 11.61 15.91 13.09 14.93 14.23L15.21 14.5ZM5.5 10C5.5 12.49 7.51 14.5 10 14.5C12.49 14.5 14.5 12.49 14.5 10C14.5 7.51 12.49 5.5 10 5.5C7.51 5.5 5.5 7.51 5.5 10Z" fill="black"/>
<mask id="mask0" mask-type="alpha" maskUnits="userSpaceOnUse" x="3" y="3" width="18" height="18">
<path fill-rule="evenodd" clip-rule="evenodd" d="M15.21 14.5H16L20.99 19.5L19.5 20.99L14.5 16V15.21L14.23 14.93C13.09 15.91 11.61 16.5 10 16.5C6.41 16.5 3.5 13.59 3.5 10C3.5 6.41 6.41 3.5 10 3.5C13.59 3.5 16.5 6.41 16.5 10C16.5 11.61 15.91 13.09 14.93 14.23L15.21 14.5ZM5.5 10C5.5 12.49 7.51 14.5 10 14.5C12.49 14.5 14.5 12.49 14.5 10C14.5 7.51 12.49 5.5 10 5.5C7.51 5.5 5.5 7.51 5.5 10Z" fill="white"/>
</mask>
<g mask="url(#mask0)">
<rect x="0.5" y="0.5" width="24" height="24" fill="#ffffff"/>
</g>
</svg>
