<?xml version="1.0" encoding="UTF-8"?>
<svg width="19px" height="18px" viewBox="0 0 19 18" version="1.1" xmlns="http://www.w3.org/2000/svg" xmlns:xlink="http://www.w3.org/1999/xlink">
    <!-- Generator: sketchtool 57.1 (101010) - https://sketch.com -->
    <title>2501D483-55A2-45E5-899B-3DBFE321F6DA</title>
    <desc>Created with sketchtool.</desc>
    <defs>
        <path d="M8.99999982,4.5 C11.8424997,4.5 14.3774996,6.0975 15.6149996,8.625 C14.3774996,11.1525 11.8424997,12.75 8.99999982,12.75 C6.15749992,12.75 3.62250001,11.1525 2.38500005,8.625 C3.62250001,6.0975 6.15749992,4.5 8.99999982,4.5 L8.99999982,4.5 Z M9,3 C5.25,3 2.0475,5.3325 0.75,8.625 C2.0475,11.9175 5.25,14.25 9,14.25 C12.75,14.25 15.9525,11.9175 17.25,8.625 C15.9525,5.3325 12.75,3 9,3 Z M9,6.75 C10.035,6.75 10.875,7.59 10.875,8.625 C10.875,9.66 10.035,10.5 9,10.5 C7.965,10.5 7.125,9.66 7.125,8.625 C7.125,7.59 7.965,6.75 9,6.75 L9,6.75 Z M9,5.25 C7.14,5.25 5.625,6.765 5.625,8.625 C5.625,10.485 7.14,12 9,12 C10.86,12 12.375,10.485 12.375,8.625 C12.375,6.765 10.86,5.25 9,5.25 Z" id="path-1"></path>
    </defs>
    <g id="Asset-Artboard-Page" stroke="none" stroke-width="1" fill="none" fill-rule="evenodd">
        <g id="Icons-/-Tick-V-mark" transform="translate(0.353179, 0.000000)">
            <mask id="mask-2" fill="white">
                <use xlink:href="#path-1"></use>
            </mask>
            <use id="Shape" fill="#000000" fill-rule="nonzero" xlink:href="#path-1"></use>
            <g id="Colors-/-New-Green-1" mask="url(#mask-2)" fill="#5cb247">
                <rect id="Rectangle-3" x="0" y="0" width="18" height="18"></rect>
            </g>
        </g>
    </g>
</svg>