<svg width="185" height="112" viewBox="0 0 185 112" fill="none" xmlns="http://www.w3.org/2000/svg">
<rect width="185" height="112" fill="white"/>
<path d="M14.2139 99.4365C14.2139 98.999 14.0589 98.6618 13.749 98.4248C13.4437 98.1878 12.89 97.9486 12.0879 97.707C11.2858 97.4655 10.6478 97.1966 10.1738 96.9004C9.26693 96.3307 8.81348 95.5879 8.81348 94.6719C8.81348 93.8698 9.13932 93.209 9.79102 92.6895C10.4473 92.1699 11.2972 91.9102 12.3408 91.9102C13.0335 91.9102 13.651 92.0378 14.1934 92.293C14.7357 92.5482 15.1618 92.9128 15.4717 93.3867C15.7816 93.8561 15.9365 94.3779 15.9365 94.9521H14.2139C14.2139 94.4326 14.0498 94.027 13.7217 93.7354C13.3981 93.4391 12.9333 93.291 12.3271 93.291C11.762 93.291 11.3223 93.4118 11.0078 93.6533C10.6979 93.8949 10.543 94.2321 10.543 94.665C10.543 95.0296 10.7116 95.335 11.0488 95.5811C11.3861 95.8226 11.9421 96.0596 12.7168 96.292C13.4915 96.5199 14.1136 96.7819 14.583 97.0781C15.0524 97.3698 15.3965 97.707 15.6152 98.0898C15.834 98.4681 15.9434 98.9124 15.9434 99.4229C15.9434 100.252 15.6243 100.913 14.9863 101.405C14.3529 101.893 13.4915 102.137 12.4023 102.137C11.6823 102.137 11.0192 102.005 10.4131 101.74C9.81152 101.471 9.34212 101.102 9.00488 100.633C8.6722 100.163 8.50586 99.6165 8.50586 98.9922H10.2354C10.2354 99.5573 10.4222 99.9948 10.7959 100.305C11.1696 100.615 11.7051 100.77 12.4023 100.77C13.0039 100.77 13.4551 100.649 13.7559 100.407C14.0612 100.161 14.2139 99.8376 14.2139 99.4365ZM19.3818 92.8057V94.6035H20.6875V95.834H19.3818V99.9629C19.3818 100.245 19.4365 100.451 19.5459 100.578C19.6598 100.701 19.8604 100.763 20.1475 100.763C20.3389 100.763 20.5326 100.74 20.7285 100.694V101.979C20.3503 102.084 19.9857 102.137 19.6348 102.137C18.3587 102.137 17.7207 101.433 17.7207 100.024V95.834H16.5039V94.6035H17.7207V92.8057H19.3818ZM26.3818 102C26.3089 101.859 26.2451 101.629 26.1904 101.31C25.6618 101.861 25.0146 102.137 24.249 102.137C23.5062 102.137 22.9001 101.925 22.4307 101.501C21.9613 101.077 21.7266 100.553 21.7266 99.9287C21.7266 99.1403 22.0182 98.5365 22.6016 98.1172C23.1895 97.6934 24.028 97.4814 25.1172 97.4814H26.1357V96.9961C26.1357 96.6133 26.0286 96.3079 25.8145 96.0801C25.6003 95.8477 25.2744 95.7314 24.8369 95.7314C24.4587 95.7314 24.1488 95.8271 23.9072 96.0186C23.6657 96.2054 23.5449 96.4447 23.5449 96.7363H21.8838C21.8838 96.3307 22.0182 95.9525 22.2871 95.6016C22.556 95.2461 22.9206 94.9681 23.3809 94.7676C23.8457 94.5671 24.363 94.4668 24.9326 94.4668C25.7985 94.4668 26.4889 94.6855 27.0039 95.123C27.5189 95.556 27.7832 96.1667 27.7969 96.9551V100.291C27.7969 100.956 27.8903 101.487 28.0771 101.884V102H26.3818ZM24.5566 100.804C24.8848 100.804 25.1924 100.724 25.4795 100.564C25.7712 100.405 25.9899 100.191 26.1357 99.9219V98.5273H25.2402C24.625 98.5273 24.1624 98.6344 23.8525 98.8486C23.5426 99.0628 23.3877 99.3659 23.3877 99.7578C23.3877 100.077 23.4925 100.332 23.7021 100.523C23.9163 100.71 24.2012 100.804 24.5566 100.804ZM31.0781 94.6035L31.126 95.458C31.6729 94.7972 32.3906 94.4668 33.2793 94.4668C34.8197 94.4668 35.6035 95.3486 35.6309 97.1123V102H33.9697V97.208C33.9697 96.7386 33.8672 96.3923 33.6621 96.1689C33.4616 95.9411 33.1312 95.8271 32.6709 95.8271C32.001 95.8271 31.502 96.1302 31.1738 96.7363V102H29.5127V94.6035H31.0781ZM37.0186 98.2471C37.0186 97.1077 37.2829 96.194 37.8115 95.5059C38.3402 94.8132 39.0488 94.4668 39.9375 94.4668C40.7214 94.4668 41.3548 94.7402 41.8379 95.2871V91.5H43.499V102H41.9951L41.9131 101.234C41.4163 101.836 40.7533 102.137 39.9238 102.137C39.0579 102.137 38.3561 101.788 37.8184 101.091C37.2852 100.394 37.0186 99.4456 37.0186 98.2471ZM38.6797 98.3906C38.6797 99.1426 38.8232 99.7305 39.1104 100.154C39.402 100.574 39.8145 100.783 40.3477 100.783C41.0267 100.783 41.5234 100.48 41.8379 99.874V96.7158C41.5326 96.1234 41.0404 95.8271 40.3613 95.8271C39.8236 95.8271 39.4089 96.0413 39.1172 96.4697C38.8255 96.8936 38.6797 97.5339 38.6797 98.3906ZM49.6514 102C49.5785 101.859 49.5146 101.629 49.46 101.31C48.9313 101.861 48.2842 102.137 47.5186 102.137C46.7757 102.137 46.1696 101.925 45.7002 101.501C45.2308 101.077 44.9961 100.553 44.9961 99.9287C44.9961 99.1403 45.2878 98.5365 45.8711 98.1172C46.459 97.6934 47.2975 97.4814 48.3867 97.4814H49.4053V96.9961C49.4053 96.6133 49.2982 96.3079 49.084 96.0801C48.8698 95.8477 48.5439 95.7314 48.1064 95.7314C47.7282 95.7314 47.4183 95.8271 47.1768 96.0186C46.9352 96.2054 46.8145 96.4447 46.8145 96.7363H45.1533C45.1533 96.3307 45.2878 95.9525 45.5566 95.6016C45.8255 95.2461 46.1901 94.9681 46.6504 94.7676C47.1152 94.5671 47.6325 94.4668 48.2021 94.4668C49.068 94.4668 49.7585 94.6855 50.2734 95.123C50.7884 95.556 51.0527 96.1667 51.0664 96.9551V100.291C51.0664 100.956 51.1598 101.487 51.3467 101.884V102H49.6514ZM47.8262 100.804C48.1543 100.804 48.4619 100.724 48.749 100.564C49.0407 100.405 49.2594 100.191 49.4053 99.9219V98.5273H48.5098C47.8945 98.5273 47.432 98.6344 47.1221 98.8486C46.8122 99.0628 46.6572 99.3659 46.6572 99.7578C46.6572 100.077 46.762 100.332 46.9717 100.523C47.1859 100.71 47.4707 100.804 47.8262 100.804ZM56.6787 96.1211C56.46 96.0846 56.2344 96.0664 56.002 96.0664C55.2409 96.0664 54.7282 96.3581 54.4639 96.9414V102H52.8027V94.6035H54.3887L54.4297 95.4307C54.8307 94.7881 55.3867 94.4668 56.0977 94.4668C56.3346 94.4668 56.5306 94.4987 56.6855 94.5625L56.6787 96.1211ZM57.2803 98.2471C57.2803 97.1077 57.5446 96.194 58.0732 95.5059C58.6019 94.8132 59.3105 94.4668 60.1992 94.4668C60.9831 94.4668 61.6165 94.7402 62.0996 95.2871V91.5H63.7607V102H62.2568L62.1748 101.234C61.6781 101.836 61.015 102.137 60.1855 102.137C59.3197 102.137 58.6178 101.788 58.0801 101.091C57.5469 100.394 57.2803 99.4456 57.2803 98.2471ZM58.9414 98.3906C58.9414 99.1426 59.085 99.7305 59.3721 100.154C59.6637 100.574 60.0762 100.783 60.6094 100.783C61.2884 100.783 61.7852 100.48 62.0996 99.874V96.7158C61.7943 96.1234 61.3021 95.8271 60.623 95.8271C60.0853 95.8271 59.6706 96.0413 59.3789 96.4697C59.0872 96.8936 58.9414 97.5339 58.9414 98.3906ZM70.542 94.6035L70.5898 95.376C71.1094 94.7699 71.8203 94.4668 72.7227 94.4668C73.7116 94.4668 74.3883 94.8451 74.7529 95.6016C75.2907 94.8451 76.0472 94.4668 77.0225 94.4668C77.8382 94.4668 78.4443 94.6924 78.8408 95.1436C79.2419 95.5947 79.4469 96.2601 79.4561 97.1396V102H77.7949V97.1875C77.7949 96.7181 77.6924 96.374 77.4873 96.1553C77.2822 95.9365 76.9427 95.8271 76.4688 95.8271C76.0905 95.8271 75.7806 95.9297 75.5391 96.1348C75.3021 96.3353 75.1357 96.5996 75.04 96.9277L75.0469 102H73.3857V97.1328C73.363 96.2624 72.9186 95.8271 72.0527 95.8271C71.3874 95.8271 70.9157 96.0983 70.6377 96.6406V102H68.9766V94.6035H70.542ZM82.9287 102H81.2676V94.6035H82.9287V102ZM81.165 92.6826C81.165 92.4274 81.2448 92.2155 81.4043 92.0469C81.5684 91.8783 81.8008 91.7939 82.1016 91.7939C82.4023 91.7939 82.6348 91.8783 82.7988 92.0469C82.9629 92.2155 83.0449 92.4274 83.0449 92.6826C83.0449 92.9333 82.9629 93.1429 82.7988 93.3115C82.6348 93.4756 82.4023 93.5576 82.1016 93.5576C81.8008 93.5576 81.5684 93.4756 81.4043 93.3115C81.2448 93.1429 81.165 92.9333 81.165 92.6826ZM86.2852 94.6035L86.333 95.458C86.8799 94.7972 87.5977 94.4668 88.4863 94.4668C90.0267 94.4668 90.8105 95.3486 90.8379 97.1123V102H89.1768V97.208C89.1768 96.7386 89.0742 96.3923 88.8691 96.1689C88.6686 95.9411 88.3382 95.8271 87.8779 95.8271C87.208 95.8271 86.709 96.1302 86.3809 96.7363V102H84.7197V94.6035H86.2852ZM94.3037 102H92.6426V94.6035H94.3037V102ZM92.54 92.6826C92.54 92.4274 92.6198 92.2155 92.7793 92.0469C92.9434 91.8783 93.1758 91.7939 93.4766 91.7939C93.7773 91.7939 94.0098 91.8783 94.1738 92.0469C94.3379 92.2155 94.4199 92.4274 94.4199 92.6826C94.4199 92.9333 94.3379 93.1429 94.1738 93.3115C94.0098 93.4756 93.7773 93.5576 93.4766 93.5576C93.1758 93.5576 92.9434 93.4756 92.7793 93.3115C92.6198 93.1429 92.54 92.9333 92.54 92.6826ZM102.644 100.811C103.058 100.811 103.402 100.69 103.676 100.448C103.949 100.207 104.095 99.9082 104.113 99.5527H105.679C105.66 100.013 105.517 100.444 105.248 100.845C104.979 101.241 104.615 101.556 104.154 101.788C103.694 102.021 103.197 102.137 102.664 102.137C101.63 102.137 100.809 101.802 100.203 101.132C99.597 100.462 99.2939 99.5368 99.2939 98.3564V98.1855C99.2939 97.0599 99.5947 96.1598 100.196 95.4854C100.798 94.8063 101.618 94.4668 102.657 94.4668C103.537 94.4668 104.252 94.7243 104.804 95.2393C105.36 95.7497 105.651 96.4219 105.679 97.2559H104.113C104.095 96.832 103.949 96.4834 103.676 96.21C103.407 95.9365 103.063 95.7998 102.644 95.7998C102.106 95.7998 101.691 95.9958 101.399 96.3877C101.108 96.7751 100.96 97.3652 100.955 98.1582V98.4248C100.955 99.2269 101.099 99.8262 101.386 100.223C101.677 100.615 102.097 100.811 102.644 100.811ZM111.353 102C111.28 101.859 111.216 101.629 111.161 101.31C110.632 101.861 109.985 102.137 109.22 102.137C108.477 102.137 107.871 101.925 107.401 101.501C106.932 101.077 106.697 100.553 106.697 99.9287C106.697 99.1403 106.989 98.5365 107.572 98.1172C108.16 97.6934 108.999 97.4814 110.088 97.4814H111.106V96.9961C111.106 96.6133 110.999 96.3079 110.785 96.0801C110.571 95.8477 110.245 95.7314 109.808 95.7314C109.429 95.7314 109.119 95.8271 108.878 96.0186C108.636 96.2054 108.516 96.4447 108.516 96.7363H106.854C106.854 96.3307 106.989 95.9525 107.258 95.6016C107.527 95.2461 107.891 94.9681 108.352 94.7676C108.816 94.5671 109.334 94.4668 109.903 94.4668C110.769 94.4668 111.46 94.6855 111.975 95.123C112.49 95.556 112.754 96.1667 112.768 96.9551V100.291C112.768 100.956 112.861 101.487 113.048 101.884V102H111.353ZM109.527 100.804C109.855 100.804 110.163 100.724 110.45 100.564C110.742 100.405 110.961 100.191 111.106 99.9219V98.5273H110.211C109.596 98.5273 109.133 98.6344 108.823 98.8486C108.513 99.0628 108.358 99.3659 108.358 99.7578C108.358 100.077 108.463 100.332 108.673 100.523C108.887 100.71 109.172 100.804 109.527 100.804ZM118.653 99.9902C118.653 99.694 118.53 99.4684 118.284 99.3135C118.043 99.1585 117.639 99.0218 117.074 98.9033C116.509 98.7848 116.037 98.6344 115.659 98.4521C114.83 98.0511 114.415 97.4701 114.415 96.709C114.415 96.071 114.684 95.5378 115.222 95.1094C115.759 94.681 116.443 94.4668 117.272 94.4668C118.157 94.4668 118.87 94.6855 119.412 95.123C119.959 95.5605 120.232 96.1279 120.232 96.8252H118.571C118.571 96.5062 118.453 96.2419 118.216 96.0322C117.979 95.818 117.664 95.7109 117.272 95.7109C116.908 95.7109 116.609 95.7952 116.377 95.9639C116.149 96.1325 116.035 96.3581 116.035 96.6406C116.035 96.8958 116.142 97.0941 116.356 97.2354C116.571 97.3766 117.004 97.5202 117.655 97.666C118.307 97.8073 118.817 97.9782 119.187 98.1787C119.56 98.3747 119.836 98.6117 120.014 98.8896C120.196 99.1676 120.287 99.5049 120.287 99.9014C120.287 100.567 120.011 101.107 119.46 101.521C118.909 101.932 118.186 102.137 117.293 102.137C116.687 102.137 116.147 102.027 115.673 101.809C115.199 101.59 114.83 101.289 114.565 100.906C114.301 100.523 114.169 100.111 114.169 99.6689H115.782C115.805 100.061 115.953 100.364 116.227 100.578C116.5 100.788 116.862 100.893 117.313 100.893C117.751 100.893 118.084 100.811 118.312 100.646C118.539 100.478 118.653 100.259 118.653 99.9902ZM124.997 102.137C123.944 102.137 123.09 101.806 122.434 101.146C121.782 100.48 121.456 99.596 121.456 98.4932V98.2881C121.456 97.5498 121.597 96.8913 121.88 96.3125C122.167 95.7292 122.568 95.2757 123.083 94.9521C123.598 94.6286 124.172 94.4668 124.806 94.4668C125.813 94.4668 126.59 94.7881 127.137 95.4307C127.688 96.0732 127.964 96.9824 127.964 98.1582V98.8281H123.131C123.181 99.4388 123.384 99.9219 123.739 100.277C124.099 100.633 124.55 100.811 125.093 100.811C125.854 100.811 126.474 100.503 126.952 99.8877L127.848 100.742C127.551 101.184 127.155 101.528 126.658 101.774C126.166 102.016 125.612 102.137 124.997 102.137ZM124.799 95.7998C124.343 95.7998 123.974 95.9593 123.691 96.2783C123.413 96.5973 123.236 97.0417 123.158 97.6113H126.323V97.4883C126.287 96.9323 126.139 96.513 125.879 96.2305C125.619 95.9434 125.259 95.7998 124.799 95.7998Z" fill="#28292C"/>
<rect x="9" y="82" width="166" height="1" fill="#CCCCCC"/>
<rect x="9" y="14" width="28" height="4" fill="#5F5F5F"/>
<rect x="9" y="23" width="28" height="4" fill="#CCCCCC"/>
<rect x="55" y="14" width="120" height="3.09524" fill="#CCCCCC"/>
<rect x="55" y="18.9524" width="95.2941" height="3.09524" fill="#CCCCCC"/>
<rect x="55" y="23.9048" width="120" height="3.09524" fill="#CCCCCC"/>
<circle cx="50" cy="15" r="1" fill="#28292C"/>
<circle cx="50" cy="20" r="1" fill="#28292C"/>
<circle cx="50" cy="25" r="1" fill="#28292C"/>
<rect x="9" y="36" width="28" height="4" fill="#5F5F5F"/>
<rect x="9" y="45" width="28" height="4" fill="#CCCCCC"/>
<rect x="55" y="36" width="120" height="3.09524" fill="#CCCCCC"/>
<rect x="55" y="40.9524" width="95.2941" height="3.09524" fill="#CCCCCC"/>
<rect x="55" y="45.9048" width="120" height="3.09524" fill="#CCCCCC"/>
<circle cx="50" cy="37" r="1" fill="#28292C"/>
<circle cx="50" cy="42" r="1" fill="#28292C"/>
<circle cx="50" cy="47" r="1" fill="#28292C"/>
<rect x="9" y="60" width="28" height="4" fill="#5F5F5F"/>
<rect x="9" y="69" width="28" height="4" fill="#CCCCCC"/>
<rect x="55" y="60" width="120" height="3.09524" fill="#CCCCCC"/>
<rect x="55" y="64.9524" width="95.2941" height="3.09524" fill="#CCCCCC"/>
<rect x="55" y="69.9048" width="120" height="3.09524" fill="#CCCCCC"/>
<circle cx="50" cy="61" r="1" fill="#28292C"/>
<circle cx="50" cy="66" r="1" fill="#28292C"/>
<circle cx="50" cy="71" r="1" fill="#28292C"/>
</svg>
