<svg width="185" height="120" viewBox="0 0 185 120" fill="none" xmlns="http://www.w3.org/2000/svg">
<rect width="185" height="120" fill="white"/>
<path d="M14.248 105.437C14.248 105.231 14.2161 105.049 14.1523 104.89C14.0931 104.73 13.986 104.584 13.8311 104.452C13.6761 104.32 13.4574 104.192 13.1748 104.069C12.8968 103.942 12.5413 103.812 12.1084 103.68C11.6344 103.534 11.1969 103.372 10.7959 103.194C10.3994 103.012 10.0531 102.802 9.75684 102.565C9.46061 102.324 9.23047 102.048 9.06641 101.738C8.90234 101.424 8.82031 101.062 8.82031 100.651C8.82031 100.246 8.90462 99.8766 9.07324 99.5439C9.24642 99.2113 9.49023 98.9242 9.80469 98.6826C10.1237 98.4365 10.4997 98.2474 10.9326 98.1152C11.3656 97.9785 11.8441 97.9102 12.3682 97.9102C13.1064 97.9102 13.7422 98.0469 14.2754 98.3203C14.8132 98.5938 15.2256 98.9606 15.5127 99.4209C15.8044 99.8812 15.9502 100.389 15.9502 100.945H14.248C14.248 100.617 14.1774 100.328 14.0361 100.077C13.8994 99.8219 13.6898 99.6214 13.4072 99.4756C13.1292 99.3298 12.776 99.2568 12.3477 99.2568C11.9421 99.2568 11.6048 99.3184 11.3359 99.4414C11.0671 99.5645 10.8665 99.7308 10.7344 99.9404C10.6022 100.15 10.5361 100.387 10.5361 100.651C10.5361 100.838 10.5794 101.009 10.666 101.164C10.7526 101.314 10.8848 101.456 11.0625 101.588C11.2402 101.715 11.4635 101.836 11.7324 101.95C12.0013 102.064 12.318 102.174 12.6826 102.278C13.234 102.442 13.7148 102.625 14.125 102.825C14.5352 103.021 14.877 103.244 15.1504 103.495C15.4238 103.746 15.6289 104.031 15.7656 104.35C15.9023 104.664 15.9707 105.022 15.9707 105.423C15.9707 105.842 15.8864 106.22 15.7178 106.558C15.5492 106.89 15.3076 107.175 14.9932 107.412C14.6833 107.645 14.3096 107.825 13.8721 107.952C13.4391 108.075 12.9561 108.137 12.4229 108.137C11.9443 108.137 11.4727 108.073 11.0078 107.945C10.5475 107.818 10.1283 107.624 9.75 107.364C9.37174 107.1 9.07096 106.772 8.84766 106.38C8.62435 105.983 8.5127 105.521 8.5127 104.992H10.2285C10.2285 105.316 10.2832 105.591 10.3926 105.819C10.5065 106.047 10.6637 106.234 10.8643 106.38C11.0648 106.521 11.2972 106.626 11.5615 106.694C11.8304 106.763 12.1175 106.797 12.4229 106.797C12.8239 106.797 13.1589 106.74 13.4277 106.626C13.7012 106.512 13.9062 106.353 14.043 106.147C14.1797 105.942 14.248 105.705 14.248 105.437ZM20.7148 100.604V101.807H16.5449V100.604H20.7148ZM17.748 98.792H19.3955V105.956C19.3955 106.184 19.4274 106.359 19.4912 106.482C19.5596 106.601 19.653 106.681 19.7715 106.722C19.89 106.763 20.029 106.783 20.1885 106.783C20.3024 106.783 20.4118 106.776 20.5166 106.763C20.6214 106.749 20.7057 106.735 20.7695 106.722L20.7764 107.979C20.6396 108.021 20.4801 108.057 20.2979 108.089C20.1201 108.121 19.915 108.137 19.6826 108.137C19.3044 108.137 18.9694 108.071 18.6777 107.938C18.3861 107.802 18.1582 107.581 17.9941 107.275C17.8301 106.97 17.748 106.564 17.748 106.059V98.792ZM26.1562 106.517V102.989C26.1562 102.725 26.1084 102.497 26.0127 102.306C25.917 102.114 25.7712 101.966 25.5752 101.861C25.3838 101.757 25.1423 101.704 24.8506 101.704C24.5817 101.704 24.3493 101.75 24.1533 101.841C23.9574 101.932 23.8047 102.055 23.6953 102.21C23.5859 102.365 23.5312 102.54 23.5312 102.736H21.8906C21.8906 102.445 21.9613 102.162 22.1025 101.889C22.2438 101.615 22.4489 101.371 22.7178 101.157C22.9867 100.943 23.3079 100.774 23.6816 100.651C24.0553 100.528 24.4746 100.467 24.9395 100.467C25.4954 100.467 25.9876 100.56 26.416 100.747C26.849 100.934 27.1885 101.216 27.4346 101.595C27.6852 101.968 27.8105 102.438 27.8105 103.003V106.291C27.8105 106.628 27.8333 106.931 27.8789 107.2C27.929 107.465 27.9997 107.695 28.0908 107.891V108H26.4023C26.3249 107.822 26.2633 107.597 26.2178 107.323C26.1768 107.045 26.1562 106.776 26.1562 106.517ZM26.3955 103.502L26.4092 104.521H25.2266C24.9212 104.521 24.6523 104.55 24.4199 104.609C24.1875 104.664 23.9938 104.746 23.8389 104.855C23.6839 104.965 23.5677 105.097 23.4902 105.252C23.4128 105.407 23.374 105.582 23.374 105.778C23.374 105.974 23.4196 106.154 23.5107 106.318C23.6019 106.478 23.734 106.603 23.9072 106.694C24.085 106.785 24.2992 106.831 24.5498 106.831C24.887 106.831 25.181 106.763 25.4316 106.626C25.6868 106.485 25.8874 106.314 26.0332 106.113C26.179 105.908 26.2565 105.715 26.2656 105.532L26.7988 106.264C26.7441 106.451 26.6507 106.651 26.5186 106.865C26.3864 107.079 26.2132 107.285 25.999 107.48C25.7894 107.672 25.5365 107.829 25.2402 107.952C24.9486 108.075 24.6113 108.137 24.2285 108.137C23.7454 108.137 23.3148 108.041 22.9365 107.85C22.5583 107.654 22.262 107.392 22.0479 107.063C21.8337 106.731 21.7266 106.355 21.7266 105.936C21.7266 105.544 21.7995 105.197 21.9453 104.896C22.0957 104.591 22.3145 104.336 22.6016 104.131C22.8932 103.926 23.2487 103.771 23.668 103.666C24.0872 103.557 24.5658 103.502 25.1035 103.502H26.3955ZM31.167 102.183V108H29.5195V100.604H31.0713L31.167 102.183ZM30.873 104.028L30.3398 104.021C30.3444 103.497 30.4173 103.017 30.5586 102.579C30.7044 102.142 30.9049 101.766 31.1602 101.451C31.4199 101.137 31.7298 100.895 32.0898 100.727C32.4499 100.553 32.8509 100.467 33.293 100.467C33.6484 100.467 33.9697 100.517 34.2568 100.617C34.5485 100.713 34.7969 100.87 35.002 101.089C35.2116 101.308 35.3711 101.592 35.4805 101.943C35.5898 102.29 35.6445 102.716 35.6445 103.222V108H33.9902V103.215C33.9902 102.859 33.9378 102.579 33.833 102.374C33.7327 102.164 33.5846 102.016 33.3887 101.93C33.1973 101.839 32.958 101.793 32.6709 101.793C32.3883 101.793 32.1354 101.852 31.9121 101.971C31.6888 102.089 31.4997 102.251 31.3447 102.456C31.1943 102.661 31.0781 102.898 30.9961 103.167C30.9141 103.436 30.873 103.723 30.873 104.028ZM41.8379 106.469V97.5H43.4922V108H41.9951L41.8379 106.469ZM37.0254 104.384V104.24C37.0254 103.68 37.0915 103.169 37.2236 102.709C37.3558 102.244 37.5472 101.845 37.7979 101.513C38.0485 101.175 38.3538 100.918 38.7139 100.74C39.0739 100.558 39.4795 100.467 39.9307 100.467C40.3773 100.467 40.7692 100.553 41.1064 100.727C41.4437 100.9 41.7308 101.148 41.9678 101.472C42.2048 101.791 42.3939 102.174 42.5352 102.62C42.6764 103.062 42.7767 103.554 42.8359 104.097V104.555C42.7767 105.083 42.6764 105.566 42.5352 106.004C42.3939 106.441 42.2048 106.82 41.9678 107.139C41.7308 107.458 41.4414 107.704 41.0996 107.877C40.7624 108.05 40.3682 108.137 39.917 108.137C39.4704 108.137 39.0671 108.043 38.707 107.856C38.3516 107.67 38.0485 107.408 37.7979 107.07C37.5472 106.733 37.3558 106.337 37.2236 105.881C37.0915 105.421 37.0254 104.922 37.0254 104.384ZM38.6729 104.24V104.384C38.6729 104.721 38.7025 105.035 38.7617 105.327C38.8255 105.619 38.9235 105.876 39.0557 106.1C39.1878 106.318 39.3587 106.492 39.5684 106.619C39.7826 106.742 40.0378 106.804 40.334 106.804C40.7077 106.804 41.0153 106.722 41.2568 106.558C41.4984 106.394 41.6875 106.173 41.8242 105.895C41.9655 105.612 42.0612 105.298 42.1113 104.951V103.714C42.084 103.445 42.027 103.194 41.9404 102.962C41.8584 102.729 41.7467 102.527 41.6055 102.354C41.4642 102.176 41.2887 102.039 41.0791 101.943C40.874 101.843 40.6302 101.793 40.3477 101.793C40.0469 101.793 39.7917 101.857 39.582 101.984C39.3724 102.112 39.1992 102.287 39.0625 102.511C38.9303 102.734 38.8324 102.994 38.7686 103.29C38.7048 103.586 38.6729 103.903 38.6729 104.24ZM49.3848 106.517V102.989C49.3848 102.725 49.3369 102.497 49.2412 102.306C49.1455 102.114 48.9997 101.966 48.8037 101.861C48.6123 101.757 48.3708 101.704 48.0791 101.704C47.8102 101.704 47.5778 101.75 47.3818 101.841C47.1859 101.932 47.0332 102.055 46.9238 102.21C46.8145 102.365 46.7598 102.54 46.7598 102.736H45.1191C45.1191 102.445 45.1898 102.162 45.3311 101.889C45.4723 101.615 45.6774 101.371 45.9463 101.157C46.2152 100.943 46.5365 100.774 46.9102 100.651C47.2839 100.528 47.7031 100.467 48.168 100.467C48.724 100.467 49.2161 100.56 49.6445 100.747C50.0775 100.934 50.417 101.216 50.6631 101.595C50.9137 101.968 51.0391 102.438 51.0391 103.003V106.291C51.0391 106.628 51.0618 106.931 51.1074 107.2C51.1576 107.465 51.2282 107.695 51.3193 107.891V108H49.6309C49.5534 107.822 49.4919 107.597 49.4463 107.323C49.4053 107.045 49.3848 106.776 49.3848 106.517ZM49.624 103.502L49.6377 104.521H48.4551C48.1497 104.521 47.8809 104.55 47.6484 104.609C47.416 104.664 47.2223 104.746 47.0674 104.855C46.9124 104.965 46.7962 105.097 46.7188 105.252C46.6413 105.407 46.6025 105.582 46.6025 105.778C46.6025 105.974 46.6481 106.154 46.7393 106.318C46.8304 106.478 46.9626 106.603 47.1357 106.694C47.3135 106.785 47.5277 106.831 47.7783 106.831C48.1156 106.831 48.4095 106.763 48.6602 106.626C48.9154 106.485 49.1159 106.314 49.2617 106.113C49.4076 105.908 49.485 105.715 49.4941 105.532L50.0273 106.264C49.9727 106.451 49.8792 106.651 49.7471 106.865C49.6149 107.079 49.4417 107.285 49.2275 107.48C49.0179 107.672 48.765 107.829 48.4688 107.952C48.1771 108.075 47.8398 108.137 47.457 108.137C46.974 108.137 46.5433 108.041 46.165 107.85C45.7868 107.654 45.4906 107.392 45.2764 107.063C45.0622 106.731 44.9551 106.355 44.9551 105.936C44.9551 105.544 45.028 105.197 45.1738 104.896C45.3242 104.591 45.543 104.336 45.8301 104.131C46.1217 103.926 46.4772 103.771 46.8965 103.666C47.3158 103.557 47.7943 103.502 48.332 103.502H49.624ZM54.416 102.012V108H52.7686V100.604H54.3408L54.416 102.012ZM56.6787 100.556L56.665 102.087C56.5648 102.069 56.4554 102.055 56.3369 102.046C56.223 102.037 56.109 102.032 55.9951 102.032C55.7126 102.032 55.4642 102.073 55.25 102.155C55.0358 102.233 54.8558 102.347 54.71 102.497C54.5687 102.643 54.4593 102.821 54.3818 103.03C54.3044 103.24 54.2588 103.475 54.2451 103.734L53.8691 103.762C53.8691 103.297 53.9147 102.866 54.0059 102.47C54.097 102.073 54.2337 101.725 54.416 101.424C54.6029 101.123 54.8353 100.888 55.1133 100.72C55.3958 100.551 55.7217 100.467 56.0908 100.467C56.1911 100.467 56.2982 100.476 56.4121 100.494C56.5306 100.512 56.6195 100.533 56.6787 100.556ZM62.0859 106.469V97.5H63.7402V108H62.2432L62.0859 106.469ZM57.2734 104.384V104.24C57.2734 103.68 57.3395 103.169 57.4717 102.709C57.6038 102.244 57.7952 101.845 58.0459 101.513C58.2965 101.175 58.6019 100.918 58.9619 100.74C59.3219 100.558 59.7275 100.467 60.1787 100.467C60.6253 100.467 61.0173 100.553 61.3545 100.727C61.6917 100.9 61.9788 101.148 62.2158 101.472C62.4528 101.791 62.6419 102.174 62.7832 102.62C62.9245 103.062 63.0247 103.554 63.084 104.097V104.555C63.0247 105.083 62.9245 105.566 62.7832 106.004C62.6419 106.441 62.4528 106.82 62.2158 107.139C61.9788 107.458 61.6895 107.704 61.3477 107.877C61.0104 108.05 60.6162 108.137 60.165 108.137C59.7184 108.137 59.3151 108.043 58.9551 107.856C58.5996 107.67 58.2965 107.408 58.0459 107.07C57.7952 106.733 57.6038 106.337 57.4717 105.881C57.3395 105.421 57.2734 104.922 57.2734 104.384ZM58.9209 104.24V104.384C58.9209 104.721 58.9505 105.035 59.0098 105.327C59.0736 105.619 59.1715 105.876 59.3037 106.1C59.4359 106.318 59.6068 106.492 59.8164 106.619C60.0306 106.742 60.2858 106.804 60.582 106.804C60.9557 106.804 61.2633 106.722 61.5049 106.558C61.7464 106.394 61.9355 106.173 62.0723 105.895C62.2135 105.612 62.3092 105.298 62.3594 104.951V103.714C62.332 103.445 62.2751 103.194 62.1885 102.962C62.1064 102.729 61.9948 102.527 61.8535 102.354C61.7122 102.176 61.5368 102.039 61.3271 101.943C61.1221 101.843 60.8783 101.793 60.5957 101.793C60.2949 101.793 60.0397 101.857 59.8301 101.984C59.6204 102.112 59.4473 102.287 59.3105 102.511C59.1784 102.734 59.0804 102.994 59.0166 103.29C58.9528 103.586 58.9209 103.903 58.9209 104.24ZM71.9707 106.824C72.2396 106.824 72.4811 106.772 72.6953 106.667C72.9141 106.558 73.0895 106.407 73.2217 106.216C73.3584 106.024 73.4336 105.803 73.4473 105.553H74.999C74.9899 106.031 74.8486 106.466 74.5752 106.858C74.3018 107.25 73.9395 107.562 73.4883 107.795C73.0371 108.023 72.5381 108.137 71.9912 108.137C71.4261 108.137 70.9339 108.041 70.5146 107.85C70.0954 107.654 69.7467 107.385 69.4688 107.043C69.1908 106.701 68.9811 106.307 68.8398 105.86C68.7031 105.414 68.6348 104.935 68.6348 104.425V104.186C68.6348 103.675 68.7031 103.197 68.8398 102.75C68.9811 102.299 69.1908 101.902 69.4688 101.561C69.7467 101.219 70.0954 100.952 70.5146 100.761C70.9339 100.565 71.4238 100.467 71.9844 100.467C72.5768 100.467 73.0964 100.585 73.543 100.822C73.9896 101.055 74.3405 101.381 74.5957 101.8C74.8555 102.215 74.9899 102.698 74.999 103.249H73.4473C73.4336 102.976 73.3652 102.729 73.2422 102.511C73.1237 102.287 72.9551 102.11 72.7363 101.978C72.5221 101.845 72.2646 101.779 71.9639 101.779C71.6312 101.779 71.3555 101.848 71.1367 101.984C70.918 102.117 70.7471 102.299 70.624 102.531C70.501 102.759 70.4121 103.017 70.3574 103.304C70.3073 103.586 70.2822 103.88 70.2822 104.186V104.425C70.2822 104.73 70.3073 105.026 70.3574 105.313C70.4076 105.601 70.4941 105.858 70.6172 106.086C70.7448 106.309 70.918 106.489 71.1367 106.626C71.3555 106.758 71.6335 106.824 71.9707 106.824ZM80.4336 106.517V102.989C80.4336 102.725 80.3857 102.497 80.29 102.306C80.1943 102.114 80.0485 101.966 79.8525 101.861C79.6611 101.757 79.4196 101.704 79.1279 101.704C78.859 101.704 78.6266 101.75 78.4307 101.841C78.2347 101.932 78.082 102.055 77.9727 102.21C77.8633 102.365 77.8086 102.54 77.8086 102.736H76.168C76.168 102.445 76.2386 102.162 76.3799 101.889C76.5212 101.615 76.7262 101.371 76.9951 101.157C77.264 100.943 77.5853 100.774 77.959 100.651C78.3327 100.528 78.752 100.467 79.2168 100.467C79.7728 100.467 80.265 100.56 80.6934 100.747C81.1263 100.934 81.4658 101.216 81.7119 101.595C81.9626 101.968 82.0879 102.438 82.0879 103.003V106.291C82.0879 106.628 82.1107 106.931 82.1562 107.2C82.2064 107.465 82.277 107.695 82.3682 107.891V108H80.6797C80.6022 107.822 80.5407 107.597 80.4951 107.323C80.4541 107.045 80.4336 106.776 80.4336 106.517ZM80.6729 103.502L80.6865 104.521H79.5039C79.1986 104.521 78.9297 104.55 78.6973 104.609C78.4648 104.664 78.2712 104.746 78.1162 104.855C77.9613 104.965 77.8451 105.097 77.7676 105.252C77.6901 105.407 77.6514 105.582 77.6514 105.778C77.6514 105.974 77.6969 106.154 77.7881 106.318C77.8792 106.478 78.0114 106.603 78.1846 106.694C78.3623 106.785 78.5765 106.831 78.8271 106.831C79.1644 106.831 79.4583 106.763 79.709 106.626C79.9642 106.485 80.1647 106.314 80.3105 106.113C80.4564 105.908 80.5339 105.715 80.543 105.532L81.0762 106.264C81.0215 106.451 80.9281 106.651 80.7959 106.865C80.6637 107.079 80.4906 107.285 80.2764 107.48C80.0667 107.672 79.8138 107.829 79.5176 107.952C79.2259 108.075 78.8887 108.137 78.5059 108.137C78.0228 108.137 77.5921 108.041 77.2139 107.85C76.8356 107.654 76.5394 107.392 76.3252 107.063C76.111 106.731 76.0039 106.355 76.0039 105.936C76.0039 105.544 76.0768 105.197 76.2227 104.896C76.373 104.591 76.5918 104.336 76.8789 104.131C77.1706 103.926 77.526 103.771 77.9453 103.666C78.3646 103.557 78.8431 103.502 79.3809 103.502H80.6729ZM87.96 105.997C87.96 105.833 87.9189 105.685 87.8369 105.553C87.7549 105.416 87.5977 105.293 87.3652 105.184C87.1374 105.074 86.8001 104.974 86.3535 104.883C85.9616 104.796 85.6016 104.694 85.2734 104.575C84.9499 104.452 84.6719 104.304 84.4395 104.131C84.207 103.958 84.027 103.753 83.8994 103.516C83.7718 103.279 83.708 103.005 83.708 102.695C83.708 102.395 83.7741 102.11 83.9062 101.841C84.0384 101.572 84.2275 101.335 84.4736 101.13C84.7197 100.925 85.0182 100.763 85.3691 100.645C85.7246 100.526 86.1211 100.467 86.5586 100.467C87.1784 100.467 87.7093 100.572 88.1514 100.781C88.598 100.986 88.9398 101.267 89.1768 101.622C89.4137 101.973 89.5322 102.369 89.5322 102.812H87.8848C87.8848 102.616 87.8346 102.433 87.7344 102.265C87.6387 102.091 87.4928 101.952 87.2969 101.848C87.1009 101.738 86.8548 101.684 86.5586 101.684C86.276 101.684 86.0413 101.729 85.8545 101.82C85.6722 101.907 85.5355 102.021 85.4443 102.162C85.3577 102.303 85.3145 102.458 85.3145 102.627C85.3145 102.75 85.3372 102.862 85.3828 102.962C85.4329 103.058 85.515 103.146 85.6289 103.229C85.7428 103.306 85.8978 103.379 86.0938 103.447C86.2943 103.516 86.5449 103.582 86.8457 103.646C87.4108 103.764 87.8962 103.917 88.3018 104.104C88.7119 104.286 89.0264 104.523 89.2451 104.814C89.4639 105.102 89.5732 105.466 89.5732 105.908C89.5732 106.236 89.5026 106.537 89.3613 106.811C89.2246 107.079 89.0241 107.314 88.7598 107.515C88.4954 107.711 88.1787 107.863 87.8096 107.973C87.445 108.082 87.0348 108.137 86.5791 108.137C85.9092 108.137 85.3418 108.018 84.877 107.781C84.4121 107.54 84.0589 107.232 83.8174 106.858C83.5804 106.48 83.4619 106.088 83.4619 105.683H85.0547C85.0729 105.988 85.1572 106.232 85.3076 106.414C85.4626 106.592 85.654 106.722 85.8818 106.804C86.1143 106.881 86.3535 106.92 86.5996 106.92C86.8958 106.92 87.1442 106.881 87.3447 106.804C87.5452 106.722 87.6979 106.612 87.8027 106.476C87.9076 106.334 87.96 106.175 87.96 105.997ZM94.2764 108.137C93.7295 108.137 93.235 108.048 92.793 107.87C92.3555 107.688 91.9818 107.435 91.6719 107.111C91.3665 106.788 91.1318 106.407 90.9678 105.97C90.8037 105.532 90.7217 105.061 90.7217 104.555V104.281C90.7217 103.702 90.806 103.178 90.9746 102.709C91.1432 102.24 91.3779 101.839 91.6787 101.506C91.9795 101.169 92.335 100.911 92.7451 100.733C93.1553 100.556 93.5996 100.467 94.0781 100.467C94.6068 100.467 95.0693 100.556 95.4658 100.733C95.8623 100.911 96.1904 101.162 96.4502 101.485C96.7145 101.804 96.9105 102.185 97.0381 102.627C97.1702 103.069 97.2363 103.557 97.2363 104.09V104.794H91.5215V103.611H95.6094V103.481C95.6003 103.185 95.541 102.907 95.4316 102.647C95.3268 102.388 95.165 102.178 94.9463 102.019C94.7275 101.859 94.4359 101.779 94.0713 101.779C93.7979 101.779 93.554 101.839 93.3398 101.957C93.1302 102.071 92.9548 102.237 92.8135 102.456C92.6722 102.675 92.5628 102.939 92.4854 103.249C92.4124 103.554 92.376 103.898 92.376 104.281V104.555C92.376 104.878 92.4193 105.179 92.5059 105.457C92.597 105.73 92.7292 105.97 92.9023 106.175C93.0755 106.38 93.2852 106.542 93.5312 106.66C93.7773 106.774 94.0576 106.831 94.3721 106.831C94.7686 106.831 95.1217 106.751 95.4316 106.592C95.7415 106.432 96.0104 106.207 96.2383 105.915L97.1064 106.756C96.9469 106.988 96.7396 107.212 96.4844 107.426C96.2292 107.635 95.917 107.806 95.5479 107.938C95.1833 108.071 94.7594 108.137 94.2764 108.137ZM104.236 108H102.589V99.8926C102.589 99.3411 102.691 98.8786 102.896 98.5049C103.106 98.1266 103.405 97.8418 103.792 97.6504C104.179 97.4544 104.637 97.3564 105.166 97.3564C105.33 97.3564 105.492 97.3678 105.651 97.3906C105.811 97.4089 105.966 97.4385 106.116 97.4795L106.075 98.751C105.984 98.7282 105.884 98.7122 105.774 98.7031C105.67 98.694 105.556 98.6895 105.433 98.6895C105.182 98.6895 104.965 98.7373 104.783 98.833C104.605 98.9242 104.469 99.0586 104.373 99.2363C104.282 99.4141 104.236 99.6328 104.236 99.8926V108ZM105.761 100.604V101.807H101.454V100.604H105.761ZM106.643 104.384V104.227C106.643 103.693 106.72 103.199 106.875 102.743C107.03 102.283 107.253 101.884 107.545 101.547C107.841 101.205 108.201 100.941 108.625 100.754C109.053 100.562 109.536 100.467 110.074 100.467C110.617 100.467 111.1 100.562 111.523 100.754C111.952 100.941 112.314 101.205 112.61 101.547C112.907 101.884 113.132 102.283 113.287 102.743C113.442 103.199 113.52 103.693 113.52 104.227V104.384C113.52 104.917 113.442 105.411 113.287 105.867C113.132 106.323 112.907 106.722 112.61 107.063C112.314 107.401 111.954 107.665 111.53 107.856C111.106 108.043 110.626 108.137 110.088 108.137C109.546 108.137 109.06 108.043 108.632 107.856C108.208 107.665 107.848 107.401 107.552 107.063C107.256 106.722 107.03 106.323 106.875 105.867C106.72 105.411 106.643 104.917 106.643 104.384ZM108.29 104.227V104.384C108.29 104.716 108.324 105.031 108.393 105.327C108.461 105.623 108.568 105.883 108.714 106.106C108.86 106.33 109.047 106.505 109.274 106.633C109.502 106.76 109.773 106.824 110.088 106.824C110.393 106.824 110.658 106.76 110.881 106.633C111.109 106.505 111.296 106.33 111.441 106.106C111.587 105.883 111.694 105.623 111.763 105.327C111.836 105.031 111.872 104.716 111.872 104.384V104.227C111.872 103.898 111.836 103.589 111.763 103.297C111.694 103.001 111.585 102.739 111.435 102.511C111.289 102.283 111.102 102.105 110.874 101.978C110.651 101.845 110.384 101.779 110.074 101.779C109.764 101.779 109.495 101.845 109.268 101.978C109.044 102.105 108.86 102.283 108.714 102.511C108.568 102.739 108.461 103.001 108.393 103.297C108.324 103.589 108.29 103.898 108.29 104.227ZM116.555 102.012V108H114.907V100.604H116.479L116.555 102.012ZM118.817 100.556L118.804 102.087C118.703 102.069 118.594 102.055 118.476 102.046C118.362 102.037 118.248 102.032 118.134 102.032C117.851 102.032 117.603 102.073 117.389 102.155C117.174 102.233 116.994 102.347 116.849 102.497C116.707 102.643 116.598 102.821 116.521 103.03C116.443 103.24 116.397 103.475 116.384 103.734L116.008 103.762C116.008 103.297 116.053 102.866 116.145 102.47C116.236 102.073 116.372 101.725 116.555 101.424C116.742 101.123 116.974 100.888 117.252 100.72C117.535 100.551 117.86 100.467 118.229 100.467C118.33 100.467 118.437 100.476 118.551 100.494C118.669 100.512 118.758 100.533 118.817 100.556ZM121.497 102.107V108H119.85V100.604H121.401L121.497 102.107ZM121.23 104.028L120.67 104.021C120.67 103.511 120.734 103.039 120.861 102.606C120.989 102.174 121.176 101.798 121.422 101.479C121.668 101.155 121.973 100.907 122.338 100.733C122.707 100.556 123.133 100.467 123.616 100.467C123.953 100.467 124.261 100.517 124.539 100.617C124.822 100.713 125.065 100.866 125.271 101.075C125.48 101.285 125.64 101.554 125.749 101.882C125.863 102.21 125.92 102.606 125.92 103.071V108H124.272V103.215C124.272 102.855 124.218 102.572 124.108 102.367C124.004 102.162 123.851 102.016 123.65 101.93C123.454 101.839 123.22 101.793 122.946 101.793C122.636 101.793 122.372 101.852 122.153 101.971C121.939 102.089 121.764 102.251 121.627 102.456C121.49 102.661 121.39 102.898 121.326 103.167C121.262 103.436 121.23 103.723 121.23 104.028ZM125.817 103.591L125.045 103.762C125.045 103.315 125.106 102.894 125.229 102.497C125.357 102.096 125.542 101.745 125.783 101.444C126.029 101.139 126.332 100.9 126.692 100.727C127.052 100.553 127.465 100.467 127.93 100.467C128.308 100.467 128.645 100.519 128.941 100.624C129.242 100.724 129.497 100.884 129.707 101.103C129.917 101.321 130.076 101.606 130.186 101.957C130.295 102.303 130.35 102.723 130.35 103.215V108H128.695V103.208C128.695 102.834 128.641 102.545 128.531 102.34C128.426 102.135 128.276 101.993 128.08 101.916C127.884 101.834 127.649 101.793 127.376 101.793C127.121 101.793 126.895 101.841 126.699 101.937C126.508 102.028 126.346 102.158 126.214 102.326C126.082 102.49 125.981 102.679 125.913 102.894C125.849 103.108 125.817 103.34 125.817 103.591ZM136.215 106.517V102.989C136.215 102.725 136.167 102.497 136.071 102.306C135.976 102.114 135.83 101.966 135.634 101.861C135.442 101.757 135.201 101.704 134.909 101.704C134.64 101.704 134.408 101.75 134.212 101.841C134.016 101.932 133.863 102.055 133.754 102.21C133.645 102.365 133.59 102.54 133.59 102.736H131.949C131.949 102.445 132.02 102.162 132.161 101.889C132.302 101.615 132.507 101.371 132.776 101.157C133.045 100.943 133.367 100.774 133.74 100.651C134.114 100.528 134.533 100.467 134.998 100.467C135.554 100.467 136.046 100.56 136.475 100.747C136.908 100.934 137.247 101.216 137.493 101.595C137.744 101.968 137.869 102.438 137.869 103.003V106.291C137.869 106.628 137.892 106.931 137.938 107.2C137.988 107.465 138.058 107.695 138.149 107.891V108H136.461C136.383 107.822 136.322 107.597 136.276 107.323C136.235 107.045 136.215 106.776 136.215 106.517ZM136.454 103.502L136.468 104.521H135.285C134.98 104.521 134.711 104.55 134.479 104.609C134.246 104.664 134.052 104.746 133.897 104.855C133.743 104.965 133.626 105.097 133.549 105.252C133.471 105.407 133.433 105.582 133.433 105.778C133.433 105.974 133.478 106.154 133.569 106.318C133.66 106.478 133.793 106.603 133.966 106.694C134.144 106.785 134.358 106.831 134.608 106.831C134.946 106.831 135.24 106.763 135.49 106.626C135.745 106.485 135.946 106.314 136.092 106.113C136.238 105.908 136.315 105.715 136.324 105.532L136.857 106.264C136.803 106.451 136.709 106.651 136.577 106.865C136.445 107.079 136.272 107.285 136.058 107.48C135.848 107.672 135.595 107.829 135.299 107.952C135.007 108.075 134.67 108.137 134.287 108.137C133.804 108.137 133.373 108.041 132.995 107.85C132.617 107.654 132.321 107.392 132.106 107.063C131.892 106.731 131.785 106.355 131.785 105.936C131.785 105.544 131.858 105.197 132.004 104.896C132.154 104.591 132.373 104.336 132.66 104.131C132.952 103.926 133.307 103.771 133.727 103.666C134.146 103.557 134.624 103.502 135.162 103.502H136.454ZM142.982 100.604V101.807H138.812V100.604H142.982ZM140.016 98.792H141.663V105.956C141.663 106.184 141.695 106.359 141.759 106.482C141.827 106.601 141.921 106.681 142.039 106.722C142.158 106.763 142.297 106.783 142.456 106.783C142.57 106.783 142.679 106.776 142.784 106.763C142.889 106.749 142.973 106.735 143.037 106.722L143.044 107.979C142.907 108.021 142.748 108.057 142.565 108.089C142.388 108.121 142.183 108.137 141.95 108.137C141.572 108.137 141.237 108.071 140.945 107.938C140.654 107.802 140.426 107.581 140.262 107.275C140.098 106.97 140.016 106.564 140.016 106.059V98.792Z" fill="#28292C"/>
<rect x="9" y="8" width="53" height="13" fill="#032E45"/>
<rect x="9" y="75" width="166" height="9" fill="#5F5F5F"/>
<rect x="10" y="28" width="44" height="5" fill="#CCCCCC"/>
<rect x="10" y="36" width="35" height="5" fill="#CCCCCC"/>
<rect x="10" y="44" width="44" height="5" fill="#CCCCCC"/>
<rect x="10" y="52" width="33" height="5" fill="#CCCCCC"/>
<rect x="10" y="60" width="41" height="5" fill="#CCCCCC"/>
<rect x="66" y="28" width="44" height="5" fill="#CCCCCC"/>
<rect x="66" y="36" width="35" height="5" fill="#CCCCCC"/>
<rect x="66" y="44" width="44" height="5" fill="#CCCCCC"/>
<rect x="66" y="52" width="33" height="5" fill="#CCCCCC"/>
<rect x="122" y="28" width="44" height="5" fill="#CCCCCC"/>
<rect x="122" y="36" width="35" height="5" fill="#CCCCCC"/>
<rect x="122" y="44" width="44" height="5" fill="#CCCCCC"/>
<rect x="122" y="52" width="33" height="5" fill="#CCCCCC"/>
<rect x="122" y="60" width="41" height="5" fill="#CCCCCC"/>
<rect x="66" y="8" width="52" height="13" fill="#006176"/>
<rect x="122" y="8" width="53" height="13" fill="#0696A6"/>
</svg>
