<svg width="25" height="24" viewBox="0 0 25 24" fill="none" xmlns="http://www.w3.org/2000/svg">
<path fill-rule="evenodd" clip-rule="evenodd" d="M12.5 2C6.98 2 2.5 6.48 2.5 12C2.5 17.52 6.98 22 12.5 22C18.02 22 22.5 17.52 22.5 12C22.5 6.48 18.02 2 12.5 2ZM12.5 5C14.16 5 15.5 6.34 15.5 8C15.5 9.66 14.16 11 12.5 11C10.84 11 9.5 9.66 9.5 8C9.5 6.34 10.84 5 12.5 5ZM6.5 15.98C7.79 17.92 10 19.2 12.5 19.2C15 19.2 17.21 17.92 18.5 15.98C18.47 13.99 14.49 12.9 12.5 12.9C10.5 12.9 6.53 13.99 6.5 15.98Z" fill="black"/>
<mask id="mask0" mask-type="alpha" maskUnits="userSpaceOnUse" x="2" y="2" width="21" height="20">
<path fill-rule="evenodd" clip-rule="evenodd" d="M12.5 2C6.98 2 2.5 6.48 2.5 12C2.5 17.52 6.98 22 12.5 22C18.02 22 22.5 17.52 22.5 12C22.5 6.48 18.02 2 12.5 2ZM12.5 5C14.16 5 15.5 6.34 15.5 8C15.5 9.66 14.16 11 12.5 11C10.84 11 9.5 9.66 9.5 8C9.5 6.34 10.84 5 12.5 5ZM6.5 15.98C7.79 17.92 10 19.2 12.5 19.2C15 19.2 17.21 17.92 18.5 15.98C18.47 13.99 14.49 12.9 12.5 12.9C10.5 12.9 6.53 13.99 6.5 15.98Z" fill="white"/>
</mask>
<g mask="url(#mask0)">
<rect x="0.5" width="24" height="24" fill="#5CB247"/>
</g>
</svg>
